<svg width="24" height="24" viewBox="0 0 24 24" fill="none" xmlns="http://www.w3.org/2000/svg">
<g id="outline icon">
<path id="vector" fill-rule="evenodd" clip-rule="evenodd" d="M17 5.25C19.167 5.25 20.653 5.734 21.553 6.734C21.9601 7.26391 22.2503 7.87398 22.4048 8.52409C22.5592 9.17421 22.5743 9.84964 22.449 10.506L21.7 18.496C21.476 20.604 20.623 22.75 16 22.75H8.00001C3.37701 22.75 2.52401 20.6 2.29801 18.506L1.54701 10.496C1.42313 9.84093 1.43928 9.16706 1.59439 8.51868C1.74951 7.8703 2.04008 7.26208 2.44701 6.734C3.34401 5.735 4.83301 5.25 7.00001 5.25H7.25001V5.2C7.25001 3.44 7.25001 1.25 11.2 1.25H12.8C16.75 1.25 16.75 3.44 16.75 5.2V5.25H17ZM11.2 2.75C8.75001 2.75 8.75001 3.417 8.75001 5.2V5.25H15.25V5.2C15.25 3.417 15.25 2.75 12.8 2.75H11.2ZM16 21.247C19.608 21.247 20.039 19.935 20.208 18.347L20.76 12.473C18.9025 13.5757 16.857 14.3207 14.7293 14.6714C14.6443 15.6455 14.2108 16.75 12 16.75C9.78516 16.75 9.35415 15.6453 9.27027 14.6841C7.14824 14.3536 5.10512 13.6273 3.24801 12.541L3.79301 18.353C3.96101 19.932 4.40001 21.247 8.00001 21.247H16ZM9.25 13.1563C7.03886 12.7758 4.93152 11.9251 3.07201 10.658L3.04201 10.338C2.93882 9.89095 2.93182 9.42707 3.02147 8.97711C3.11112 8.52715 3.29537 8.10137 3.56201 7.728C4.15001 7.082 5.30801 6.75 7.00001 6.75H17C18.692 6.75 19.85 7.082 20.438 7.736C20.7052 8.11099 20.8897 8.53851 20.9792 8.9902C21.0687 9.4419 21.0611 9.90745 20.957 10.356L20.936 10.579C19.0787 11.8697 16.9687 12.7448 14.75 13.1488V13C14.75 11.593 14.406 11.25 13 11.25H11C9.594 11.25 9.25 11.593 9.25 13V13.1563ZM12 15.25C13.25 15.25 13.25 15.086 13.25 14.02V13V12.751H10.75V13V14.03C10.75 15.063 10.75 15.25 12 15.25Z" fill="#0C4A25"/>
</g>
</svg>
