<svg width="24" height="24" viewBox="0 0 24 24" fill="none" xmlns="http://www.w3.org/2000/svg">
<g id="outline icon">
<path id="vector" fill-rule="evenodd" clip-rule="evenodd" d="M17.0079 11.1857C16.8006 11.1847 16.593 11.1639 16.3877 11.1231C15.7563 10.9974 15.1762 10.6873 14.7209 10.232C14.2657 9.77664 13.9557 9.19654 13.8301 8.56502C13.7045 7.9335 13.769 7.27893 14.0155 6.68407C14.2619 6.08921 14.6792 5.58078 15.2146 5.22307C15.7499 4.86537 16.3794 4.67444 17.0232 4.67444C17.8865 4.67545 18.7141 5.01886 19.3244 5.62931C19.9347 6.23976 20.278 7.0674 20.2789 7.93063C20.2788 8.57451 20.0877 9.2039 19.7299 9.73922C19.3721 10.2745 18.8636 10.6917 18.2687 10.9381C17.8767 11.1004 17.4588 11.1837 17.0386 11.1857C17.0335 11.1857 17.0284 11.1857 17.0233 11.1857C17.0181 11.1857 17.013 11.1857 17.0079 11.1857ZM20.0037 11.8543C20.1804 11.7201 20.3487 11.5733 20.5074 11.4147C21.4316 10.4905 21.9516 9.23759 21.9533 7.93063C21.9534 6.95553 21.6644 6.0023 21.1227 5.19148C20.581 4.38066 19.8111 3.74867 18.9103 3.37544C18.0094 3.00221 17.0181 2.9045 16.0618 3.09466C15.1054 3.28483 14.2269 3.75433 13.5374 4.44379C12.8478 5.13324 12.3782 6.0117 12.1879 6.96805C11.9977 7.9244 12.0953 8.9157 12.4684 9.81659C12.8033 10.6251 13.3465 11.3282 14.0405 11.8554C13.3229 12.1948 12.6619 12.6572 12.0899 13.2291C10.7816 14.5375 10.0465 16.3121 10.0465 18.1624V18.907C10.0473 19.7209 10.371 20.5012 10.9465 21.0767C11.5221 21.6522 12.3024 21.9759 13.1163 21.9767H20.9302C21.7441 21.9759 22.5245 21.6522 23.1 21.0767C23.6755 20.5012 23.9992 19.7209 24 18.907V18.1624C24 16.3121 23.265 14.5375 21.9566 13.2291C21.384 12.6565 20.7221 12.1937 20.0037 11.8543ZM17.0135 12.8601C17.0168 12.8601 17.02 12.8601 17.0232 12.8601C17.0258 12.8601 17.0284 12.8601 17.031 12.8601C18.434 12.8637 19.7786 13.4227 20.7708 14.4149C21.7648 15.4089 22.324 16.7566 22.3256 18.1624V18.907C22.3252 19.2769 22.1781 19.6316 21.9165 19.8933C21.6549 20.1549 21.3002 20.302 20.9302 20.3023H13.1163C12.7463 20.302 12.3916 20.1549 12.13 19.8933C11.8684 19.6316 11.7213 19.2769 11.7209 18.907V18.1624C11.7225 16.7566 12.2817 15.4089 13.2757 14.4149C14.2674 13.4231 15.6112 12.8643 17.0135 12.8601ZM5.69633 14.5313C5.75094 14.5334 5.80566 14.5345 5.86046 14.5345C5.91371 14.5344 5.96686 14.5334 6.01988 14.5313H6.28446C7.20374 14.5263 8.0918 14.8645 8.77488 15.4797C8.85691 15.5528 8.95254 15.6091 9.05632 15.6453C9.1601 15.6815 9.26999 15.6969 9.37972 15.6906C9.48945 15.6844 9.59687 15.6565 9.69584 15.6087C9.79482 15.561 9.88341 15.4941 9.95657 15.4121C10.0297 15.3301 10.086 15.2344 10.1222 15.1307C10.1584 15.0269 10.1738 14.917 10.1675 14.8073C10.1612 14.6975 10.1334 14.5901 10.0856 14.4911C10.0378 14.3922 9.97101 14.3036 9.88898 14.2304C9.52671 13.9071 9.1256 13.6367 8.69757 13.4236C8.73874 13.3857 8.77923 13.3468 8.819 13.307C9.60375 12.5222 10.0452 11.4583 10.0465 10.3485C10.0465 9.52054 9.801 8.71121 9.34103 8.02282C8.88106 7.33443 8.22729 6.79789 7.46239 6.48106C6.69749 6.16423 5.85581 6.08133 5.0438 6.24285C4.23179 6.40437 3.4859 6.80305 2.90047 7.38848C2.31505 7.97391 1.91636 8.71979 1.75484 9.53181C1.59332 10.3438 1.67622 11.1855 1.99305 11.9504C2.22635 12.5136 2.57876 13.0166 3.0232 13.4263C2.49814 13.6873 2.01386 14.0336 1.59188 14.4564C0.572713 15.4777 0.000224261 16.8614 0 18.3042V19.052C0.00238817 19.8288 0.312796 20.573 0.863138 21.1213C1.41348 21.6696 2.15882 21.9772 2.93568 21.9767H8.79614C8.98078 21.9784 9.1651 21.9609 9.34611 21.9244C9.54583 21.8964 9.72859 21.7968 9.8605 21.6443C9.9924 21.4917 10.0645 21.2965 10.0634 21.0948C10.0604 20.9692 10.0297 20.8457 9.97347 20.7333C9.91727 20.6208 9.83697 20.5222 9.73829 20.4443C9.63961 20.3664 9.52497 20.3113 9.40254 20.2828C9.28011 20.2543 9.15291 20.2531 9.02998 20.2794C8.95325 20.2965 8.87473 20.3042 8.79614 20.3023H2.93568C2.60277 20.3033 2.28305 20.1722 2.04662 19.9379C1.81018 19.7035 1.67634 19.3849 1.67442 19.052V18.3042C1.67415 17.3054 2.07008 16.3472 2.77533 15.6399C3.48059 14.9326 4.43759 14.5339 5.43641 14.5313H5.69633ZM5.98754 12.8569H5.73334C5.61194 12.8507 5.49066 12.8357 5.37046 12.8118C4.88325 12.7149 4.43572 12.4757 4.08447 12.1245C3.73321 11.7732 3.494 11.3257 3.39709 10.8385C3.30018 10.3512 3.34992 9.84624 3.54001 9.3873C3.73011 8.92836 4.05204 8.5361 4.46507 8.26012C4.87811 7.98414 5.3637 7.83684 5.86046 7.83684C6.52633 7.83765 7.1647 8.10253 7.63554 8.57338C8.10639 9.04422 8.37127 9.68259 8.37208 10.3485C8.37208 10.8452 8.22478 11.3308 7.9488 11.7438C7.67282 12.1569 7.28055 12.4788 6.82161 12.6689C6.55497 12.7794 6.27277 12.8424 5.98754 12.8569Z" fill="#0C4A25"/>
</g>
</svg>
