<svg width="24" height="24" viewBox="0 0 24 24" fill="none" xmlns="http://www.w3.org/2000/svg">
<g id="outline icon">
<path id="vector" fill-rule="evenodd" clip-rule="evenodd" d="M9.39825 12.75H3.35175C2.331 12.75 1.5 11.919 1.5 10.8983V3.35175C1.5 2.331 2.331 1.5 3.35175 1.5H9.39825C10.419 1.5 11.25 2.331 11.25 3.35175V10.8983C11.25 11.919 10.419 12.75 9.39825 12.75ZM3.35175 3C3.1575 3 3 3.1575 3 3.35175V10.8983C3 11.0925 3.1575 11.25 3.35175 11.25H9.39825C9.5925 11.25 9.75 11.0925 9.75 10.8983V3.35175C9.75 3.1575 9.5925 3 9.39825 3H3.35175ZM14.6017 9.75H20.6483C21.669 9.75 22.5 8.919 22.5 7.89825V3.35175C22.5 2.331 21.669 1.5 20.6483 1.5H14.6017C13.581 1.5 12.75 2.331 12.75 3.35175V7.89825C12.75 8.919 13.581 9.75 14.6017 9.75ZM14.25 3.35175C14.25 3.1575 14.4075 3 14.6017 3H20.6483C20.8425 3 21 3.1575 21 3.35175V7.89825C21 8.0925 20.8425 8.25 20.6483 8.25H14.6017C14.4075 8.25 14.25 8.0925 14.25 7.89825V3.35175ZM14.6017 22.5H20.6483C21.669 22.5 22.5 21.669 22.5 20.6483V13.1017C22.5 12.081 21.669 11.25 20.6483 11.25H14.6017C13.581 11.25 12.75 12.081 12.75 13.1017V20.6483C12.75 21.669 13.581 22.5 14.6017 22.5ZM14.25 13.1017C14.25 12.9075 14.4075 12.75 14.6017 12.75H20.6483C20.8425 12.75 21 12.9075 21 13.1017V20.6483C21 20.8425 20.8425 21 20.6483 21H14.6017C14.4075 21 14.25 20.8425 14.25 20.6483V13.1017ZM3.35175 22.5H9.39825C10.419 22.5 11.25 21.669 11.25 20.6483V16.1017C11.25 15.081 10.419 14.25 9.39825 14.25H3.35175C2.331 14.25 1.5 15.081 1.5 16.1017V20.6483C1.5 21.669 2.331 22.5 3.35175 22.5ZM3 16.1017C3 15.9075 3.1575 15.75 3.35175 15.75H9.39825C9.5925 15.75 9.75 15.9075 9.75 16.1017V20.6483C9.75 20.8425 9.5925 21 9.39825 21H3.35175C3.1575 21 3 20.8425 3 20.6483V16.1017Z" fill="#0C4A25"/>
</g>
</svg>
