<svg width="24" height="24" viewBox="0 0 24 24" fill="none" xmlns="http://www.w3.org/2000/svg">
<g id="outline icon">
<path id="vector" fill-rule="evenodd" clip-rule="evenodd" d="M18.022 0.958008C19.2727 0.964451 20.4706 1.46266 21.357 2.34501C22.2486 3.23718 22.7496 4.44673 22.75 5.70801V8.13401C22.7757 8.57725 22.7074 9.02091 22.5494 9.43585C22.3915 9.85079 22.1475 10.2276 21.8336 10.5416C21.5196 10.8555 21.1428 11.0995 20.7279 11.2574C20.3129 11.4154 19.8692 11.4837 19.426 11.458H16.751V20.709C16.7506 21.0338 16.6599 21.3522 16.489 21.6284C16.318 21.9046 16.0736 22.1279 15.7831 22.2732C15.4925 22.4184 15.1673 22.48 14.8438 22.451C14.5202 22.422 14.2111 22.3036 13.951 22.109L12.24 20.829C12.1934 20.7927 12.1352 20.7747 12.0762 20.7784C12.0173 20.7821 11.9617 20.8072 11.92 20.849L10.24 22.528C10.0776 22.6914 9.88435 22.8209 9.67149 22.9089C9.45862 22.997 9.23037 23.0419 9.00001 23.041C8.76863 23.0417 8.53943 22.9963 8.32583 22.9073C8.11223 22.8184 7.91851 22.6877 7.75601 22.523L6.09401 20.852C6.05061 20.8084 5.99289 20.7819 5.9315 20.7775C5.87012 20.7731 5.80921 20.791 5.76001 20.828L4.05001 22.108C3.79032 22.3042 3.48098 22.4239 3.15689 22.4537C2.83279 22.4835 2.50682 22.4221 2.21572 22.2766C1.92462 22.131 1.67996 21.9071 1.50933 21.6299C1.3387 21.3528 1.24889 21.0335 1.25001 20.708V5.70801C1.25001 2.68901 2.98101 0.958008 6.00001 0.958008H18.022ZM15.2138 20.8401C15.2385 20.8001 15.251 20.7539 15.25 20.707V3.70801C15.25 3.70101 15.2513 3.69451 15.2525 3.68801C15.2538 3.68151 15.255 3.67501 15.255 3.66801C15.2582 3.48257 15.2803 3.29795 15.321 3.11701C15.3328 3.06153 15.3504 3.00942 15.368 2.95701C15.3758 2.93384 15.3837 2.91061 15.391 2.88701C15.424 2.77752 15.4641 2.67029 15.511 2.56601C15.5183 2.55014 15.5235 2.53345 15.5287 2.51677C15.5349 2.49667 15.5412 2.47659 15.551 2.45801H6.00001C3.78301 2.45801 2.75001 3.49001 2.75001 5.70801V20.708C2.74832 20.7556 2.76058 20.8026 2.78527 20.8433C2.80997 20.884 2.84603 20.9166 2.88901 20.937C2.92964 20.9591 2.976 20.9685 3.02202 20.9638C3.06805 20.9592 3.11161 20.9408 3.14701 20.911L4.85801 19.633C5.19762 19.3802 5.61682 19.258 6.03908 19.2886C6.46134 19.3193 6.85848 19.5008 7.15801 19.8L8.82001 21.468C8.86815 21.515 8.93277 21.5412 9.00001 21.541H9.00301C9.07025 21.5412 9.13487 21.515 9.18301 21.468L10.863 19.788C11.1613 19.4904 11.5572 19.3108 11.9777 19.2825C12.3981 19.2542 12.8145 19.3791 13.15 19.634L14.85 20.908C14.8864 20.9371 14.9305 20.9549 14.9769 20.9592C15.0233 20.9634 15.0699 20.954 15.111 20.932C15.1534 20.9119 15.1891 20.88 15.2138 20.8401ZM21.1633 8.86146C21.246 8.62845 21.2756 8.37992 21.25 8.13401V5.70801C21.2513 4.84824 20.9114 4.02309 20.3049 3.41374C19.6983 2.80439 18.8748 2.46066 18.015 2.45801H18.009C17.6754 2.45906 17.3558 2.59205 17.1199 2.82793C16.884 3.06381 16.7511 3.38342 16.75 3.71701V9.95801H19.425C19.6709 9.98375 19.9195 9.95427 20.1525 9.87172C20.3856 9.78917 20.5972 9.65564 20.7721 9.48086C20.947 9.30608 21.0807 9.09447 21.1633 8.86146ZM6.80048 9.27158C6.91036 9.10713 6.96901 8.91379 6.96901 8.71601C6.96901 8.45079 6.86365 8.19644 6.67612 8.0089C6.48858 7.82136 6.23423 7.71601 5.96901 7.71601C5.77123 7.71601 5.57789 7.77466 5.41344 7.88454C5.24899 7.99442 5.12082 8.1506 5.04513 8.33332C4.96944 8.51605 4.94964 8.71712 4.98822 8.9111C5.02681 9.10508 5.12205 9.28326 5.2619 9.42311C5.40176 9.56297 5.57994 9.65821 5.77392 9.69679C5.9679 9.73538 6.16897 9.71557 6.35169 9.63989C6.53442 9.5642 6.6906 9.43603 6.80048 9.27158ZM6.80048 13.2716C6.91036 13.1071 6.96901 12.9138 6.96901 12.716C6.96901 12.4508 6.86365 12.1964 6.67612 12.0089C6.48858 11.8214 6.23423 11.716 5.96901 11.716C5.77123 11.716 5.57789 11.7747 5.41344 11.8845C5.24899 11.9944 5.12082 12.1506 5.04513 12.3333C4.96944 12.5161 4.94964 12.7171 4.98822 12.9111C5.02681 13.1051 5.12205 13.2833 5.2619 13.4231C5.40176 13.563 5.57994 13.6582 5.77392 13.6968C5.9679 13.7354 6.16897 13.7156 6.35169 13.6399C6.53442 13.5642 6.6906 13.436 6.80048 13.2716ZM12.5303 13.2463C12.671 13.1057 12.75 12.9149 12.75 12.716C12.75 12.5171 12.671 12.3263 12.5303 12.1857C12.3897 12.045 12.1989 11.966 12 11.966H9C8.80109 11.966 8.61032 12.045 8.46967 12.1857C8.32902 12.3263 8.25 12.5171 8.25 12.716C8.25 12.9149 8.32902 13.1057 8.46967 13.2463C8.61032 13.387 8.80109 13.466 9 13.466H12C12.1989 13.466 12.3897 13.387 12.5303 13.2463ZM12 9.466H9C8.80109 9.466 8.61032 9.38699 8.46967 9.24633C8.32902 9.10568 8.25 8.91492 8.25 8.716C8.25 8.51709 8.32902 8.32633 8.46967 8.18567C8.61032 8.04502 8.80109 7.966 9 7.966H12C12.1989 7.966 12.3897 8.04502 12.5303 8.18567C12.671 8.32633 12.75 8.51709 12.75 8.716C12.75 8.91492 12.671 9.10568 12.5303 9.24633C12.3897 9.38699 12.1989 9.466 12 9.466Z" fill="#0C4A25"/>
</g>
</svg>
