<svg width="24" height="24" viewBox="0 0 24 24" fill="none" xmlns="http://www.w3.org/2000/svg">
<g id="outline icon">
<path id="vector" fill-rule="evenodd" clip-rule="evenodd" d="M19.4465 8.39426C19.6543 8.47483 19.879 8.50177 20.1 8.47258C20.801 8.47443 21.4728 8.75386 21.9683 9.24974C22.4638 9.74561 22.7427 10.4176 22.744 11.1186V12.8776C22.7429 13.5792 22.4637 14.2517 21.9675 14.7478C21.4713 15.2438 20.7986 15.5228 20.097 15.5236C19.8754 15.4941 19.65 15.5208 19.4415 15.6014C19.233 15.682 19.0481 15.8137 18.904 15.9846C18.8286 16.1946 18.8074 16.4203 18.8424 16.6407C18.8773 16.8611 18.9673 17.0692 19.104 17.2456C19.4549 17.8547 19.5495 18.5782 19.3671 19.257C19.1846 19.9359 18.74 20.5145 18.131 20.8656L16.405 21.8576C16.0418 22.0729 15.6272 22.1862 15.205 22.1856C14.781 22.1846 14.3645 22.0735 13.9964 21.8632C13.6282 21.6528 13.3211 21.3504 13.105 20.9856L12.989 20.7856C12.401 19.7666 11.587 19.7676 11.001 20.7856L10.889 20.9856C10.565 21.5395 10.0346 21.9423 9.414 22.1056C9.10714 22.1889 8.78667 22.2097 8.47162 22.1668C8.15657 22.1238 7.85336 22.018 7.58 21.8556L5.862 20.8686C5.25302 20.5175 4.80841 19.9389 4.62594 19.26C4.44348 18.5812 4.5381 17.8577 4.889 17.2486C5.02568 17.0722 5.11566 16.8641 5.15062 16.6437C5.18558 16.4233 5.16439 16.1976 5.089 15.9876C4.94547 15.8171 4.76131 15.6855 4.55351 15.6049C4.3457 15.5243 4.12096 15.4974 3.9 15.5266C3.19795 15.5263 2.52467 15.2476 2.02787 14.7515C1.53107 14.2555 1.25132 13.5826 1.25 12.8806V11.1186C1.25106 10.4164 1.53072 9.74343 2.02758 9.24733C2.52444 8.75122 3.19787 8.47257 3.9 8.47258C4.12173 8.50226 4.34736 8.47559 4.55605 8.39502C4.76474 8.31444 4.94976 8.18257 5.094 8.01158C5.16939 7.80153 5.19058 7.57586 5.15562 7.35544C5.12066 7.13503 5.03068 6.92699 4.894 6.75058C4.5431 6.14148 4.44848 5.41796 4.63094 4.73911C4.81341 4.06026 5.25802 3.48167 5.867 3.13058L7.593 2.13858C7.86538 1.97738 8.16741 1.87262 8.4811 1.83053C8.7948 1.78844 9.11376 1.80988 9.419 1.89358C10.0392 2.05468 10.57 2.45535 10.895 3.00758L11.011 3.20758C11.599 4.22558 12.413 4.22558 12.999 3.20758L13.111 3.01358C13.435 2.45965 13.9654 2.05686 14.586 1.89358C14.8928 1.80962 15.2134 1.78849 15.5285 1.83144C15.8437 1.8744 16.1469 1.98057 16.42 2.14358L18.138 3.13058C18.747 3.48167 19.1916 4.06026 19.3741 4.73911C19.5565 5.41796 19.4619 6.14148 19.111 6.75058C18.9743 6.92699 18.8843 7.13503 18.8494 7.35544C18.8144 7.57586 18.8356 7.80153 18.911 8.01158C19.0545 8.18208 19.2387 8.31369 19.4465 8.39426ZM20.9127 13.6918C21.1285 13.4769 21.2502 13.1851 21.251 12.8806L21.247 11.1186C21.2465 10.8146 21.1254 10.5233 20.9104 10.3085C20.6954 10.0936 20.4039 9.97284 20.1 9.97258C19.6143 10.0102 19.1273 9.9176 18.6893 9.70439C18.2513 9.49118 17.878 9.16504 17.608 8.75958C17.3929 8.32331 17.298 7.83756 17.3332 7.35242C17.3683 6.86727 17.5322 6.40028 17.808 5.99958C17.9574 5.73576 17.9969 5.42371 17.9179 5.13098C17.839 4.83826 17.6478 4.58842 17.386 4.43558L15.66 3.44258C15.5569 3.38032 15.4423 3.33939 15.3231 3.32221C15.2039 3.30503 15.0825 3.31196 14.966 3.34258C14.7286 3.40507 14.5254 3.55892 14.401 3.77058L14.293 3.95758C14.083 4.39646 13.7599 4.77149 13.3569 5.04408C12.9539 5.31668 12.4855 5.47701 12 5.50858C11.5141 5.47663 11.0454 5.3157 10.6424 5.04238C10.2393 4.76905 9.91646 4.39321 9.707 3.95358L9.595 3.75958C9.47044 3.55111 9.26897 3.39992 9.034 3.33858C8.91952 3.30694 8.79982 3.29879 8.6821 3.3146C8.56438 3.33041 8.45108 3.36986 8.349 3.43058L6.614 4.43058C6.35081 4.58345 6.15874 4.83419 6.07969 5.12812C6.00063 5.42204 6.04101 5.7353 6.192 5.99958C6.46747 6.40066 6.63095 6.86798 6.66558 7.35331C6.70021 7.83865 6.60473 8.32444 6.389 8.76058C6.11932 9.16562 5.74653 9.49143 5.30903 9.70447C4.87154 9.9175 4.38516 10.0101 3.9 9.97258C3.59561 9.97231 3.30356 10.0928 3.08795 10.3077C2.87234 10.5226 2.75079 10.8142 2.75 11.1186V12.8806C2.75026 13.0313 2.78022 13.1806 2.83815 13.3197C2.89609 13.4589 2.98087 13.5853 3.08766 13.6917C3.19444 13.7982 3.32114 13.8825 3.46053 13.94C3.59991 13.9974 3.74924 14.0268 3.9 14.0266C4.38571 13.989 4.87265 14.0816 5.31068 14.2948C5.7487 14.508 6.12196 14.8341 6.392 15.2396C6.60711 15.6758 6.70197 16.1616 6.66682 16.6467C6.63166 17.1319 6.46776 17.5989 6.192 17.9996C6.04258 18.2634 6.00308 18.5754 6.08207 18.8682C6.16105 19.1609 6.35215 19.4107 6.614 19.5636L8.34 20.5566C8.4431 20.6188 8.55765 20.6598 8.67686 20.6769C8.79607 20.6941 8.91752 20.6872 9.034 20.6566C9.27145 20.5941 9.47455 20.4402 9.599 20.2286L9.707 20.0416C9.91695 19.6026 10.24 19.2274 10.643 18.9546C11.046 18.6819 11.5144 18.5213 12 18.4896C12.4867 18.5209 12.9563 18.6817 13.3601 18.9552C13.7639 19.2288 14.0873 19.6052 14.297 20.0456L14.409 20.2386C14.5336 20.447 14.735 20.5982 14.97 20.6596C15.0846 20.6901 15.2041 20.6977 15.3217 20.682C15.4392 20.6662 15.5525 20.6273 15.655 20.5676L17.39 19.5676C17.6532 19.4147 17.8453 19.164 17.9243 18.87C18.0034 18.5761 17.963 18.2629 17.812 17.9986C17.5362 17.5979 17.3723 17.1309 17.3372 16.6457C17.302 16.1606 17.3969 15.6748 17.612 15.2386C17.8816 14.8337 18.2542 14.508 18.6915 14.2949C19.1288 14.0819 19.615 13.9893 20.1 14.0266C20.4046 14.0271 20.6969 13.9067 20.9127 13.6918ZM9.91661 8.88156C10.5333 8.46951 11.2583 8.24957 12 8.24957C12.9942 8.2509 13.9472 8.64641 14.6502 9.34938C15.3532 10.0524 15.7487 11.0054 15.75 11.9996C15.75 12.7413 15.5301 13.4663 15.118 14.083C14.706 14.6996 14.1203 15.1803 13.4351 15.4641C12.7498 15.7479 11.9958 15.8222 11.2684 15.6775C10.541 15.5328 9.8728 15.1757 9.34835 14.6512C8.8239 14.1268 8.46675 13.4586 8.32206 12.7312C8.17736 12.0037 8.25163 11.2497 8.53545 10.5645C8.81928 9.87929 9.29993 9.29362 9.91661 8.88156ZM10.75 13.8704C11.12 14.1176 11.555 14.2496 12 14.2496C12.5965 14.2488 13.1683 14.0115 13.5901 13.5897C14.0119 13.1679 14.2492 12.5961 14.25 11.9996C14.25 11.5546 14.118 11.1195 13.8708 10.7495C13.6236 10.3795 13.2722 10.0911 12.861 9.92084C12.4499 9.75055 11.9975 9.70599 11.561 9.79281C11.1246 9.87962 10.7237 10.0939 10.409 10.4086C10.0943 10.7233 9.88005 11.1242 9.79323 11.5606C9.70642 11.9971 9.75098 12.4495 9.92127 12.8606C10.0916 13.2717 10.38 13.6231 10.75 13.8704Z" fill="#0C4A25"/>
</g>
</svg>
