<svg width="24" height="24" viewBox="0 0 24 24" fill="none" xmlns="http://www.w3.org/2000/svg">
<g id="outline icon">
<path id="vector" fill-rule="evenodd" clip-rule="evenodd" d="M17 2.25H7C2.593 2.25 1.25 3.594 1.25 8V16C1.25 20.406 2.593 21.75 7 21.75H17C21.407 21.75 22.75 20.406 22.75 16V8C22.75 3.594 21.407 2.25 17 2.25ZM21.25 16C21.25 19.575 20.575 20.25 17 20.25H7C3.425 20.25 2.75 19.575 2.75 16V8C2.75 4.425 3.425 3.75 7 3.75H17C20.575 3.75 21.25 4.425 21.25 8V16ZM19 8.75H14C13.8011 8.75 13.6103 8.67098 13.4697 8.53033C13.329 8.38968 13.25 8.19891 13.25 8C13.25 7.80109 13.329 7.61032 13.4697 7.46967C13.6103 7.32902 13.8011 7.25 14 7.25H19C19.1989 7.25 19.3897 7.32902 19.5303 7.46967C19.671 7.61032 19.75 7.80109 19.75 8C19.75 8.19891 19.671 8.38968 19.5303 8.53033C19.3897 8.67098 19.1989 8.75 19 8.75ZM15 11.25C14.8011 11.25 14.6103 11.329 14.4697 11.4697C14.329 11.6103 14.25 11.8011 14.25 12C14.25 12.1989 14.329 12.3897 14.4697 12.5303C14.6103 12.671 14.8011 12.75 15 12.75H19C19.1989 12.75 19.3897 12.671 19.5303 12.5303C19.671 12.3897 19.75 12.1989 19.75 12C19.75 11.8011 19.671 11.6103 19.5303 11.4697C19.3897 11.329 19.1989 11.25 19 11.25H15ZM19 15.25H17C16.8011 15.25 16.6103 15.329 16.4697 15.4697C16.329 15.6103 16.25 15.8011 16.25 16C16.25 16.1989 16.329 16.3897 16.4697 16.5303C16.6103 16.671 16.8011 16.75 17 16.75H19C19.1989 16.75 19.3897 16.671 19.5303 16.5303C19.671 16.3897 19.75 16.1989 19.75 16C19.75 15.8011 19.671 15.6103 19.5303 15.4697C19.3897 15.329 19.1989 15.25 19 15.25ZM9.92225 11.6106C9.50126 11.8919 9.00631 12.042 8.49999 12.042C7.82128 12.0412 7.1706 11.7712 6.69068 11.2913C6.21075 10.8114 5.94079 10.1607 5.93999 9.482C5.93999 8.97568 6.09013 8.48073 6.37143 8.05974C6.65273 7.63875 7.05254 7.31063 7.52032 7.11687C7.9881 6.92311 8.50283 6.87241 8.99942 6.97119C9.49602 7.06997 9.95216 7.31378 10.3102 7.67181C10.6682 8.02983 10.912 8.48598 11.0108 8.98257C11.1096 9.47916 11.0589 9.99389 10.8651 10.4617C10.6714 10.9294 10.3432 11.3293 9.92225 11.6106ZM9.089 8.60171C8.91466 8.48519 8.70968 8.423 8.49999 8.423C8.21912 8.42326 7.94981 8.53489 7.7511 8.7334C7.5524 8.93192 7.44052 9.20112 7.43999 9.482C7.43979 9.69169 7.50179 9.89673 7.61815 10.0712C7.7345 10.2456 7.89998 10.3816 8.09365 10.462C8.28733 10.5424 8.50049 10.5635 8.70617 10.5228C8.91186 10.482 9.10083 10.3811 9.24917 10.2329C9.39752 10.0847 9.49857 9.89581 9.53955 9.69016C9.58053 9.48451 9.5596 9.27133 9.4794 9.07759C9.3992 8.88384 9.26334 8.71823 9.089 8.60171ZM12.7179 16.5452C12.7466 16.451 12.7565 16.352 12.747 16.254C12.6596 15.379 12.2709 14.5615 11.6475 13.9413C11.024 13.3211 10.2045 12.9368 9.32899 12.854C8.77779 12.804 8.22319 12.804 7.67199 12.854C6.79634 12.9366 5.97657 13.3208 5.35291 13.941C4.72925 14.5612 4.34045 15.3788 4.25299 16.254C4.24071 16.4483 4.30439 16.6398 4.43059 16.7881C4.55679 16.9364 4.73566 17.0299 4.92945 17.0488C5.12325 17.0677 5.31683 17.0107 5.46935 16.8896C5.62187 16.7686 5.72142 16.593 5.74699 16.4C5.7996 15.8715 6.03459 15.3778 6.4116 15.0037C6.78861 14.6296 7.2841 14.3985 7.81299 14.35C8.27022 14.305 8.73076 14.305 9.18799 14.35C9.71609 14.3986 10.2109 14.6292 10.5876 15.0025C10.9643 15.3757 11.1995 15.8684 11.253 16.396C11.2713 16.5812 11.3578 16.753 11.4956 16.8781C11.6335 17.0032 11.8129 17.0727 11.999 17.073C12.0236 17.0745 12.0483 17.0745 12.073 17.073C12.171 17.0635 12.2662 17.0347 12.3531 16.9884C12.4401 16.9421 12.517 16.8791 12.5796 16.8031C12.6422 16.727 12.6892 16.6394 12.7179 16.5452Z" fill="#0C4A25"/>
</g>
</svg>
