<svg id="Layer_1" data-name="Layer 1" xmlns="http://www.w3.org/2000/svg" viewBox="0 0 1200 516.95"><defs><style>.cls-1{fill:#00434c;}</style></defs><path class="cls-1" d="M522.69,190.59H501V104.48H486.48A53.87,53.87,0,0,1,474,116a56.39,56.39,0,0,1-15.35,7.4v21.25A80,80,0,0,0,469,141.47a34.57,34.57,0,0,0,10.23-6v55.1H457.68V210h65Z"></path><path class="cls-1" d="M566,196.57a32.14,32.14,0,0,0,10.07,11.1,26.2,26.2,0,0,0,15.43,4.64A33.34,33.34,0,0,0,609,207.43a35.63,35.63,0,0,0,13.07-14.16q5-9.3,5-22.52t-5-22.66a36.32,36.32,0,0,0-13.38-14.56,35.26,35.26,0,0,0-18.66-5.12,31.37,31.37,0,0,0-13.14,3,31.83,31.83,0,0,0-10.94,8V96.61H546V210h20Zm0-38.72a34.4,34.4,0,0,1,9.21-7.17A22.88,22.88,0,0,1,586,148.09a18.11,18.11,0,0,1,10.71,3.22,21.89,21.89,0,0,1,7.08,8.34,24.83,24.83,0,0,1,2.52,11.1,22.3,22.3,0,0,1-5.43,15.2q-5.43,6.21-14.4,6.21a19.65,19.65,0,0,1-10.08-2.75,20.88,20.88,0,0,1-7.64-7.87A23.6,23.6,0,0,1,566,169.18Z"></path><path class="cls-1" d="M701.68,210h20v-79.5h-20v9a33.63,33.63,0,0,0-24.09-11,35.22,35.22,0,0,0-18.65,5.12,36.27,36.27,0,0,0-13.39,14.56q-4.95,9.43-4.95,22.66t4.88,22.52a35,35,0,0,0,13,14.16,33.61,33.61,0,0,0,17.7,4.88,26.2,26.2,0,0,0,15.43-4.64,32.17,32.17,0,0,0,10.08-11.1Zm-2.91-28.41a21.75,21.75,0,0,1-7.56,8,18.86,18.86,0,0,1-10,2.83q-9,0-14.4-6.3a22.51,22.51,0,0,1-5.43-15.27,25.26,25.26,0,0,1,2.52-11.17,21.85,21.85,0,0,1,7-8.42,18,18,0,0,1,10.78-3.23,22.43,22.43,0,0,1,10.79,2.67,36.14,36.14,0,0,1,9.21,7.25v11.33A24.73,24.73,0,0,1,698.77,181.54Z"></path><rect class="cls-1" x="746.22" y="96.61" width="19.99" height="113.34"></rect><path class="cls-1" d="M803,207.43a33.61,33.61,0,0,0,17.71,4.88,26.2,26.2,0,0,0,15.43-4.64,32.14,32.14,0,0,0,10.07-11.1V210h20v-79.5h-20v9a33.63,33.63,0,0,0-24.09-11,35.22,35.22,0,0,0-18.65,5.12,36.32,36.32,0,0,0-13.38,14.56q-5,9.43-5,22.66T790,193.27A35,35,0,0,0,803,207.43Zm5.43-47.85a21.93,21.93,0,0,1,7-8.42,18,18,0,0,1,10.79-3.23A22.37,22.37,0,0,1,837,150.6a36,36,0,0,1,9.21,7.25v11.33a24.62,24.62,0,0,1-2.91,12.36,21.67,21.67,0,0,1-7.56,8,18.85,18.85,0,0,1-10,2.83q-9,0-14.41-6.3a22.56,22.56,0,0,1-5.43-15.27A25.26,25.26,0,0,1,808.41,159.58Z"></path><path class="cls-1" d="M934.82,128.41a24.62,24.62,0,0,0-14.25,4.25,40.61,40.61,0,0,0-9.84,9.13V130.45h-20V210h20V159.58a35.93,35.93,0,0,1,7.95-8.19,16.47,16.47,0,0,1,10-3.46q6.77,0,10.62,3.93c2.57,2.63,3.86,6.61,3.86,12l.16,46.12h20v-48.8q0-16.36-8.18-24.56A27.61,27.61,0,0,0,934.82,128.41Z"></path><path class="cls-1" d="M1022.5,128.41a39.85,39.85,0,0,0-16.61,3.46,42.67,42.67,0,0,0-13.3,9.37,42.11,42.11,0,0,0-11.81,29.36,41.09,41.09,0,0,0,5.43,20.7,42.15,42.15,0,0,0,14.8,15.27,40.32,40.32,0,0,0,21.49,5.74q8.8,0,14.48-2.59a38.57,38.57,0,0,0,9-5.44V186a39.38,39.38,0,0,1-9.21,5,34.76,34.76,0,0,1-12.51,2,21.55,21.55,0,0,1-15.9-6.3q-6.3-6.28-6.29-16.05a22.06,22.06,0,0,1,3-11.5,22.4,22.4,0,0,1,8.1-8,21.64,21.64,0,0,1,11.1-3,33.82,33.82,0,0,1,12.51,2,42.36,42.36,0,0,1,9.21,5V136.75a50,50,0,0,0-9-5.51Q1031.31,128.4,1022.5,128.41Z"></path><path class="cls-1" d="M1136,167.92a45,45,0,0,0-4.48-20.54,33.4,33.4,0,0,0-12.91-13.93q-8.43-5-20.07-5a37.37,37.37,0,0,0-20.78,5.9,41.87,41.87,0,0,0-14.33,15.51,43.86,43.86,0,0,0-5.19,21.25,39.54,39.54,0,0,0,5.74,21.25A41.26,41.26,0,0,0,1079.41,207a43.64,43.64,0,0,0,21.49,5.35,39.55,39.55,0,0,0,16.45-3.38,46.68,46.68,0,0,0,11.25-6.69l.16-18.58a53.73,53.73,0,0,1-11.33,7.08,35.27,35.27,0,0,1-15.75,3.47,24.4,24.4,0,0,1-15.42-4.88,20.91,20.91,0,0,1-7.88-12.91H1136Zm-57.3-5.19a23.55,23.55,0,0,1,6.93-12.28,17.85,17.85,0,0,1,12.43-4.57,20.54,20.54,0,0,1,12.44,4.17q5.67,4.19,6.29,12.68Z"></path><circle class="cls-1" cx="99.44" cy="172" r="35.43"></circle><rect class="cls-1" x="161.89" y="96.61" width="71.14" height="289.57" rx="35.57"></rect><path class="cls-1" d="M310.14,171.65c-20.11-8-41.94,6.66-41.94,28.28h0a30.35,30.35,0,0,0,19.22,28.33,53.16,53.16,0,0,1,0,99.12A30.32,30.32,0,0,0,268.2,355.7h0C268.2,377.33,290,392,310.14,384a114.15,114.15,0,0,0,0-212.33Z"></path><path class="cls-1" d="M489.22,275.38v110.8H469.68V275.38Z"></path><path class="cls-1" d="M540.78,308.47v77.71H521.23V325.09H508.77V308.47ZM529.39,268a13.18,13.18,0,0,1,9.54,3.92,12.74,12.74,0,0,1,0,18.54,13,13,0,0,1-9.54,4,13.17,13.17,0,0,1-9.47-22.55A12.94,12.94,0,0,1,529.39,268Z"></path><path class="cls-1" d="M640.5,308.47l-36.78,77.71H591.25l-36.32-77.71h22.78l19.54,48.17,20.47-48.17Z"></path><path class="cls-1" d="M681.74,308.47v77.71H662.19V325.09H649.73V308.47ZM670.35,268a13.18,13.18,0,0,1,9.54,3.92,12.74,12.74,0,0,1,0,18.54,13,13,0,0,1-9.54,4,13.17,13.17,0,0,1-9.47-22.55A12.94,12.94,0,0,1,670.35,268Z"></path><path class="cls-1" d="M725.9,308.47v11.08a39.75,39.75,0,0,1,9.62-8.93,24.15,24.15,0,0,1,13.93-4.15,27,27,0,0,1,19.85,8q8,8,8,24v47.7H757.76l-.16-45.09q0-7.84-3.77-11.69t-10.39-3.85a16,16,0,0,0-9.77,3.39,34.91,34.91,0,0,0-7.77,8v49.24H706.36V308.47Z"></path><path class="cls-1" d="M830.55,306.47a32.85,32.85,0,0,1,23.54,10.77v-8.77h19.54v75.71q0,13.23-5.84,22.39a38.7,38.7,0,0,1-15.55,14A46.81,46.81,0,0,1,831,425.42q-10.32,0-16.93-3.07a80.37,80.37,0,0,1-12.31-7.08V396.8q3.54,2.16,7.46,4.62a42.3,42.3,0,0,0,8.93,4.15,36.16,36.16,0,0,0,11.62,1.69,28.88,28.88,0,0,0,12.46-2.61,21.14,21.14,0,0,0,8.7-7.31,18.74,18.74,0,0,0,3.15-10.7V373.1A31.3,31.3,0,0,1,844.24,384a25.56,25.56,0,0,1-15.08,4.54,32.93,32.93,0,0,1-17.31-4.77,34.25,34.25,0,0,1-12.7-13.85q-4.77-9.08-4.77-22t4.85-22.15a35.54,35.54,0,0,1,13.08-14.24A34.5,34.5,0,0,1,830.55,306.47Zm4,19.24A17.56,17.56,0,0,0,824,328.86a21.53,21.53,0,0,0-6.85,8.16,24.22,24.22,0,0,0-2.46,10.84A21.82,21.82,0,0,0,820,362.72q5.29,6.07,14.08,6.07a18.8,18.8,0,0,0,9.77-2.69,20.54,20.54,0,0,0,7.38-7.69,24,24,0,0,0,2.85-12.08V335.25a33.78,33.78,0,0,0-9-7A22.41,22.41,0,0,0,834.55,325.71Z"></path></svg>