<svg width="436" height="424" viewBox="0 0 436 424" fill="none" xmlns="http://www.w3.org/2000/svg">
<g filter="url(#filter0_d_147_5673)">
<path d="M297.25 285.291C297.25 291.033 295.388 296.43 292.12 301.129C284.979 311.408 271.118 318.372 255.176 318.372C239.235 318.372 225.374 311.408 218.232 301.129C214.964 296.43 213.103 291.033 213.103 285.291C213.103 267.022 231.938 252.21 255.176 252.21C278.414 252.21 297.25 267.026 297.25 285.291Z" fill="url(#paint0_radial_147_5673)"/>
<path d="M295.461 285.291C295.461 291.033 293.677 296.43 290.547 301.129C288.051 302.805 285.324 304.128 282.426 305.045C274.337 307.598 265.049 309.051 255.176 309.051C245.303 309.051 236.023 307.598 227.934 305.045C225.032 304.128 222.301 302.797 219.805 301.129C216.675 296.43 214.891 291.033 214.891 285.291C214.891 267.022 232.926 252.21 255.176 252.21C277.426 252.21 295.461 267.026 295.461 285.291Z" fill="#494989"/>
<path d="M335.791 222.457C334.243 226.068 332.15 230.175 329.337 234.744C328.625 235.909 327.857 237.106 327.044 238.331C322.053 245.843 317.021 255.501 312.586 265.143C309.863 271.059 307.363 276.976 305.237 282.385C301.473 291.97 293.502 299.291 283.637 302.274C275.187 304.826 265.488 306.279 255.176 306.279C244.864 306.279 235.174 304.826 226.723 302.274C216.85 299.291 208.879 291.962 205.115 282.377C202.989 276.964 200.498 271.051 197.774 265.135C193.332 255.485 188.3 245.827 183.308 238.315C169.114 216.966 170.151 204.646 170.199 204.126V204.11C170.216 178.983 208.253 158.62 255.176 158.62C302.099 158.62 340.153 178.995 340.153 204.126C340.153 204.126 340.88 210.611 335.791 222.461V222.457Z" fill="url(#paint1_linear_147_5673)"/>
<path d="M174.569 222.457C176.118 226.068 178.211 230.175 181.024 234.744C181.703 224.806 185.8 214.369 185.93 214.016C181.8 216.297 177.719 219.608 174.569 222.461V222.457Z" fill="url(#paint2_linear_147_5673)"/>
<path d="M335.792 222.457C334.243 226.068 332.15 230.175 329.337 234.744C328.658 224.806 324.561 214.369 324.431 214.016C328.56 216.297 332.641 219.608 335.792 222.461V222.457Z" fill="url(#paint3_linear_147_5673)"/>
<path d="M255.176 220.777C221.057 220.777 184.333 212.072 184.333 192.967C184.333 173.862 221.053 165.157 255.176 165.157C289.3 165.157 326.016 173.862 326.016 192.967C326.016 212.072 289.295 220.777 255.176 220.777Z" fill="url(#paint4_linear_147_5673)"/>
<path d="M255.176 213.342C289.821 213.342 317.907 203.088 317.907 190.439C317.907 177.79 289.821 167.535 255.176 167.535C220.531 167.535 192.445 177.79 192.445 190.439C192.445 203.088 220.531 213.342 255.176 213.342Z" fill="url(#paint5_linear_147_5673)"/>
<path d="M255.176 211.687C289.274 211.687 316.915 202.195 316.915 190.488C316.915 178.78 289.274 169.288 255.176 169.288C221.079 169.288 193.437 178.78 193.437 190.488C193.437 202.195 221.079 211.687 255.176 211.687Z" fill="url(#paint6_linear_147_5673)"/>
<path d="M313.338 179.782C313.338 191.49 287.3 202.637 255.176 202.637C223.053 202.637 197.014 191.494 197.014 179.782C197.014 168.071 223.053 158.583 255.176 158.583C287.3 158.583 313.338 168.075 313.338 179.782Z" fill="#494989"/>
<path d="M318.898 214.929C318.898 214.929 308.968 266.486 295.86 287.109C295.86 287.109 289.901 296.231 266.862 296.629V228.219C266.862 228.219 297.847 229.209 318.903 214.933L318.898 214.929Z" fill="url(#paint7_linear_147_5673)"/>
<path d="M197.738 220.48C197.738 220.48 202.9 222.858 209.257 224.445C209.257 224.445 211.245 248.042 215.415 272.232C215.415 272.232 207.274 259.145 204.888 253.196C202.506 247.247 197.738 220.476 197.738 220.476V220.48Z" fill="url(#paint8_linear_147_5673)"/>
<path d="M357.663 161.092C376.907 141.88 376.907 110.731 357.663 91.5192C338.42 72.3072 307.22 72.3072 287.976 91.5192C268.732 110.731 268.732 141.88 287.976 161.092C307.22 180.304 338.42 180.304 357.663 161.092Z" fill="url(#paint9_linear_147_5673)"/>
<path d="M273.447 126.306C273.447 153.47 295.51 175.501 322.724 175.501C327.211 175.501 331.544 174.905 335.674 173.785C346.649 162.597 353.063 148.775 353.063 133.233C353.063 113.868 343.1 93.4482 326.768 77.2811C325.435 77.1756 324.085 77.1147 322.72 77.1147C295.51 77.1147 273.443 99.1416 273.443 126.31L273.447 126.306Z" fill="#D8690C"/>
<path opacity="0.61" d="M368.322 126.306C368.322 133.85 366.476 140.972 363.208 147.233C360.603 108.459 346.275 90.4452 339.645 84.0944C356.445 90.7699 368.322 107.156 368.322 126.306Z" fill="#FCF4E4"/>
<path d="M148.824 65.9429H152.905C153.531 65.9429 154.043 66.4502 154.043 67.0792V97.5386H147.686V67.0792C147.686 66.4542 148.194 65.9429 148.824 65.9429Z" fill="url(#paint10_linear_147_5673)"/>
<path d="M234.682 126.306C234.682 153.47 212.619 175.501 185.406 175.501C180.918 175.501 176.585 174.905 172.456 173.785C151.526 168.108 136.133 148.998 136.133 126.31C136.133 100.505 156.046 79.3385 181.361 77.2811C182.695 77.1756 184.044 77.1147 185.41 77.1147C212.619 77.1147 234.686 99.1416 234.686 126.31L234.682 126.306Z" fill="url(#paint11_linear_147_5673)"/>
<path d="M234.682 126.306C234.682 153.47 212.619 175.501 185.406 175.501C180.918 175.501 176.585 174.905 172.456 173.785C161.481 162.597 155.067 148.775 155.067 133.233C155.067 113.868 165.029 93.4482 181.357 77.2811C182.691 77.1756 184.04 77.1147 185.406 77.1147C212.615 77.1147 234.682 99.1416 234.682 126.31V126.306Z" fill="#D8690C"/>
<path opacity="0.61" d="M139.934 126.306C139.934 133.85 141.779 140.972 145.047 147.233C147.653 108.459 161.981 90.4452 168.61 84.0944C151.811 90.7699 139.934 107.156 139.934 126.306Z" fill="#FCF4E4"/>
<path d="M354.087 126.886C354.087 167.953 309.27 197.082 253.982 197.082C198.693 197.082 153.876 167.953 153.876 126.886C153.876 85.8191 198.698 40 253.982 40C309.266 40 354.087 85.8191 354.087 126.886Z" fill="url(#paint12_linear_147_5673)"/>
<path d="M254.579 194.602H253.981C227.366 194.602 202.73 187.761 184.605 175.343C166.391 162.861 156.359 145.646 156.359 126.886C156.359 122.508 156.904 118.019 157.965 113.519C157.619 137.198 172.317 185.979 253.981 194.01L254.579 194.606V194.602Z" fill="url(#paint13_linear_147_5673)"/>
<path d="M284.312 87.1622H213.139C195.454 87.1622 180.87 101.524 179.232 118.766C175.907 116.27 173.407 113.182 171.94 109.506C164.79 91.5693 185.121 66.649 217.35 53.8581C249.575 41.0672 281.496 45.2389 288.645 63.1794C291.633 70.6989 289.812 78.6039 284.308 87.1663L284.312 87.1622Z" fill="url(#paint14_linear_147_5673)"/>
<path d="M346.64 131.249C346.64 148.325 337.381 164.09 320.553 175.619C303.25 187.476 279.605 194.01 253.981 194.01C250.811 194.01 247.669 193.913 244.563 193.714C331.512 183.715 341.356 134.069 336.483 98.1595C343.019 108.958 346.636 120.458 346.636 131.249H346.64Z" fill="url(#paint15_linear_147_5673)"/>
<path opacity="0.39" d="M253.689 155.739H214.887C196.888 155.739 182.247 141.122 182.247 123.153C182.247 105.184 196.888 90.567 214.887 90.567H291.832C311.83 90.567 328.101 106.811 328.101 126.777C328.101 143.626 316.635 158.113 300.213 162.004L253.717 171.378L253.685 155.739H253.689Z" fill="white"/>
<path d="M291.832 92.2186H214.887C197.775 92.2186 183.902 106.069 183.902 123.153C183.902 140.237 197.775 154.087 214.887 154.087H255.339L255.372 169.288L299.831 160.397C315.432 156.696 326.447 142.786 326.447 126.777C326.447 107.692 310.948 92.2186 291.832 92.2186Z" fill="url(#paint16_linear_147_5673)"/>
<path d="M286.605 92.2186H219.244C202.132 92.2186 185.646 106.069 185.646 123.153C185.646 140.237 202.132 152.435 219.244 152.435H256.993L257.026 167.637L294.604 158.746C310.204 155.045 321.22 142.786 321.22 126.777C321.22 107.692 305.721 92.2186 286.605 92.2186Z" fill="url(#paint17_linear_147_5673)"/>
<path d="M239.283 134.86C217.651 138.188 197.856 134.86 186.674 127.166C186.483 125.851 186.385 124.512 186.385 123.149C186.385 110.127 195.181 99.1294 207.156 95.7612C209.615 95.0673 212.204 94.694 214.887 94.694H291.677C291.812 95.2053 291.917 95.7166 291.999 96.2482C294.539 112.699 270.935 129.982 239.279 134.856L239.283 134.86Z" fill="url(#paint18_linear_147_5673)"/>
<path d="M234.495 126.764C235.504 119.606 230.51 112.988 223.341 111.98C216.172 110.973 209.542 115.959 208.533 123.116C207.524 130.274 212.518 136.892 219.687 137.899C226.856 138.906 233.486 133.921 234.495 126.764Z" fill="white"/>
<path d="M301.828 126.766C302.837 119.609 297.843 112.99 290.674 111.983C283.505 110.976 276.875 115.961 275.866 123.119C274.857 130.276 279.851 136.895 287.02 137.902C294.189 138.909 300.819 133.923 301.828 126.766Z" fill="white"/>
<path d="M354.692 233.446L349.014 240.312C346.218 243.7 340.836 242.84 339.173 238.774C338.56 237.268 337.934 235.824 337.296 234.444C332.767 224.579 327.869 217.936 324.419 214.004C322.646 211.979 321.711 209.41 321.711 206.809C321.711 205.47 321.959 204.131 322.455 202.844C325.317 195.426 334.893 193.385 340.515 199.017C344.271 202.791 348.408 207.6 352.193 213.468C353.583 215.607 354.916 217.879 356.164 220.302C358.383 224.567 357.753 229.745 354.692 233.446Z" fill="#494989"/>
<path d="M354.692 233.446L349.014 240.312C346.217 243.7 340.836 242.84 339.173 238.774C338.56 237.268 337.934 235.824 337.295 234.444C345.213 225.139 349.758 218.301 352.193 213.468C353.583 215.607 354.916 217.879 356.164 220.302C358.383 224.567 357.753 229.745 354.692 233.446Z" fill="#3D3D72"/>
<path d="M348.177 211.833C346.271 214.864 344.133 218.204 341.873 221.617C336.292 212.409 331.012 205.38 327.398 200.921C328.866 199.054 331.142 197.946 333.629 198.003C335.666 198.048 337.556 198.892 338.974 200.381C342.405 203.98 345.478 207.807 348.177 211.837V211.833Z" fill="url(#paint19_linear_147_5673)"/>
<path d="M372.411 333.938C372.411 333.938 368.545 343.053 361.834 348.645C360.395 349.85 358.83 350.885 357.144 351.635C347.567 355.9 340.84 353.453 337.324 347.87C337.324 347.87 321.675 323.522 318.586 313.579C315.509 303.633 313.919 303.617 317.244 288.976C320.561 274.334 326.349 252.186 332.381 244.309C338.413 236.436 348.348 226.916 353.27 220.513C357.505 215.026 360.444 209.365 363.688 210.895L363.696 210.903C367.952 212.928 398.413 275.893 372.411 333.938Z" fill="url(#paint20_linear_147_5673)"/>
<path d="M347.974 349.586C344.039 349.586 340.385 347.63 338.198 344.359C329.43 331.228 322.654 315.791 320.785 311.376C320.094 309.749 319.744 308.024 319.744 306.255C319.744 305.293 319.85 304.339 320.057 303.418C321.012 299.064 324.085 295.525 328.276 293.959C329.764 293.403 331.32 293.119 332.898 293.119C338.519 293.119 343.519 296.686 345.344 302.002C348.189 310.309 353.095 322.665 358.314 332.429C359.217 334.109 359.692 335.996 359.692 337.883C359.692 340.504 358.794 343.077 357.164 345.122C356.026 346.591 354.485 347.792 352.721 348.58C351.213 349.249 349.616 349.59 347.974 349.59V349.586Z" fill="url(#paint21_linear_147_5673)"/>
<path d="M358.034 337.879C358.034 340.127 357.274 342.322 355.867 344.092C354.9 345.337 353.599 346.372 352.042 347.066C347.555 349.059 342.295 347.512 339.572 343.438C332.414 332.713 326.016 319.496 322.309 310.727C321.687 309.266 321.399 307.744 321.399 306.247C321.399 305.411 321.488 304.579 321.671 303.775C322.472 300.115 325.057 296.917 328.853 295.497C334.926 293.224 341.673 296.406 343.775 302.529C346.665 310.958 351.555 323.294 356.851 333.2C357.656 334.697 358.034 336.3 358.034 337.875V337.879Z" fill="url(#paint22_linear_147_5673)"/>
<path d="M337.983 332.904C341.056 333.111 345.381 333.821 349.713 335.894C352.018 336.998 353.201 339.616 352.538 342.083C351.311 346.652 349.486 352.743 344.324 357.897C340.665 361.549 335.906 363.03 332.747 363.874C330.585 364.451 328.427 362.974 328.126 360.762C327.39 355.385 326.886 345.341 331.329 336.617C332.585 334.154 335.219 332.713 337.983 332.9V332.904Z" fill="url(#paint23_linear_147_5673)"/>
<path d="M350.945 341.657C349.645 346.482 349.482 349.322 344.771 354.034C341.544 357.248 337.28 358.684 333.939 359.577C333.804 359.609 333.682 359.634 333.548 359.634C341.93 351.339 343.804 342.728 345.21 335.903C346.442 336.284 347.718 336.771 349.002 337.38C350.592 338.138 351.401 339.94 350.945 341.653V341.657Z" fill="#D8690C"/>
<path d="M334.576 323.607C331.711 323.737 329.28 325.745 328.614 328.533C327.146 334.653 324.638 345.504 324.659 348.166C324.699 353.222 334.085 352.796 339.58 348.397C344.311 344.611 349.762 335.403 349.173 330.043C348.697 325.692 341.718 323.286 334.576 323.611V323.607Z" fill="url(#paint24_linear_147_5673)"/>
<path d="M339.499 343.536C336.909 345.613 333.532 346.575 331.016 346.595C337.446 339.311 340.373 331.974 342.133 326.05C345.315 326.946 347.327 328.484 347.526 330.221C348.043 334.941 343.893 340.025 339.499 343.532V343.536Z" fill="#D8690C"/>
<path d="M319.326 307.123C322.252 305.654 326.309 304.558 330.906 305.971C333.349 306.717 335.121 308.831 335.523 311.351C336.235 315.836 336.792 323.562 333.593 329.15C330.878 333.898 327.386 336.584 324.886 338.013C323.126 339.019 320.895 338.349 319.996 336.531C318.212 332.916 315.541 325.887 314.741 315.117C314.493 311.778 316.326 308.629 319.326 307.127V307.123Z" fill="url(#paint25_linear_147_5673)"/>
<path d="M331.247 326.313C328.707 330.757 325.447 333.253 323.155 334.559C322.866 334.726 322.549 334.815 322.228 334.815C321.525 334.815 320.886 334.417 320.574 333.78C320.301 333.228 320.895 334.571 320.574 333.78C322.931 331.524 325.264 328.436 325.455 324.982C325.719 320.255 324.411 312.232 323.504 307.342C324.537 307.095 325.573 306.969 326.597 306.969C327.882 306.969 329.17 307.159 330.43 307.549C332.227 308.101 333.593 309.696 333.898 311.607C334.528 315.612 334.243 321.091 331.247 326.313Z" fill="#D8690C"/>
<path d="M372.411 333.938C372.411 333.938 368.545 343.053 361.834 348.645C367.313 342.416 363.688 334.993 363.688 334.993C363.456 334.571 363.224 334.125 362.993 333.671C362.082 331.901 361.115 329.897 360.131 327.754C356.359 319.532 352.343 309.396 350.25 303.998C349.315 301.584 349.164 298.958 349.803 296.454C356.465 270.418 356.099 240.064 356.192 226.673C356.225 222.477 357.664 218.427 360.29 215.148L363.692 210.891L363.7 210.899C367.956 212.924 398.417 275.888 372.415 333.934L372.411 333.938Z" fill="url(#paint26_linear_147_5673)"/>
<path d="M340.747 246.655C340.747 246.655 335.385 276.4 332.999 287.701C332.999 287.701 326.443 287.105 321.281 291.467C321.281 291.467 327.24 267.671 329.422 262.12C330.747 258.751 340.743 246.655 340.743 246.655H340.747Z" fill="url(#paint27_linear_147_5673)"/>
<path d="M362.993 333.675C362.082 331.905 361.115 329.901 360.131 327.758C377.471 287.206 368.464 235.296 368.167 233.608C382.833 284.654 367.838 323.229 362.993 333.671V333.675Z" fill="#A9B1F4"/>
<path d="M163.761 202.203C162.81 205.871 160.725 209.897 156.619 213.744C144.222 225.386 131.751 219.859 131.751 219.859C95.1041 204.195 71.228 171.451 68.9558 158.94C66.6877 146.421 73.2441 123.693 73.2441 123.693C73.2441 123.693 74.2033 117.934 83.8042 115.264C84.2513 115.122 84.7147 115.008 85.2024 114.899C94.47 112.801 100.213 113.336 107.721 119.789C108.318 120.028 110.022 120.531 111.826 121.095C114.127 121.814 116.602 122.641 117.22 123.201C122.021 127.54 126.797 132.9 131.349 138.687C148.705 160.673 162.871 188.649 162.871 188.649C162.871 188.649 165.708 194.679 163.765 202.199L163.761 202.203Z" fill="url(#paint28_linear_147_5673)"/>
<path d="M162.765 202.799C160.92 193.835 157.526 188.008 155.632 183.597C153.018 177.514 138.17 152.391 130.349 139.287C147.705 161.274 161.871 189.25 161.871 189.25C161.871 189.25 164.708 195.28 162.765 202.799Z" fill="url(#paint29_linear_147_5673)"/>
<path d="M112.485 121.668L107.648 121.448C105.502 121.347 103.303 121.302 101.274 121.294C101.177 121.298 101.059 121.298 100.953 121.306C99.3274 121.4 97.8357 122.13 96.7626 123.368C95.6895 124.589 95.1733 126.156 95.3034 127.779C95.6732 132.344 95.9334 138.658 95.0717 142.83C93.3645 151.007 85.1619 159.119 78.1787 159.521H78.1462C76.7927 159.602 75.5855 158.965 74.7603 157.739C70.7525 151.786 75.3009 130.38 77.8861 124.768C78.1666 123.883 79.8981 118.876 83.8043 115.264C84.2514 115.13 84.7189 115.012 85.2026 114.903C94.4742 112.805 100.218 113.345 107.725 119.797C108.319 120.036 110.022 120.543 111.83 121.099L112.493 121.663L112.485 121.668Z" fill="url(#paint30_linear_147_5673)"/>
<path d="M107.721 119.793C105.77 119.704 103.53 119.643 101.278 119.643C96.8154 119.659 93.2954 123.465 93.6531 127.909C94.0392 132.689 94.2465 138.63 93.4458 142.493C91.9134 149.863 84.414 157.528 78.0568 157.873C71.6996 158.218 76.2277 132.133 79.4306 125.369C79.4306 125.369 86.5479 101.881 107.725 119.797L107.721 119.793Z" fill="url(#paint31_linear_147_5673)"/>
<path d="M95.9008 108.954C91.702 102.936 84.1294 91.9507 78.3941 82.8891C75.3049 78.0073 67.7812 79.4642 66.8341 85.1576C65.5049 93.1478 65.4805 103.764 70.1834 115.268C73.3904 123.112 82.8165 126.614 90.1208 122.297C91.7914 121.31 93.5107 119.967 95.2342 118.178C97.6446 115.674 97.8844 111.798 95.9008 108.95V108.954Z" fill="url(#paint32_linear_147_5673)"/>
<path d="M89.2919 120.84C88.926 120.917 84.8207 122.426 84.4386 122.463C79.0447 122.982 73.8094 119.768 71.7201 114.651C69.1919 108.467 68.0822 102.55 67.8018 97.2099C67.5823 92.9814 69.6512 88.9437 73.2769 86.7402C73.4273 86.6469 73.5127 86.6022 73.5127 86.6022C76.0491 98.196 85.1946 114.907 89.2919 120.84Z" fill="#D8690C"/>
<path d="M58.1153 99.876C65.2001 106.211 74.553 114.4 81.6377 119.967C86.7024 123.948 87.1901 131.61 82.4344 135.952C79.7517 138.399 75.7236 140.156 69.6794 139.762C57.6966 138.983 49.3884 120.588 47.0877 105.91C46.1163 99.7056 53.4327 95.6882 58.1194 99.876H58.1153Z" fill="url(#paint33_linear_147_5673)"/>
<path d="M83.2677 132.076C82.8002 133.075 82.1377 133.972 81.3126 134.73C79.2274 136.642 76.5243 137.766 73.297 138.078C72.1914 138.184 71.0126 138.192 69.785 138.119C59.0014 137.417 51.4492 120.381 49.0022 107.221C55.7049 113.596 68.8298 125.064 83.2677 132.08V132.076Z" fill="#D8690C"/>
<path d="M85.2798 116.81C81.4265 114.306 81.7882 108.532 85.8286 106.345C92.1817 102.907 100.766 98.1189 104.36 98.1676C109.538 98.2406 112.521 104.153 113.578 106.84C114.635 109.526 115.887 114.189 111.843 117.764C108.607 120.625 95.1286 123.202 85.2758 116.806L85.2798 116.81Z" fill="url(#paint34_linear_147_5673)"/>
<path d="M110.749 116.526C109.725 117.439 106.741 118.596 102.632 118.993C101.461 119.107 99.9249 119.18 98.1852 119.091C91.1248 115.978 89.3647 110.171 89.3647 110.171C97.0186 110.386 105.526 107.675 111.131 105.456C111.558 106.271 111.871 106.986 112.046 107.444C113.623 111.458 113.212 114.347 110.745 116.526H110.749Z" fill="#D8690C"/>
<path d="M158.834 192.622C162.529 196.092 160.574 204.163 154.465 210.648C148.356 217.132 140.405 219.575 136.71 216.106C133.015 212.636 134.971 204.565 141.08 198.08C147.189 191.595 155.14 189.152 158.834 192.622Z" fill="url(#paint35_linear_147_5673)"/>
<path d="M158.111 193.389C161.46 196.534 159.534 204.013 153.811 210.092C148.083 216.171 140.726 218.549 137.377 215.4C134.028 212.255 135.954 204.776 141.677 198.697C147.405 192.618 154.762 190.24 158.111 193.389Z" fill="#494989"/>
<path d="M82.7473 145.306C86.8893 141.824 85.2349 135.087 79.9467 133.939C68.0656 131.354 59.5378 130.883 56.8673 132.137C55.4162 132.819 46.4535 140.014 54.6277 149.189C60.993 156.335 74.0245 152.646 82.7514 145.31L82.7473 145.306Z" fill="url(#paint36_linear_147_5673)"/>
<path d="M83.1783 141.88C82.8978 142.696 82.3897 143.443 81.6824 144.043C76.8698 148.085 70.9191 150.8 65.7651 151.299C62.8059 151.583 58.6843 151.259 55.8675 148.085C54.6359 146.701 53.7782 145.314 53.3108 143.934C59.4363 142.124 70.7403 139.746 83.1783 141.885V141.88Z" fill="#D8690C"/>
<path d="M74.9919 162.479C74.9919 162.479 102.104 190.735 133.686 199.066C133.686 199.066 127.727 207.693 130.991 215.607C130.991 215.607 106.132 199.602 95.9252 190.37C84.8245 180.33 74.9919 162.483 74.9919 162.483V162.479Z" fill="url(#paint37_linear_147_5673)"/>
<path d="M98.4211 136.431C98.2992 134.824 98.1244 132.945 97.8805 131.001C97.2464 125.941 102.051 121.915 106.937 123.404C109.254 124.11 111.509 124.837 113.253 125.47C114.81 126.034 116.196 126.967 117.302 128.201C121.273 132.612 128.919 142.554 138.788 158.242C138.788 158.242 121.683 140.935 103.36 140.963C100.771 140.967 98.6162 139.012 98.4171 136.435L98.4211 136.431Z" fill="url(#paint38_linear_147_5673)"/>
<path d="M173.277 223.982C166.838 223.345 155.441 220.476 145.568 216.292C144.291 215.753 143.165 215.022 142.194 214.138C144.917 204.183 153.136 198.766 157.457 196.534C165.269 199.89 171.7 201.456 176.094 202.187C178.11 202.528 179.959 203.396 181.467 204.674C182.967 205.953 184.125 207.624 184.776 209.572C187.284 217.108 181.195 224.766 173.273 223.982H173.277Z" fill="#494989"/>
<path d="M181.39 217.818C179.878 220.034 177.508 221.393 174.89 221.543C174.435 221.568 173.98 221.556 173.52 221.515C167.509 220.918 156.306 218.147 146.535 214.008C146.015 213.789 145.531 213.537 145.072 213.233C145.072 213.233 167.785 215.639 181.357 208.229C181.808 208.882 182.166 209.597 182.418 210.351C183.259 212.884 182.89 215.615 181.39 217.818Z" fill="url(#paint39_linear_147_5673)"/>
</g>
<defs>
<filter id="filter0_d_147_5673" x="0" y="0" width="435.808" height="424" filterUnits="userSpaceOnUse" color-interpolation-filters="sRGB">
<feFlood flood-opacity="0" result="BackgroundImageFix"/>
<feColorMatrix in="SourceAlpha" type="matrix" values="0 0 0 0 0 0 0 0 0 0 0 0 0 0 0 0 0 0 127 0" result="hardAlpha"/>
<feOffset dx="3" dy="10"/>
<feGaussianBlur stdDeviation="25"/>
<feComposite in2="hardAlpha" operator="out"/>
<feColorMatrix type="matrix" values="0 0 0 0 0.704167 0 0 0 0 0.704167 0 0 0 0 0.704167 0 0 0 0.5 0"/>
<feBlend mode="normal" in2="BackgroundImageFix" result="effect1_dropShadow_147_5673"/>
<feBlend mode="normal" in="SourceGraphic" in2="effect1_dropShadow_147_5673" result="shape"/>
</filter>
<radialGradient id="paint0_radial_147_5673" cx="0" cy="0" r="1" gradientUnits="userSpaceOnUse" gradientTransform="translate(255.176 285.291) scale(37.8709 37.8085)">
<stop stop-color="#615B73"/>
<stop offset="0.99" stop-color="#615BAE"/>
</radialGradient>
<linearGradient id="paint1_linear_147_5673" x1="170.163" y1="232.443" x2="340.185" y2="232.443" gradientUnits="userSpaceOnUse">
<stop stop-color="#D0EDF9"/>
<stop offset="1" stop-color="#B6B6FC"/>
</linearGradient>
<linearGradient id="paint2_linear_147_5673" x1="176.341" y1="234.399" x2="180.203" y2="218.931" gradientUnits="userSpaceOnUse">
<stop stop-color="#A9B1F4"/>
<stop offset="0.05" stop-color="#A3ABF0"/>
<stop offset="0.2" stop-color="#979FE9"/>
<stop offset="0.41" stop-color="#9098E6"/>
<stop offset="1" stop-color="#8F97E5"/>
</linearGradient>
<linearGradient id="paint3_linear_147_5673" x1="326.223" y1="224.697" x2="339.027" y2="218.435" gradientUnits="userSpaceOnUse">
<stop stop-color="#A9B1F4"/>
<stop offset="0.05" stop-color="#A3ABF0"/>
<stop offset="0.2" stop-color="#979FE9"/>
<stop offset="0.41" stop-color="#9098E6"/>
<stop offset="1" stop-color="#8F97E5"/>
</linearGradient>
<linearGradient id="paint4_linear_147_5673" x1="255.176" y1="216.682" x2="255.176" y2="160.957" gradientUnits="userSpaceOnUse">
<stop stop-color="#A9B1F4"/>
<stop offset="1" stop-color="#8F97E5"/>
</linearGradient>
<linearGradient id="paint5_linear_147_5673" x1="255.176" y1="167.535" x2="255.176" y2="213.342" gradientUnits="userSpaceOnUse">
<stop stop-color="#D0EDF9"/>
<stop offset="1" stop-color="#B6B6FC"/>
</linearGradient>
<linearGradient id="paint6_linear_147_5673" x1="255.176" y1="169.288" x2="255.176" y2="211.691" gradientUnits="userSpaceOnUse">
<stop stop-color="#615B73"/>
<stop offset="0.99" stop-color="#615BAE"/>
</linearGradient>
<linearGradient id="paint7_linear_147_5673" x1="265.082" y1="258.147" x2="308.081" y2="254.605" gradientUnits="userSpaceOnUse">
<stop stop-color="#A9B1F4"/>
<stop offset="1" stop-color="#8F97E5"/>
</linearGradient>
<linearGradient id="paint8_linear_147_5673" x1="199.685" y1="215.404" x2="216.892" y2="270.296" gradientUnits="userSpaceOnUse">
<stop stop-color="white"/>
<stop offset="0.99" stop-color="white"/>
</linearGradient>
<linearGradient id="paint9_linear_147_5673" x1="322.819" y1="79.4908" x2="322.819" y2="169.327" gradientUnits="userSpaceOnUse">
<stop stop-color="#F8BF11"/>
<stop offset="1" stop-color="#E87D10"/>
</linearGradient>
<linearGradient id="paint10_linear_147_5673" x1="150.864" y1="65.5858" x2="150.864" y2="100.067" gradientUnits="userSpaceOnUse">
<stop stop-color="#F8BF11"/>
<stop offset="1" stop-color="#E87D10"/>
</linearGradient>
<linearGradient id="paint11_linear_147_5673" x1="185.41" y1="77.7072" x2="185.41" y2="169.414" gradientUnits="userSpaceOnUse">
<stop stop-color="#F8BF11"/>
<stop offset="1" stop-color="#E87D10"/>
</linearGradient>
<linearGradient id="paint12_linear_147_5673" x1="190.052" y1="59.2106" x2="309.282" y2="179.825" gradientUnits="userSpaceOnUse">
<stop stop-color="#D0EDF9"/>
<stop offset="0.37" stop-color="#C3D2FA"/>
<stop offset="0.75" stop-color="#B9BDFB"/>
<stop offset="1" stop-color="#B6B6FC"/>
</linearGradient>
<linearGradient id="paint13_linear_147_5673" x1="152.108" y1="117.938" x2="235.904" y2="202.706" gradientUnits="userSpaceOnUse">
<stop stop-color="white"/>
<stop offset="1" stop-color="white"/>
</linearGradient>
<linearGradient id="paint14_linear_147_5673" x1="208.839" y1="50.2749" x2="241.582" y2="105.487" gradientUnits="userSpaceOnUse">
<stop stop-color="white"/>
<stop offset="1" stop-color="white"/>
</linearGradient>
<linearGradient id="paint15_linear_147_5673" x1="343.889" y1="123.632" x2="275.267" y2="184.821" gradientUnits="userSpaceOnUse">
<stop stop-color="#A9B1F4"/>
<stop offset="1" stop-color="#8F97E5"/>
</linearGradient>
<linearGradient id="paint16_linear_147_5673" x1="183.902" y1="130.753" x2="326.447" y2="130.753" gradientUnits="userSpaceOnUse">
<stop stop-color="#039A02"/>
<stop offset="0.99" stop-color="#1B971F"/>
</linearGradient>
<linearGradient id="paint17_linear_147_5673" x1="253.433" y1="93.1357" x2="253.433" y2="160.004" gradientUnits="userSpaceOnUse">
<stop stop-color="#279E1B"/>
<stop offset="0.99" stop-color="#1C5E30"/>
</linearGradient>
<linearGradient id="paint18_linear_147_5673" x1="246.701" y1="129.224" x2="231.25" y2="91.5311" gradientUnits="userSpaceOnUse">
<stop stop-color="#39A327"/>
<stop offset="0.99" stop-color="#5ABE52"/>
</linearGradient>
<linearGradient id="paint19_linear_147_5673" x1="327.211" y1="209.589" x2="348.228" y2="210.063" gradientUnits="userSpaceOnUse">
<stop stop-color="#615B73"/>
<stop offset="0.99" stop-color="#615BAE"/>
</linearGradient>
<linearGradient id="paint20_linear_147_5673" x1="318.74" y1="277.52" x2="378.322" y2="285.28" gradientUnits="userSpaceOnUse">
<stop stop-color="#D0EDF9"/>
<stop offset="1" stop-color="#B6B6FC"/>
</linearGradient>
<linearGradient id="paint21_linear_147_5673" x1="355.148" y1="349.33" x2="326.622" y2="294.959" gradientUnits="userSpaceOnUse">
<stop stop-color="#D0EDF9"/>
<stop offset="1" stop-color="#B6B6FC"/>
</linearGradient>
<linearGradient id="paint22_linear_147_5673" x1="342.303" y1="338.759" x2="335.967" y2="297.908" gradientUnits="userSpaceOnUse">
<stop stop-color="#615B73"/>
<stop offset="0.99" stop-color="#615BAE"/>
</linearGradient>
<linearGradient id="paint23_linear_147_5673" x1="327.415" y1="348.04" x2="348.864" y2="349.233" gradientUnits="userSpaceOnUse">
<stop stop-color="#F8BF11"/>
<stop offset="1" stop-color="#E87D10"/>
</linearGradient>
<linearGradient id="paint24_linear_147_5673" x1="325.581" y1="333.941" x2="345.036" y2="342.131" gradientUnits="userSpaceOnUse">
<stop stop-color="#F8BF11"/>
<stop offset="1" stop-color="#E87D10"/>
</linearGradient>
<linearGradient id="paint25_linear_147_5673" x1="314.371" y1="310.321" x2="333.011" y2="328.199" gradientUnits="userSpaceOnUse">
<stop stop-color="#F8BF11"/>
<stop offset="1" stop-color="#E87D10"/>
</linearGradient>
<linearGradient id="paint26_linear_147_5673" x1="347.969" y1="242.114" x2="368.767" y2="292.108" gradientUnits="userSpaceOnUse">
<stop stop-color="#A9B1F4"/>
<stop offset="1" stop-color="#8F97E5"/>
</linearGradient>
<linearGradient id="paint27_linear_147_5673" x1="334.69" y1="246.054" x2="327.981" y2="288.192" gradientUnits="userSpaceOnUse">
<stop stop-color="white"/>
<stop offset="0.99" stop-color="white"/>
</linearGradient>
<linearGradient id="paint28_linear_147_5673" x1="66.9641" y1="142.282" x2="148.264" y2="183.933" gradientUnits="userSpaceOnUse">
<stop stop-color="#D0EDF9"/>
<stop offset="1" stop-color="#B6B6FC"/>
</linearGradient>
<linearGradient id="paint29_linear_147_5673" x1="130.349" y1="171.046" x2="163.448" y2="171.046" gradientUnits="userSpaceOnUse">
<stop stop-color="#F8BF11"/>
<stop offset="0.99" stop-color="#E87D10"/>
</linearGradient>
<linearGradient id="paint30_linear_147_5673" x1="92.4894" y1="115.965" x2="92.9997" y2="146.401" gradientUnits="userSpaceOnUse">
<stop stop-color="#D0EDF9"/>
<stop offset="1" stop-color="#B6B6FC"/>
</linearGradient>
<linearGradient id="paint31_linear_147_5673" x1="89.7468" y1="115.347" x2="91.9631" y2="144.436" gradientUnits="userSpaceOnUse">
<stop stop-color="#615B73"/>
<stop offset="0.99" stop-color="#615BAE"/>
</linearGradient>
<linearGradient id="paint32_linear_147_5673" x1="77.5399" y1="78.213" x2="83.9017" y2="120.693" gradientUnits="userSpaceOnUse">
<stop stop-color="#F8BF11"/>
<stop offset="1" stop-color="#E87D10"/>
</linearGradient>
<linearGradient id="paint33_linear_147_5673" x1="62.0808" y1="96.791" x2="69.4697" y2="131.098" gradientUnits="userSpaceOnUse">
<stop stop-color="#F8BF11"/>
<stop offset="1" stop-color="#E87D10"/>
</linearGradient>
<linearGradient id="paint34_linear_147_5673" x1="94.6926" y1="99.8252" x2="101.367" y2="119.505" gradientUnits="userSpaceOnUse">
<stop stop-color="#F8BF11"/>
<stop offset="1" stop-color="#E87D10"/>
</linearGradient>
<linearGradient id="paint35_linear_147_5673" x1="129.592" y1="205.619" x2="156.563" y2="204.51" gradientUnits="userSpaceOnUse">
<stop stop-color="#D0EDF9"/>
<stop offset="1" stop-color="#B6B6FC"/>
</linearGradient>
<linearGradient id="paint36_linear_147_5673" x1="65.4051" y1="129.742" x2="70.3615" y2="150.185" gradientUnits="userSpaceOnUse">
<stop stop-color="#F8BF11"/>
<stop offset="1" stop-color="#E87D10"/>
</linearGradient>
<linearGradient id="paint37_linear_147_5673" x1="78.4529" y1="191.917" x2="132.097" y2="185.605" gradientUnits="userSpaceOnUse">
<stop stop-color="#A9B1F4"/>
<stop offset="1" stop-color="#8F97E5"/>
</linearGradient>
<linearGradient id="paint38_linear_147_5673" x1="113.971" y1="123.272" x2="118.214" y2="145.465" gradientUnits="userSpaceOnUse">
<stop stop-color="white"/>
<stop offset="0.99" stop-color="white"/>
</linearGradient>
<linearGradient id="paint39_linear_147_5673" x1="145.277" y1="216.793" x2="182.963" y2="214.616" gradientUnits="userSpaceOnUse">
<stop stop-color="#615B73"/>
<stop offset="0.99" stop-color="#615BAE"/>
</linearGradient>
</defs>
</svg>
