<svg id="Layer_1" data-name="Layer 1" xmlns="http://www.w3.org/2000/svg" viewBox="0 0 563.86 33.47"><title>ORRClogonew</title><path d="M56.06,233.67c0-7.72,5.43-16.82,16.65-16.82,9.61,0,16.4,6.45,16.4,15.93s-6.62,17.54-16.78,17.54C61.1,250.32,56.06,241.61,56.06,233.67Zm30.36.09c0-10.59-7-15.76-14-15.76-8.59,0-13.67,5.81-13.67,14.69C58.75,243,65.29,249,73.31,249,79.12,249,86.42,245.24,86.42,233.76Z" transform="translate(-56.06 -216.85)" style="fill:#1d1d1b"/><path d="M95.46,229.79c0-6.62,0-7.82,0-9.18-.08-1.79-.42-2.35-1.62-2.61a9.74,9.74,0,0,0-1.49-.12c-.22,0-.35-.09-.35-.22s.17-.21.56-.21c1.41,0,3.54.13,4.1.13s3.71-.13,4.95-.13c2.52,0,5.12.21,7.22,1.66a7.79,7.79,0,0,1,3.15,6.24c0,3.37-1.53,6.53-5.16,9.69a132.93,132.93,0,0,0,8.75,11c2.09,2.26,3.72,3,5.34,3.16a9.37,9.37,0,0,0,1.32.09c.3,0,.43.08.43.21s-.22.26-.77.26h-2.22c-2.78,0-3.89-.43-5.12-1.46-1.5-1.06-2.78-2.86-4.91-5.63-1.58-2.09-3.76-5.21-4.7-6.45-.21-.21-.34-.34-.6-.34L98,235.76c-.17,0-.22.13-.22.3v2.39c0,4.32,0,6.62.17,8.42.09,1.36.35,2.09,1.63,2.26a12.57,12.57,0,0,0,1.66.13c.34,0,.43.08.43.21s-.17.26-.6.26c-1.92,0-4.31-.13-4.53-.13s-2.17.13-3.37.13c-.43,0-.6-.09-.6-.26s.09-.21.39-.21.6,0,1-.09c.94-.13,1.2-1,1.32-2.22.17-1.79.17-4.44.17-9.61Zm2.35,4.1c0,.17,0,.25.26.34a17.89,17.89,0,0,0,5.25.6,4.79,4.79,0,0,0,3.16-.9,8.84,8.84,0,0,0,3-7.05c0-4.91-2.73-8.41-8.07-8.41a12.83,12.83,0,0,0-3.2.3.53.53,0,0,0-.39.6Z" transform="translate(-56.06 -216.85)" style="fill:#1d1d1b"/><path d="M125.35,229.79c0-6.62,0-7.86,0-9.22-.08-1.8-.3-2.35-1.58-2.57-.42-.08-.81-.08-1.15-.12s-.38,0-.38-.22.17-.21.55-.21c1.15,0,3.46.13,3.8.13s2.52-.13,3.59-.13c.42,0,.6,0,.6.21s-.18.22-.39.22a10,10,0,0,0-1,.12c-1.24.17-1.41.82-1.5,2.48,0,1.37,0,2.69,0,9.35v7.51c0,4.74,0,7.69.17,9.48.09,1.37.34,2.14,1.62,2.31.64.08,1.28.13,1.5.13.38,0,.51.08.51.21s-.17.26-.6.26c-1.92,0-4.23-.13-4.44-.13s-2.35.13-3.54.13c-.47,0-.6-.09-.6-.26s.13-.21.47-.21a4.29,4.29,0,0,0,1-.09c1-.13,1.2-.94,1.32-2.26.18-1.8.18-4.4.18-9.57Z" transform="translate(-56.06 -216.85)" style="fill:#1d1d1b"/><path d="M139.77,229.83c0-6.75,0-8,0-9.35-.08-1.66-.34-2.22-1.58-2.48-.43-.08-1.11-.08-1.49-.12s-.51,0-.51-.22.17-.21.55-.21c1,0,2.6,0,4.27.13.51,0,8.54,0,9.56-.05a9,9,0,0,0,2.05-.21.8.8,0,0,1,.34-.08c.13,0,.17.12.13.29s-.17.69-.25,1.5c-.05.6-.13,1.45-.18,2.69,0,.43-.08.64-.25.64s-.21-.21-.21-.6a3.8,3.8,0,0,0-.3-1.71c-.35-.81-1-1.06-2.61-1.19-1-.09-4.74-.13-6.79-.13-.21,0-.25.13-.25.43v12.51c0,.21,0,.25.17.25.38,0,6.57,0,7.56,0,1.28-.09,1.66-.26,2-.77.13-.26.22-.38.34-.38s.17.12.13.34-.21.94-.3,2c-.13,1.2-.13,2.31-.17,2.78s-.08.55-.21.55-.22-.21-.22-.55a5.39,5.39,0,0,0-.17-1.33c-.17-.59-.64-1.06-1.92-1.19s-6.44-.17-7-.17c-.17,0-.21.08-.21.21v4c0,1.24,0,7.17,0,8.24.09,1.54.26,2.44,1.49,2.69a14.66,14.66,0,0,0,3.55.3,14.51,14.51,0,0,0,4.48-.38c1.11-.39,1.62-1.33,1.92-3.16,0-.39.13-.52.26-.52s.17.26.17.52a30.82,30.82,0,0,1-.51,3.8c-.26.94-.47,1.06-2.31,1.06-3.07,0-5.16-.08-6.83-.17s-2.73-.08-4-.08c-.77,0-2.18.13-3.12.13-.43,0-.6-.09-.6-.26s.17-.17.47-.21a8.75,8.75,0,0,0,1.11-.09c.9-.21,1.28-.64,1.37-3.88,0-1.71.08-4.1.08-7.95Z" transform="translate(-56.06 -216.85)" style="fill:#1d1d1b"/><path d="M161.8,240.33c0-11.65.09-12.93,0-21.05,0-2,.09-2.43.34-2.43s.82.68,1.41,1.37c1.33,1.58,6.49,7.55,12.26,14.13,5.72,6.74,9.65,11.27,11.44,13.36L187,222.27c0-3.28-.26-4-1.71-4.22a7.78,7.78,0,0,0-1.49-.17c-.39,0-.52-.09-.52-.22s.26-.21.64-.21c1.54,0,3.46.13,3.89.13s2.13-.13,3.46-.13c.38,0,.59,0,.59.21s-.12.17-.42.22-.56.08-1.07.12c-1.37.22-1.49,1.07-1.54,4V246.1c0,3.71-.08,4-.34,4s-.68-.43-2.56-2.52c-1.2-1.37-5.72-6.24-11.36-12.9-4.48-5.25-9.39-11-11.23-13.23l.39,23c.08,3.67.3,4.48,1.88,4.74a6.59,6.59,0,0,0,1.41.13c.3,0,.42.08.42.21s-.17.26-.64.26c-1.79,0-3.37-.13-3.84-.13s-2,.13-3.63.13c-.38,0-.6,0-.6-.26s.13-.21.39-.21a6.19,6.19,0,0,0,1.36-.13c1.11-.22,1.33-1.11,1.37-5.64Z" transform="translate(-56.06 -216.85)" style="fill:#1d1d1b"/><path d="M210.81,237.34c0,4.74,0,7.73.17,9.53.08,1.36.25,2.09,1.62,2.26a16,16,0,0,0,1.79.13c.26,0,.34.08.34.21s-.17.26-.55.26c-1.92,0-4.4-.13-4.61-.13s-2.44.13-3.63.13c-.34,0-.56,0-.56-.26s.13-.21.39-.21a6.61,6.61,0,0,0,1.24-.13c.85-.17,1.06-.94,1.19-2.18.17-1.79.17-4.44.17-9.61V218.82c-2.13,0-4.65,0-7.13.08s-3.46.3-4,1.37a6.58,6.58,0,0,0-.56,1.23c-.08.35-.21.43-.34.43s-.17-.13-.12-.43c.12-.76.68-3.24.81-3.75s.21-.73.38-.73a8.79,8.79,0,0,0,1.11.3,25.74,25.74,0,0,0,4.18.26h14.78a31,31,0,0,0,4.1-.22c.42-.08.68-.17.81-.17s.17.22.17.6c0,.85-.13,3.29-.13,4,0,.34-.09.51-.26.51s-.21-.17-.21-.59c0-.13,0-.35,0-.56,0-1.37-.77-2.09-3.76-2.18-1.71-.08-4.87-.08-7.34-.12Z" transform="translate(-56.06 -216.85)" style="fill:#1d1d1b"/><path d="M230.91,236.41c-.17,0-.25.08-.34.29L227.79,245a11.92,11.92,0,0,0-.72,3.12c0,.72.51,1.06,1.19,1.11h.64c.43,0,.52.08.52.21s-.22.26-.6.26c-1,0-2.6-.13-3-.13s-2.14.13-4,.13c-.46,0-.68-.09-.68-.26s.17-.21.56-.21a4.27,4.27,0,0,0,1-.09c1.62-.26,2.31-1.37,3.25-4.14l9.6-26.68c.47-1.29.6-1.5.81-1.5s.3.21.77,1.41l10.29,26.51c1.32,3.33,2.09,4.14,3.59,4.36a5.53,5.53,0,0,0,1.32.13c.3,0,.47,0,.47.21s-.26.26-.64.26c-1,0-3.88,0-5.93-.13-.56,0-.82,0-.82-.22s.09-.17.3-.21c.43-.08.52-.55.3-1.11l-4.35-11.4c0-.17-.13-.25-.3-.25Zm10-1.24c.13,0,.17-.13.13-.26l-4.91-13.19c-.13-.43-.3-.47-.43,0l-4.48,13.19c0,.17,0,.26.13.26Z" transform="translate(-56.06 -216.85)" style="fill:#1d1d1b"/><path d="M262.76,237.39c0,7.72.08,9.69.64,10.33s1.92.81,5.33.81c2.61,0,4.31,0,5.21-.77a4,4,0,0,0,1.54-3.07c.08-.39.17-.51.34-.51s.17.17.17.47a30.34,30.34,0,0,1-.68,4.14c-.3,1-.51,1.06-2.52,1.06-4.91,0-8.92-.25-11.06-.25-1,0-2.48.13-3.63.13-.42,0-.64,0-.64-.26s.13-.21.39-.21.68,0,1.06-.09c.94-.17,1.11-1,1.24-2.22.13-1.62.17-4.7.17-9.61v-7.51c0-6.75,0-8,0-9.35-.09-1.66-.34-2.31-1.75-2.52-.39,0-.81-.08-1.15-.08s-.43,0-.43-.17.17-.26.55-.26c1.54,0,3.59.13,4,.13s2.69-.13,3.75-.13c.39,0,.56,0,.56.21s-.13.22-.38.22-.56,0-1.07.08c-1.2.17-1.5.86-1.58,2.52,0,1.37,0,2.69,0,9.35Z" transform="translate(-56.06 -216.85)" style="fill:#1d1d1b"/><path d="M298.7,229.79c0-6.62,0-7.82,0-9.18-.09-1.79-.43-2.35-1.63-2.61a9.74,9.74,0,0,0-1.49-.12c-.21,0-.34-.09-.34-.22s.17-.21.55-.21c1.41,0,3.55.13,4.1.13s3.72-.13,4.95-.13c2.52,0,5.13.21,7.22,1.66a7.8,7.8,0,0,1,3.16,6.24c0,3.37-1.54,6.53-5.17,9.69a135.08,135.08,0,0,0,8.75,11c2.1,2.26,3.72,3,5.34,3.16a9.37,9.37,0,0,0,1.32.09c.3,0,.43.08.43.21s-.21.26-.77.26h-2.22c-2.77,0-3.88-.43-5.12-1.46-1.49-1.06-2.78-2.86-4.91-5.63-1.58-2.09-3.76-5.21-4.7-6.45-.21-.21-.34-.34-.59-.34l-6.28-.09c-.17,0-.21.13-.21.3v2.39c0,4.32,0,6.62.17,8.42.08,1.36.34,2.09,1.62,2.26a12.7,12.7,0,0,0,1.66.13c.35,0,.43.08.43.21s-.17.26-.6.26c-1.92,0-4.31-.13-4.52-.13s-2.18.13-3.37.13c-.43,0-.6-.09-.6-.26s.08-.21.38-.21.6,0,1-.09c.94-.13,1.2-1,1.33-2.22.17-1.79.17-4.44.17-9.61Zm2.35,4.1c0,.17,0,.25.25.34a17.89,17.89,0,0,0,5.25.6,4.79,4.79,0,0,0,3.16-.9,8.84,8.84,0,0,0,3-7.05c0-4.91-2.73-8.41-8.07-8.41a12.83,12.83,0,0,0-3.2.3.53.53,0,0,0-.38.6Z" transform="translate(-56.06 -216.85)" style="fill:#1d1d1b"/><path d="M328.84,235.94c0,6.14,1.49,8.75,3.24,10.5a10,10,0,0,0,7.26,2.65,8.86,8.86,0,0,0,7-3c2.09-2.51,2.6-6.31,2.6-10.71v-5.51c0-6.75,0-8-.08-9.39-.09-1.54-.39-2.22-1.84-2.44a6.41,6.41,0,0,0-1.23-.12c-.26,0-.43,0-.43-.22s.21-.21.6-.21c1.58,0,3.62.13,4,.13s2.09-.13,3.16-.13c.38,0,.6,0,.6.26s-.22.17-.43.17-.38,0-.73.08c-1.32.17-1.58.81-1.66,2.48,0,1.36,0,2.64,0,9.39v5c0,4.82-.56,9.52-3.89,12.5a12.14,12.14,0,0,1-8.62,3c-2.05,0-5.77-.51-8.37-3-2.09-2-3.63-4.87-3.63-11.1v-6.36c0-6.66,0-7.9,0-9.26-.09-1.75-.39-2.31-1.54-2.57a10.92,10.92,0,0,0-1.54-.12c-.25,0-.42,0-.42-.22s.21-.21.59-.21c1.41,0,3.76.13,4.19.13s2.6-.13,3.67-.13c.38,0,.6,0,.6.21s-.17.22-.43.22a5.08,5.08,0,0,0-.94.12c-1.19.13-1.54.86-1.58,2.48-.08,1.37-.08,2.69-.08,9.35Z" transform="translate(-56.06 -216.85)" style="fill:#1d1d1b"/><path d="M385.7,246.18c0,1.88,0,1.92-.43,2.18a21.17,21.17,0,0,1-9.52,2c-3.58,0-9.18-.85-13.32-4.61a16.47,16.47,0,0,1-5-12.21A16,16,0,0,1,364.1,220c4.14-2.86,8.79-3.12,11.86-3.12a36.14,36.14,0,0,1,6.54.68,20,20,0,0,0,3.33.52c.3,0,.38.17.38.34a40.14,40.14,0,0,0-.3,5.38c0,.55-.08.77-.3.77s-.21-.17-.21-.64a5.79,5.79,0,0,0-.73-3c-.93-1.45-4.44-2.9-10.24-2.9a15.47,15.47,0,0,0-9.74,3c-2.64,2.09-4.74,6.15-4.74,11.31a16.6,16.6,0,0,0,5,12.34A17.65,17.65,0,0,0,376.52,249c2.52,0,4.74-.34,5.89-1a1.47,1.47,0,0,0,.86-1.49v-7.39c0-4.05-.18-4.48-1.76-4.78a10.77,10.77,0,0,0-1.53-.13c-.22,0-.43,0-.43-.21s.17-.26.6-.26c1.79,0,4,.13,4.35.13s2.44-.13,3.55-.13c.47,0,.59.09.59.26s-.17.21-.42.21-.51.05-1,.09c-1.11.17-1.37.77-1.46,2.26-.08,1.07-.08,2.43-.08,4.18Z" transform="translate(-56.06 -216.85)" style="fill:#1d1d1b"/><path d="M412.5,229.79c0-6.62,0-7.82,0-9.18-.08-1.79-.43-2.35-1.62-2.61a9.87,9.87,0,0,0-1.5-.12c-.21,0-.34-.09-.34-.22s.17-.21.56-.21c1.41,0,3.54.13,4.1.13s3.71-.13,4.95-.13c2.52,0,5.12.21,7.21,1.66a7.77,7.77,0,0,1,3.16,6.24c0,3.37-1.53,6.53-5.16,9.69a130.85,130.85,0,0,0,8.75,11c2.09,2.26,3.71,3,5.34,3.16a9.37,9.37,0,0,0,1.32.09c.3,0,.43.08.43.21s-.22.26-.77.26h-2.22c-2.78,0-3.89-.43-5.13-1.46-1.49-1.06-2.77-2.86-4.91-5.63-1.57-2.09-3.75-5.21-4.69-6.45-.21-.21-.34-.34-.6-.34l-6.27-.09c-.18,0-.22.13-.22.3v2.39c0,4.32,0,6.62.17,8.42.09,1.36.34,2.09,1.62,2.26a12.84,12.84,0,0,0,1.67.13c.34,0,.43.08.43.21s-.17.26-.6.26c-1.92,0-4.31-.13-4.53-.13s-2.17.13-3.37.13c-.43,0-.6-.09-.6-.26s.09-.21.39-.21.59,0,1-.09c.94-.13,1.19-1,1.32-2.22.17-1.79.17-4.44.17-9.61Zm2.35,4.1c0,.17,0,.25.26.34a17.89,17.89,0,0,0,5.25.6,4.79,4.79,0,0,0,3.16-.9,8.84,8.84,0,0,0,3-7.05c0-4.91-2.74-8.41-8.07-8.41a12.83,12.83,0,0,0-3.2.3.53.53,0,0,0-.39.6Z" transform="translate(-56.06 -216.85)" style="fill:#1d1d1b"/><path d="M441.53,229.83c0-6.75,0-8,0-9.35-.09-1.66-.34-2.22-1.58-2.48-.43-.08-1.11-.08-1.5-.12s-.51,0-.51-.22.17-.21.56-.21c1,0,2.6,0,4.27.13.51,0,8.53,0,9.56-.05a9.07,9.07,0,0,0,2-.21.75.75,0,0,1,.34-.08c.13,0,.17.12.13.29s-.17.69-.26,1.5c0,.6-.13,1.45-.17,2.69,0,.43-.09.64-.26.64s-.21-.21-.21-.6a3.67,3.67,0,0,0-.3-1.71c-.34-.81-1-1.06-2.6-1.19-1-.09-4.74-.13-6.79-.13-.21,0-.26.13-.26.43v12.51c0,.21.05.25.17.25.39,0,6.58,0,7.56,0,1.28-.09,1.67-.26,2-.77.13-.26.21-.38.34-.38s.17.12.13.34-.22.94-.3,2c-.13,1.2-.13,2.31-.17,2.78s-.09.55-.22.55-.21-.21-.21-.55a5.39,5.39,0,0,0-.17-1.33c-.17-.59-.64-1.06-1.92-1.19s-6.45-.17-7-.17c-.17,0-.22.08-.22.21v4c0,1.24,0,7.17.05,8.24.08,1.54.25,2.44,1.49,2.69a23.88,23.88,0,0,0,8-.08c1.11-.39,1.62-1.33,1.92-3.16,0-.39.13-.52.25-.52s.18.26.18.52a29.33,29.33,0,0,1-.52,3.8c-.25.94-.47,1.06-2.3,1.06-3.08,0-5.17-.08-6.83-.17s-2.74-.08-4-.08c-.77,0-2.17.13-3.11.13-.43,0-.6-.09-.6-.26s.17-.17.47-.21a8.91,8.91,0,0,0,1.11-.09c.89-.21,1.28-.64,1.36-3.88.05-1.71.09-4.1.09-7.95Z" transform="translate(-56.06 -216.85)" style="fill:#1d1d1b"/><path d="M464.67,229.79c0-5.68,0-7.9-.05-9.27-.08-1.79-.42-2.35-1.83-2.56-.34,0-.94-.08-1.24-.08s-.38-.09-.38-.22.17-.21.55-.21c1.49,0,3.67.13,4.1.13.64,0,3.2-.13,5.17-.13,5.33,0,7.08,1.83,7.81,2.52a7.65,7.65,0,0,1,2.09,5.46c0,5.51-4.31,9.69-10.42,9.69a6.41,6.41,0,0,1-.85,0c-.21,0-.43-.08-.43-.25s.13-.26.86-.26c5.25,0,8.53-3.25,8.53-7.81a8,8,0,0,0-8.75-8.33,8.32,8.32,0,0,0-2.3.26c-.34.08-.47.34-.47.85v18.19c0,4.74,0,7.34.17,9.14.08,1.36.3,2.13,1.62,2.3.6,0,1.28.09,1.62.09s.39.12.39.21-.17.26-.56.26c-1.92,0-4.27-.13-4.48-.13s-2.26.13-3.46.13c-.47,0-.6-.09-.6-.26s.09-.17.39-.17a5.36,5.36,0,0,0,1.19-.13c.86-.17,1-1,1.16-2.22.17-1.79.17-4.44.17-9.61Z" transform="translate(-56.06 -216.85)" style="fill:#1d1d1b"/><path d="M488,236.41c-.17,0-.25.08-.34.29L484.86,245a11.6,11.6,0,0,0-.73,3.12c0,.72.51,1.06,1.2,1.11H486c.42,0,.51.08.51.21s-.21.26-.6.26c-1,0-2.6-.13-3-.13s-2.13.13-4,.13c-.47,0-.68-.09-.68-.26s.17-.21.55-.21a4.23,4.23,0,0,0,1-.09c1.63-.26,2.31-1.37,3.25-4.14l9.61-26.68c.46-1.29.59-1.5.81-1.5s.3.21.77,1.41c.55,1.45,7.51,19.38,10.28,26.51,1.33,3.33,2.1,4.14,3.59,4.36a5.53,5.53,0,0,0,1.32.13c.3,0,.47,0,.47.21s-.25.26-.64.26c-1,0-3.88,0-5.93-.13-.56,0-.81,0-.81-.22s.08-.17.3-.21c.42-.08.51-.55.3-1.11l-4.36-11.4a.28.28,0,0,0-.3-.25Zm10-1.24c.13,0,.18-.13.13-.26l-4.91-13.19c-.13-.43-.3-.47-.42,0l-4.49,13.19c0,.17,0,.26.13.26Z" transform="translate(-56.06 -216.85)" style="fill:#1d1d1b"/><path d="M516.53,229.79c0-6.62,0-7.86,0-9.22-.09-1.8-.3-2.35-1.58-2.57-.43-.08-.81-.08-1.15-.12s-.39,0-.39-.22.17-.21.56-.21c1.15,0,3.45.13,3.8.13s2.52-.13,3.58-.13c.43,0,.6,0,.6.21s-.17.22-.38.22a10.21,10.21,0,0,0-1,.12c-1.24.17-1.41.82-1.49,2.48,0,1.37,0,2.69,0,9.35v7.51c0,4.74,0,7.69.17,9.48.09,1.37.35,2.14,1.63,2.31.64.08,1.28.13,1.49.13.39,0,.51.08.51.21s-.17.26-.59.26c-1.92,0-4.23-.13-4.44-.13s-2.35.13-3.55.13c-.47,0-.6-.09-.6-.26s.13-.21.47-.21a4.37,4.37,0,0,0,1-.09c1-.13,1.19-.94,1.32-2.26.17-1.8.17-4.4.17-9.57Z" transform="translate(-56.06 -216.85)" style="fill:#1d1d1b"/><path d="M531,229.79c0-6.62,0-7.82,0-9.18-.09-1.79-.43-2.35-1.63-2.61a9.74,9.74,0,0,0-1.49-.12c-.21,0-.34-.09-.34-.22s.17-.21.55-.21c1.41,0,3.55.13,4.1.13s3.72-.13,5-.13c2.51,0,5.12.21,7.21,1.66a7.8,7.8,0,0,1,3.16,6.24c0,3.37-1.54,6.53-5.17,9.69A132.77,132.77,0,0,0,551,246c2.09,2.26,3.71,3,5.33,3.16a9.49,9.49,0,0,0,1.33.09c.3,0,.42.08.42.21s-.21.26-.76.26h-2.23c-2.77,0-3.88-.43-5.12-1.46-1.49-1.06-2.77-2.86-4.91-5.63-1.58-2.09-3.76-5.21-4.69-6.45-.22-.21-.35-.34-.6-.34l-6.28-.09c-.17,0-.21.13-.21.3v2.39c0,4.32,0,6.62.17,8.42.08,1.36.34,2.09,1.62,2.26a12.71,12.71,0,0,0,1.67.13c.34,0,.42.08.42.21s-.17.26-.59.26c-1.93,0-4.32-.13-4.53-.13s-2.18.13-3.37.13c-.43,0-.6-.09-.6-.26s.09-.21.38-.21.6,0,1-.09c.94-.13,1.19-1,1.32-2.22.17-1.79.17-4.44.17-9.61Zm2.35,4.1c0,.17,0,.25.25.34a18,18,0,0,0,5.26.6,4.81,4.81,0,0,0,3.16-.9,8.87,8.87,0,0,0,3-7.05c0-4.91-2.73-8.41-8.07-8.41a12.89,12.89,0,0,0-3.2.3.53.53,0,0,0-.38.6Z" transform="translate(-56.06 -216.85)" style="fill:#1d1d1b"/><path d="M575.18,246.31a14.46,14.46,0,0,1-.47-20.54c2.1-2.09,5.47-4,11.36-4a35.21,35.21,0,0,1,5.68.43c1.45.25,2.94.55,3.76.6.25,0,.34.08.34.29s-.17.82-.26,2,0,2.65,0,3.16-.09.64-.26.64-.25-.21-.25-.64c0-1.79-.56-2.9-1.41-3.54-1.33-1-4.49-1.88-7.82-1.88-5.5,0-7.81,1.71-9.26,3.08-2.73,2.6-3.33,5.8-3.33,9.3,0,6.83,5,13.58,14.22,13.58,2.73,0,5-.21,6.53-1.58a5.33,5.33,0,0,0,1.45-3.2c.09-.34.17-.51.38-.51s.18.29.13.55a33.9,33.9,0,0,1-.77,4.18c-.21.64-.34.77-1,1.07a20.66,20.66,0,0,1-6.79.86C581.67,250.2,578,248.74,575.18,246.31Z" transform="translate(-56.06 -216.85)" style="fill:#1d1d1b"/><path d="M599.62,232.57c0-4.75,3.33-10.34,10.23-10.34,5.9,0,10.07,4,10.07,9.79s-4.06,10.78-10.31,10.78C602.71,242.8,599.62,237.45,599.62,232.57Zm18.65.05c0-6.5-4.3-9.68-8.6-9.68-5.28,0-8.4,3.57-8.4,9,0,6.32,4,10,9,10C613.78,242,618.27,239.68,618.27,232.62Z" transform="translate(-56.06 -216.85)" style="fill:#1d1d1b"/><path d="M608.36,248.78a1.44,1.44,0,0,1,1.45-1.45,1.38,1.38,0,0,1,1.38,1.45,1.42,1.42,0,1,1-2.83,0Z" transform="translate(-56.06 -216.85)" style="fill:#1d1d1b"/></svg>