<svg width="172" height="75" viewBox="0 0 172 75" fill="none" xmlns="http://www.w3.org/2000/svg">
<g clip-path="url(#clip0_13_1971)">
<path d="M0.17632 60.4862C0.323253 60.7039 0.587733 60.5588 0.499573 59.8694L0 59.3977L0.17632 60.4862Z" fill="#FEC510"/>
<path d="M1.02844 55.7692C0.822736 54.9346 0.52887 53.955 0.0292969 54.4267C0.411323 55.2975 0.205617 55.4789 0.734576 56.386C0.763963 57.0754 0.52887 57.5834 0.35255 57.4746C0.44071 57.7286 0.26439 58.5631 0.587643 58.9259C0.910896 57.9825 0.969669 56.894 0.70519 55.6966C0.822736 55.4426 0.940283 55.6966 1.02844 55.7692Z" fill="#FEC510"/>
<path d="M72.1148 7.5835C71.8798 7.65607 71.7622 7.72863 71.7622 7.8012C71.9973 7.72863 72.1736 7.65607 72.1148 7.5835Z" fill="#FEC510"/>
<path d="M77.8159 7.18433C77.8159 7.18433 77.5808 7.18433 77.4927 7.18433C77.6396 7.18433 77.7572 7.22061 77.8159 7.18433Z" fill="#FEC510"/>
<path d="M39.3193 15.566L40.2303 15.4934C40.2303 15.2757 39.7601 15.4934 39.3193 15.566Z" fill="#FEC510"/>
<path d="M1.55755 46.299C1.49878 46.5529 1.49878 46.7344 1.49878 46.9521L1.61633 46.3715L1.55755 46.299Z" fill="#FEC510"/>
<path d="M25.5663 21.6619L25.3312 21.807C25.3312 21.807 25.243 22.0247 25.2136 22.1336L25.5956 21.6619H25.5663Z" fill="#FEC510"/>
<path d="M15.9276 28.3744C16.1333 28.193 15.957 27.7213 15.9276 27.4673C15.9276 27.7576 15.81 27.9753 15.6631 28.1567C15.6925 28.2293 15.7806 28.3018 15.9276 28.3744Z" fill="#FEC510"/>
<path d="M4.11404 44.1582L4.02588 44.5573C4.02588 44.5573 4.08465 44.3033 4.11404 44.1582Z" fill="#FEC510"/>
<path d="M33.0894 18.36C33.0894 18.36 33.1775 18.4688 33.2363 18.5051C33.2363 18.4326 33.1775 18.3963 33.0894 18.36Z" fill="#FEC510"/>
<path d="M20.7176 51.6691C20.7176 51.6691 20.747 51.6328 20.7764 51.5966C20.6882 51.5966 20.6588 51.5966 20.7176 51.6691Z" fill="#FEC510"/>
<path d="M14.9578 36.5022L15.0459 36.6836C15.0459 36.6836 15.1929 36.6836 15.281 36.6111L14.9578 36.4659V36.5022Z" fill="#FEC510"/>
<path d="M88.1892 6.27722C88.1892 6.27722 88.1892 6.27722 88.1305 6.27722C87.866 6.38608 88.0129 6.34979 88.1892 6.27722Z" fill="#FEC510"/>
<path d="M168.444 40.0944C168.768 38.7881 168.944 42.1263 169.326 40.2032C169.208 40.3847 168.562 38.5341 168.444 40.0944Z" fill="#FEC510"/>
<path d="M1.70435 45.9361L1.88067 45.3556C1.79251 45.6096 1.73373 45.791 1.70435 45.9361Z" fill="#FEC510"/>
<path d="M169.326 40.2032L169.355 39.9855C169.355 40.058 169.355 40.1306 169.326 40.2032Z" fill="#FEC510"/>
<path d="M112.051 4.68072C112.051 4.68072 111.904 4.53558 111.816 4.46301C111.816 4.4993 111.875 4.57187 112.051 4.68072Z" fill="#FEC510"/>
<path d="M121.308 4.49927C121.543 4.57184 121.631 4.64441 121.955 4.60812C121.955 4.60812 121.896 4.57184 121.866 4.53555C121.749 4.60812 121.573 4.60812 121.308 4.53555V4.49927Z" fill="#FEC510"/>
<path d="M130.888 5.80554L130.712 5.6604C130.712 5.6604 130.506 5.6604 130.418 5.6604L130.888 5.84182V5.80554Z" fill="#FEC510"/>
<path d="M47.4887 68.759C47.3124 68.5413 47.2243 68.3599 47.1361 68.1785C47.1949 68.5776 45.7843 68.1785 47.4887 68.759Z" fill="#FEC510"/>
<path d="M1.79269 46.3716C1.79269 46.3716 1.70453 46.1176 1.73391 45.9362L1.64575 46.3353C1.64575 46.3353 1.73391 46.4441 1.79269 46.3353V46.3716Z" fill="#FEC510"/>
<path d="M121.955 0.544312L123.512 0.762018C123.071 0.689449 122.513 0.580596 121.955 0.544312Z" fill="#FEC510"/>
<path d="M117.311 74.1654L116.959 74.2743C116.959 74.2743 117.223 74.2743 117.311 74.1654Z" fill="#FEC510"/>
<path d="M128.126 1.30627C128.39 1.52398 128.655 1.66912 128.978 1.77797C129.037 1.77797 129.125 1.74169 129.184 1.66912L128.155 1.30627H128.126Z" fill="#FEC510"/>
<path d="M36.9684 65.1669C38.379 65.8563 37.8206 64.8766 38.232 64.6589C39.9658 65.2758 38.8492 65.4935 39.3193 66.074C40.4066 66.4369 41.4058 66.1466 42.1992 66.5094C42.2286 66.6546 42.3755 66.7271 42.1698 66.7997C43.4041 66.7997 45.5199 68.0697 46.9893 67.8882C47.0774 67.9971 47.1068 68.0697 47.1362 68.106C46.9893 67.7068 47.048 67.3803 47.1362 67.1626C47.7827 67.3803 48.3998 67.1626 48.5761 67.6343C48.1941 67.4891 48.1059 67.6343 47.9002 67.7431H48.6055C49.0757 68.5414 47.6358 67.7068 47.5476 68.1422C48.9288 68.3599 50.545 68.3237 51.5148 68.7954C51.603 69.4848 49.1051 68.2874 50.3687 69.2308L48.8406 68.5414C49.8398 69.8476 47.9002 68.1785 48.8112 69.521C50.8683 70.3193 51.1915 69.9202 53.2486 70.6459C53.7776 70.4282 53.1898 70.1016 53.6894 69.8839C56.7162 70.029 55.8052 71.9521 58.0974 71.6255C58.7145 71.3353 59.0378 70.6096 60.5365 71.299L59.9194 71.8795C61.947 72.3149 61.183 71.1176 63.2694 71.9158C62.858 72.1335 61.6532 71.9158 61.947 72.0247C63.2694 72.7866 62.9756 71.7707 64.0335 71.9521L64.1804 72.6052C66.355 72.8592 68.7647 72.7504 71.1745 72.9318C71.0275 73.1132 70.5867 73.2221 71.1745 73.5123C74.2307 73.5849 77.6395 74.3106 80.5488 74.8911L81.6949 74.4557C81.9594 74.4557 82.1651 74.746 81.8712 74.8186C83.0173 75.1089 81.9593 74.492 82.5177 74.3106C83.1642 74.3106 83.3699 74.6734 82.9291 74.8186C84.9568 74.492 88.6889 74.1655 90.8047 74.8186L90.3933 74.9637C92.039 75.2177 92.2741 73.9478 93.8022 74.4557L93.5083 74.5646C97.0935 74.8549 101.061 74.3106 103.823 75.0363C104.323 74.238 107.379 75.2177 107.585 74.1655C109.642 74.6009 109.083 74.8186 111.963 75C112.727 75 113.08 74.2743 114.02 74.0929L114.079 74.6372L115.343 73.9477L116.077 74.5646L116.959 74.3469C116.606 74.3469 116.195 74.1655 116.224 73.984C117.605 73.6212 119.633 74.0566 119.692 74.3469L122.954 73.5123C122.895 73.73 122.366 73.8752 121.925 74.0929C123.63 73.3309 122.278 74.6372 123.865 73.9477C123.63 73.8389 123.953 73.6212 123.982 73.4761C124.805 73.6938 126.627 73.4761 127.979 73.1132L127.744 73.5486C130.183 73.2946 132.857 72.6052 135.59 72.0972C134.591 72.0972 134.738 71.4078 135.531 71.1901L135.913 71.6981C136.383 71.2264 135.061 71.6255 136.06 71.0087C137.089 70.8998 136.824 71.553 136.266 71.8432L137.471 71.4078C137.471 71.4078 137.294 71.6981 137.236 71.9521C137.706 71.4804 139.44 72.1698 140.086 71.3716L140.174 71.5167C142.907 70.9361 144.083 70.537 146.316 69.9565C146.287 69.4485 147.168 69.3396 147.756 68.7591C149.402 68.4688 151.312 68.3237 153.251 67.5617C154.544 66.7634 153.545 66.9811 154.074 66.4732C154.28 66.9086 156.219 66.0015 155.308 66.7634C157.601 65.6386 158.276 65.312 160.892 63.135C160.51 63.1713 160.157 63.3164 160.275 63.0624C160.745 62.6633 161.48 62.4456 161.48 62.6633L161.362 62.8084C162.743 61.3933 164.506 60.1597 166.123 58.5994C167.739 57.0755 169.091 55.1887 169.443 53.3382L169.385 53.5559C169.796 52.3585 170.061 51.1611 170.296 49.9637C170.854 48.4035 170.266 51.0523 170.854 49.9637C171.295 45.8999 172.118 43.6865 171.647 40.3483C172.147 39.0421 171.941 36.7199 171.412 34.434C170.913 32.1118 170.06 29.8984 169.796 28.1568L169.62 28.4833C169.12 27.7939 169.385 27.4311 169.179 26.8142C169.032 26.9957 169.326 27.7939 169.003 27.3948C167.504 24.1655 165.799 20.9724 163.654 18.106C161.538 15.2758 159.099 12.7721 156.484 10.7765C154.544 9.39768 154.779 11.4659 152.546 9.32511L153.457 9.17997C149.196 7.4746 144.964 5.1524 140.674 4.57185C140.938 4.49928 140.997 4.31786 141.379 4.46299C140.586 3.77359 138.117 3.55588 138.058 3.91873C137.412 3.70102 137.97 3.55588 137.588 3.30189C136.736 2.83019 135.296 3.33817 134.885 2.83019C134.826 2.75762 135.149 2.72134 135.325 2.72134C134.708 2.83019 132.622 2.14079 133.121 2.75762C131.564 2.24964 130.095 2.35849 128.86 1.92308C127.979 2.35849 126.186 1.26996 125.863 2.03193C126.039 1.19739 123.159 1.01597 122.131 1.34253C122.484 1.12482 121.279 1.01597 121.69 0.689409C120.544 0.580555 119.486 0.653124 119.662 1.08854C117.605 -0.0725651 115.401 1.6328 114.255 0.290279C110.817 0.61684 107.702 0.870831 104.675 1.16111C104.763 0.326564 108.055 0.979684 107.908 0.145142C104.998 0.544271 103.353 1.26996 100.502 1.19739C99.7677 1.12482 100.914 0.834547 101.149 0.653124C98.2689 1.16111 95.5654 0.907115 93.0381 1.6328C93.0381 1.56024 93.3026 1.45138 93.5671 1.34253C93.0675 1.4151 92.3916 1.34253 92.4798 1.70537L92.9793 1.56024C93.8022 2.03193 91.0398 2.86648 90.981 3.15675C91.7451 1.99565 88.4538 3.15675 89.688 1.66909C89.3648 1.77794 88.9534 1.99565 89.0415 2.24964C88.542 2.24964 88.3656 2.1045 88.8652 1.77794C87.0726 2.21336 87.7485 2.50363 86.1322 2.72134C86.1322 2.53992 86.4555 2.43106 86.6024 2.21336C85.809 2.68505 85.0156 3.08418 83.605 3.15675C83.6638 3.0479 83.5168 2.90276 83.9283 2.86648C81.5773 3.30189 79.9904 4.35414 77.375 4.53556C78.0509 3.62845 76.4641 4.42671 76.2583 3.80987L74.9066 4.24529L75.4943 4.46299C74.2894 4.6807 73.2609 5.33382 72.203 5.33382L73.0552 4.86212L70.7924 5.44267H72.1148C70.9394 6.02323 72.3499 6.24093 70.7337 6.38607C71.0569 6.24093 69.5288 6.64006 68.8529 6.38607C68.2946 6.71263 67.7068 7.07548 66.7958 7.11176C66.5314 6.96662 66.884 6.34979 66.7077 6.24093C66.2081 6.93034 63.916 7.03919 63.2401 7.80117C63.4752 7.61974 63.4164 7.2569 63.3282 7.18433L62.9168 7.76488C62.3291 7.76488 62.2409 7.69231 62.2997 7.40204C60.6247 7.7286 62.9756 8.12773 60.9185 8.23658C61.0654 8.16401 60.9773 8.12773 61.3005 7.98259C59.2729 8.27286 57.4803 9.17997 55.6289 9.43397C54.9824 8.8897 57.2158 8.85341 56.4811 8.45429C53.8657 9.25254 51.1328 10.6676 48.5761 11.2119L49.0757 11.1393C48.8994 12.1916 47.1068 11.2119 45.8726 12.0102C46.1664 11.865 46.1958 11.3933 46.137 11.5022C44.3738 11.8287 42.6106 12.7359 40.0246 13.8244L40.2891 13.4978C39.2312 13.6067 37.5561 14.2235 36.4394 14.4775C36.175 14.8404 35.5285 14.9855 35.9986 15.2032C32.2665 15.0218 29.7687 18.3237 26.5361 18.6502C26.8888 18.4688 27.3002 18.0334 27.0357 18.1785C26.2129 18.6502 25.4195 19.1582 24.626 19.6299C24.9493 19.9202 25.0374 19.7025 25.6545 19.7388C25.4195 20.1379 24.8023 20.6459 24.1852 21.0087C25.1844 20.1379 23.9501 20.3919 23.3918 20.4644C23.5093 20.537 23.3918 20.7547 23.4799 20.8636C21.9518 20.9361 23.5387 21.7344 21.6874 22.315V22.061C21.0996 22.5327 20.6294 23.1858 19.9535 23.5849C19.4834 23.3672 20.5413 22.9318 20.4237 22.5689C19.4834 23.2221 18.925 24.6372 17.8965 24.8549C18.2197 24.4557 18.7781 24.0203 19.1307 23.6212C17.9846 23.8026 17.9259 24.0203 17.2206 24.4557H17.2794C16.721 24.746 16.1627 25.1089 15.6043 25.4354L16.0745 25.254C15.5162 27.2134 13.8999 27.3948 12.9007 29.4993C13.8705 27.5036 12.9007 28.9187 12.7244 28.3745C12.2836 28.6285 11.6371 29.0639 11.6959 28.7736C11.2845 29.8258 10.4029 29.717 9.87392 31.2772C9.72699 31.2046 9.19803 32.0755 9.08049 31.6038C8.34582 32.7286 9.46251 31.6038 9.52129 31.8215C8.66907 33.7446 6.25937 35.1234 5.37777 38.2076C4.40801 40.6386 4.6431 41.3643 3.93782 43.6502C3.40886 44.2671 3.73212 42.7794 3.73212 42.7794C3.02684 43.8316 2.76236 44.8113 2.49788 46.045C2.4391 45.7547 2.29217 45.9361 2.02769 46.2264C1.76321 47.2061 2.32156 47.0972 1.76321 48.2584C1.67505 47.9681 1.49873 47.6052 1.49873 47.061C1.26364 48.2584 1.29303 49.5283 1.14609 50.762C0.822839 51.016 0.910999 49.9274 0.881613 49.4195C0.64652 50.8345 0.440813 53.0842 0.793453 53.5922C0.881613 53.3019 0.940386 53.0116 1.02855 52.7213C0.969773 53.2293 0.64652 52.9028 0.64652 52.5036C0.528973 51.2337 1.05793 50.8345 1.20487 50.7983L1.14609 51.7054C2.08646 51.0523 1.67505 48.2584 2.26278 46.553L2.64481 47.4964C2.64481 46.8795 2.64481 46.2264 2.6742 45.5733C2.93868 45.283 3.35009 45.2105 3.14438 46.045C3.82028 45.0653 3.3207 44.9202 3.96721 44.1219C4.05537 44.0493 4.05537 44.1219 4.05537 44.2308C4.11414 43.8316 4.23169 43.4325 4.34924 43.0334C4.34924 43.3237 4.81942 43.106 4.4374 43.6865C5.5247 41.9811 5.43654 40.3483 6.17121 39.9492L6.11243 40.1306C7.2879 37.4819 5.84796 39.5864 6.46507 37.3367C6.99403 37.1553 7.55238 37.0464 8.11073 36.9376L7.90502 36.357C8.08134 36.1393 8.40459 35.6676 8.49275 35.8853C8.84539 34.7605 8.22827 35.8853 8.37521 35.1234C9.46251 34.2888 10.5204 31.8941 11.2257 32.2932C11.2845 31.6038 10.2266 33.0914 10.9612 31.7489C11.7547 32.1118 11.9604 30.3338 13.0477 29.7896C13.0477 30.4064 12.1367 31.0958 13.1946 30.5152C13.2828 29.3541 14.9284 28.955 15.6043 28.193C15.3105 27.6125 17.103 26.4877 18.3667 25.3266C18.3667 25.5806 21.0408 23.7663 22.4514 23.2221V23.3309C22.4514 22.5689 23.862 21.8795 24.8317 21.1901C24.9199 21.5893 24.8023 21.807 24.3028 22.2787L25.2431 21.7707C25.3901 21.4441 25.6546 21.1901 26.2423 20.791L26.1541 21.3716C27.3884 20.6822 28.5344 19.5573 30.2976 19.1582C30.2976 18.6865 28.6226 18.5051 30.2976 17.4528C30.4446 17.6705 30.6209 18.0334 30.1801 18.3237C30.327 18.2148 30.6797 17.8882 31.0029 17.8882L30.3858 18.5777C31.2086 18.4325 30.7091 18.0697 31.3262 17.852C31.4143 18.2148 31.8551 17.9245 31.8257 18.2148C31.6788 18.3237 31.2674 18.2874 31.0617 18.5051C31.767 18.2874 32.6486 18.1422 33.0012 18.2874C32.8837 18.106 32.8837 17.8157 33.3832 17.598C34.7056 17.09 33.9416 17.852 34.735 17.7431C34.9995 17.3803 35.9105 17.344 35.7929 16.7997C36.175 16.6546 36.3219 16.8723 36.4982 16.9811C37.1447 16.5094 39.7014 15.8563 38.8198 15.566H38.6434L38.761 15.5298C40.9356 14.2961 43.551 14.3687 45.7844 13.5341V13.7155C47.1362 13.135 48.8112 12.7721 49.7222 12.119C50.1336 12.0102 50.7213 12.1916 50.6038 12.4456C51.6323 12.0102 51.6911 11.7925 53.2486 11.7199C52.2495 12.3004 53.66 11.9013 52.2201 12.2279C53.6012 12.0102 53.9539 12.2279 55.3351 11.357C54.9236 11.9376 56.4517 11.6473 57.0689 11.357L56.0697 11.2845C56.775 11.0305 57.4215 10.9216 58.068 10.7765L57.8035 11.4659C60.6834 11.5022 62.5936 8.99855 64.9151 9.76053C65.591 9.17998 63.3576 9.79681 63.9453 9.17997C65.2383 8.96227 66.6783 9.54282 67.0897 9.43397C68.8823 9.3614 68.5884 8.20029 70.4692 8.05516C70.2047 7.87373 69.9108 7.36575 71.2626 6.89405C72.5556 6.71263 72.967 7.47461 72.1736 7.80117C71.8797 7.87373 71.7034 7.83745 71.7034 7.80117C71.292 7.9463 70.763 8.16401 71.292 8.30915L71.4389 8.05516C72.1148 8.12773 73.8486 7.76488 73.496 8.20029C74.4364 7.80117 73.878 7.76488 73.1434 7.80117C74.8184 7.80117 75.7294 7.32947 77.4338 7.22061C77.1399 7.14804 76.8755 6.93034 77.1399 6.89405C79.6672 6.71263 78.1979 6.27722 79.8729 5.91437C80.872 6.09579 79.6084 6.74892 81.2835 6.20465C82.3414 6.27722 81.5479 6.74892 81.1659 6.96662C82.6646 6.3135 84.0752 6.7852 84.9568 6.74892L84.1633 7.03919C84.6335 6.85777 85.0449 6.7852 85.4564 6.74892L84.9568 6.38607C85.4564 6.38607 85.8384 6.34979 85.8678 6.53121C86.338 6.20465 85.427 5.87809 86.3673 5.37011C87.0138 5.51524 88.3069 4.89841 88.5713 5.44267C86.5437 5.51524 88.8358 5.98694 87.1608 6.27722C87.484 6.16836 87.8955 6.13208 88.3656 6.13208C88.4538 6.20465 88.3069 6.24093 88.1893 6.3135C90.1582 6.56749 89.0121 5.55153 91.0104 5.33382C90.7753 5.69667 91.51 5.91437 91.8333 5.80552C91.0398 5.87809 91.4219 5.29754 92.1271 5.00726C93.4201 5.1524 93.5083 4.6807 94.1842 4.64442H93.4201C93.6552 4.24529 94.3017 4.24529 95.1833 4.06386C95.2715 4.31786 94.3899 4.31786 94.7132 4.39042C95.6829 3.70102 96.9759 4.78955 98.3571 4.31786C99.0036 4.49928 98.4452 4.93469 99.0036 5.04355C100.532 4.53556 100.708 5.37011 102.324 4.93469C101.854 4.49928 101.766 4.60813 102.912 4.17272C102.03 4.28157 101.119 4.46299 100.238 4.60813L101.942 3.88244C101.119 3.88244 100.238 4.24529 99.7383 4.209C100.561 3.80987 100.473 3.91873 100.062 3.59217C101.208 4.17272 102.266 3.08418 103.559 3.48331V4.57185C105.469 5.00726 106.967 3.88244 109.465 4.209L108.672 4.02758C108.995 3.59217 110.229 3.9913 111.023 3.80987C110.935 4.17272 111.434 4.31786 111.787 4.53556C111.757 4.24529 113.609 4.57185 113.844 3.91873L114.961 4.46299C116.959 4.78955 117.311 3.5196 119.251 3.80987C118.634 4.13643 119.515 4.46299 118.193 4.64442C118.84 4.64442 119.427 4.82584 119.427 4.57185C119.78 4.82584 121.249 4.24529 121.808 4.64442C122.102 4.49928 122.219 4.13643 122.924 4.24529C123.012 4.31786 122.924 4.42671 122.924 4.42671C122.924 4.24529 124.07 4.28157 123.483 3.84616C125.393 5.18868 129.066 4.49928 130.682 5.76923C132.093 5.91437 133.797 6.13208 135.061 6.34979C134.973 6.42236 135.061 6.53121 134.797 6.45864C136.501 7.14804 136.031 5.66038 137.941 6.49492C138.852 7.32947 136.854 6.53121 137.441 6.93034C137.529 8.12773 139.851 7.36575 141.027 8.418H140.703C141.614 9.07112 143.23 8.67199 144.817 9.3614C144.817 9.3614 144.729 9.43397 144.759 9.54282C145.993 9.3614 148.138 10.0508 149.696 10.5951C149.078 10.8128 148.932 10.4862 149.078 11.0668C149.784 11.3208 149.078 10.2685 150.489 10.8128C150.842 11.2482 151.753 11.9739 151.694 12.5181C151.282 12.3004 150.871 12.0827 150.46 11.865C150.9 12.7721 152.046 12.7359 152.664 13.2076L152.487 13.4253C154.339 14.4775 154.662 13.8607 156.543 15.3483L156.454 15.0218C157.806 15.2758 157.16 16.0015 158.394 16.4732V17.3077C159.099 17.7068 160.892 18.9042 162.038 20.029C161.156 19.7025 159.746 18.5414 158.776 18.0334C159.393 18.6139 160.862 20.0653 161.333 20.1742C161.068 19.9565 160.657 19.775 160.51 19.4122C161.538 19.775 162.655 20.6822 163.684 22.2061C163.155 22.5327 163.801 23.5123 164.448 24.746C165.124 25.9434 165.799 27.4311 165.682 28.3019C167.328 31.0232 167.739 34.4703 168.268 38.1713C168.973 36.6473 168.415 39.2961 169.267 38.9332C169.385 39.8404 169.414 40.2032 169.355 40.2758C169.179 41.2192 169.061 42.1626 168.797 43.0334C168.503 43.6502 168.65 42.1626 168.444 42.2351C168.239 44.1219 168.003 42.9971 167.68 44.1945C168.033 43.9768 168.033 44.9202 167.768 45.9361L168.385 44.521C168.444 45.8999 168.18 46.4441 167.827 46.9158C167.504 47.4238 167.239 47.8955 167.063 49.2017V48.2946C166.916 49.6734 165.329 52.6488 165.124 54.209C164.918 54.3179 164.565 54.3541 164.83 53.8462C163.184 56.3135 160.862 59.6154 158.688 60.3774L158.776 60.0145C158.365 60.4136 158.159 60.9942 157.483 61.1031C157.483 60.9942 157.571 60.7402 157.365 60.8491C157.16 61.1031 156.249 61.9739 155.544 62.1553L156.014 61.5747C153.398 62.5181 152.223 64.0421 149.96 64.9855C149.813 64.2235 147.609 64.6226 146.522 64.7315V64.6226C143.319 65.3483 141.115 66.5094 138.088 67.4528C136.09 66.9811 131.623 68.2511 128.508 68.2148C128.978 68.2874 128.508 68.8316 127.949 69.0131C127.215 68.9405 126.01 69.8476 126.069 69.0856H126.333C125.716 68.4325 124.276 68.8316 123.13 68.9405L123.012 69.9202C119.898 68.9042 115.107 71.2627 113.403 70.1379C112.698 70.4282 111.787 70.4644 111.052 70.7547V70.2467C109.054 70.2467 108.025 70.2467 105.527 70.4644L106.027 70.0653C104.616 70.0653 104.293 71.6255 102.971 71.6981L102.559 70.9361C100.091 71.0087 97.593 70.3556 95.154 71.0087C95.1833 70.8998 95.2715 70.6821 95.6535 70.6459C94.4781 70.6459 91.1868 70.0653 91.5688 71.1176C91.5688 70.4282 89.0415 70.9724 87.6897 71.2264L87.9248 70.7184C86.7788 71.299 86.7494 71.4804 85.1625 71.553C84.7805 71.4804 84.8392 71.1176 85.3388 71.299C84.1046 70.9724 84.3397 71.7344 82.8703 71.3716L83.4581 71.0813C82.1944 70.9724 82.2826 71.1176 81.5479 71.4441C80.7251 71.5893 79.1382 71.1176 78.9619 70.6459C78.7856 70.8998 78.0509 71.2264 77.3163 71.0087C77.2281 70.8273 77.4926 70.7547 77.6395 70.7184C75.5237 70.1379 74.4364 70.9724 72.9964 70.3193C72.9964 70.1379 72.8789 70.0653 72.7613 69.9927C74.4364 70.1742 75.8175 70.3556 75.6706 70.3556C75.7 69.8839 74.3482 69.6662 75.4649 69.1219C74.3482 69.3759 72.4087 69.9202 71.1157 69.521C71.0569 69.4848 70.9981 69.4122 70.9394 69.3396H71.0863C70.7924 69.2308 70.4986 69.2308 70.2341 69.2671C69.8227 69.1219 69.5582 69.0493 69.1468 68.9768C69.0292 68.5776 67.6187 68.5777 66.9428 68.4325C66.9428 68.9405 66.0612 68.7228 66.8546 69.2671C66.7371 69.2308 67.0016 69.2308 67.4424 69.2671C67.5599 69.2671 67.6774 69.2671 67.7362 69.2671H67.6774C68.1182 69.3396 68.706 69.4122 69.3819 69.4848C68.8235 69.6662 68.2358 69.8113 67.5011 69.4485C67.1191 69.7387 66.7077 69.9927 66.4726 70.1379C65.6204 69.3033 63.8572 68.6502 63.6515 68.1785C61.565 68.1422 58.8027 67.5254 57.3921 68.1785C56.8044 68.1785 56.7456 67.7794 56.5693 67.5617C56.9219 67.5617 57.304 67.6343 57.5097 67.5617C56.3048 67.5617 54.0714 66.8723 53.6894 67.4528C52.2788 66.7634 54.6004 67.0537 52.6021 66.6546L52.896 66.5094C49.2226 64.3687 46.1664 66.328 42.258 63.2076C42.5225 63.4253 42.6694 63.4978 42.6988 63.643C38.0851 61.1031 32.7367 59.3614 28.9752 55.1161C27.8879 53.9913 27.6235 54.1727 26.7419 53.8099V53.1568C26.2717 52.939 25.7427 52.7939 25.2725 52.5399C24.3615 51.8505 23.862 50.8708 23.2742 49.8549C22.7453 48.8026 22.2163 47.7141 21.0408 46.807V47.3512C20.4531 46.4441 19.0719 44.5573 19.4246 44.4848C19.3364 44.4485 18.9838 44.4122 18.8956 43.9405L19.0719 43.7591C18.5136 43.0697 18.0434 42.3077 17.5145 41.582C16.7798 39.5501 18.3667 41.3643 17.25 38.4978C16.7798 37.4819 15.4868 35.7765 15.4868 36.2482C15.6337 36.6836 15.7806 37.4456 15.5749 37.5907L15.0754 36.6473C14.3701 36.7925 13.4003 36.2482 13.9587 39.1509L15.0166 40.7475C15.0166 41.0015 14.9578 41.2554 14.9578 41.5094L14.3407 39.9855C14.3995 41.0377 14.8403 41.4732 15.3105 41.9086C15.2223 42.1626 15.2517 42.4891 15.3398 42.852L16.721 44.1219C16.6035 44.521 15.8982 43.7228 16.339 44.9565C16.9855 45.537 16.4565 43.7954 17.2794 44.9565C17.4851 45.9361 17.1618 45.8999 17.9259 46.5893C17.8671 46.8433 17.6614 46.7344 17.3675 46.4441C18.0434 47.0972 18.7487 48.5123 19.307 48.6212C19.5715 49.6734 21.2466 51.016 20.747 51.4877C21.0115 51.6328 22.1282 52.2859 22.7159 52.8665C21.1878 52.4674 24.773 55.1887 24.0089 55.6604C25.2725 55.733 27.1239 58.1277 28.8871 58.7808C28.7695 58.7808 28.5344 58.7808 28.4463 58.6357C29.2691 59.3614 29.416 59.7605 29.8862 60.3411C30.2683 59.8331 31.7082 60.5588 32.6192 60.6676C33.442 61.9739 31.6494 60.9942 31.7376 61.7925C31.9139 61.2482 33.824 62.5181 33.6477 61.8287C34.353 62.6996 34.2942 62.4093 34.5293 63.2076C34.9701 62.4819 35.3815 63.5341 36.2631 63.4253C37.3504 64.5138 36.3219 64.4049 37.7618 64.8041C38.3496 65.3846 36.9978 65.0581 36.9978 65.0581L36.9684 65.1669ZM71.2038 72.7504C70.91 72.7504 70.6455 72.7141 70.4986 72.7141C70.6455 72.7141 70.8512 72.7141 71.2038 72.7504ZM74.0837 73.0769C73.7311 73.0406 73.2903 72.9681 72.8201 72.9318C72.7319 72.7504 72.8495 72.5689 73.1434 72.6052C72.967 72.7141 73.6429 72.8955 74.0837 73.0769ZM68.2946 68.8316C68.7647 68.8316 68.8823 68.9405 68.9411 69.0493C68.7354 69.0493 68.4709 69.0493 68.1476 69.0131L68.0889 69.0856C68.0889 69.0856 68.2064 68.9042 68.2946 68.8679V68.8316Z" fill="#FEC510"/>
<path d="M67.4129 69.4122C67.4129 69.4122 67.2953 69.4122 67.2366 69.4122C67.3247 69.4848 67.4129 69.5211 67.5011 69.5574L67.6774 69.4122H67.4423H67.4129Z" fill="#FEC510"/>
<path d="M38.908 15.6386H38.9668C38.9668 15.6386 38.8786 15.6386 38.8198 15.6023C38.8786 15.6023 38.8786 15.6023 38.908 15.6386Z" fill="#FEC510"/>
<path d="M114.079 74.7097V74.5646L113.844 74.7097H114.079Z" fill="#FEC510"/>
<path d="M17.2206 24.2743L16.3096 24.7823C16.721 24.5646 16.9855 24.3831 17.2206 24.2743Z" fill="#FEC510"/>
<path d="M12.6951 27.9391C12.6951 27.9391 12.6951 28.1205 12.7239 28.1931L12.6951 27.9391Z" fill="#FEC510"/>
<path d="M93.6553 1.23367H93.861C94.3312 1.05225 94.0079 1.12482 93.6553 1.23367Z" fill="#FEC510"/>
<path d="M68.8823 6.27718C69.1174 6.13204 69.3819 5.98691 69.6464 5.87805C69.2056 5.91434 68.8529 5.98691 68.8823 6.27718Z" fill="#FEC510"/>
<path d="M121.778 0.507935L121.955 0.544219L121.778 0.507935Z" fill="#FEC510"/>
<path d="M70.7923 5.6604C70.3515 5.6604 69.9695 5.73297 69.6462 5.87811C69.9989 5.84182 70.4397 5.80554 70.7923 5.6604Z" fill="#FEC510"/>
<path d="M0.205746 52.1407L0.146973 52.4673C0.146973 52.4673 0.205746 52.4673 0.205746 52.5036V52.1407Z" fill="#FEC510"/>
<path d="M0.17627 52.5037V52.8665C0.17627 52.8665 0.204118 52.5762 0.17627 52.5037Z" fill="#FEC510"/>
<path d="M0.205787 53.6647V52.8665C0.147014 53.1204 0.117627 53.447 0.205787 53.6647Z" fill="#FEC510"/>
<path d="M2.6155 43.6502L2.52734 43.4688C2.52734 43.4688 2.55673 43.5776 2.6155 43.6502Z" fill="#FEC510"/>
<path d="M3.58529 41.2191C3.32081 41.7634 2.6743 42.4528 2.43921 43.3599L2.52737 43.505C2.43921 42.9608 3.58529 41.9085 3.58529 41.2191Z" fill="#FEC510"/>
<path d="M10.3147 33.7083C9.87385 34.18 9.49183 34.7242 9.05103 35.2322C9.37428 35.0871 9.78569 34.8694 9.31551 35.6313C11.1081 33.9985 8.72777 35.7402 10.3147 33.7083Z" fill="#FEC510"/>
<path d="M14.4582 29.4267C13.7823 30.225 14.6051 29.6444 14.6345 29.7533C14.9871 29.1365 15.1047 29.0276 14.4582 29.4267Z" fill="#FEC510"/>
<path d="M51.0739 12.5544V13.0261C51.7791 12.7721 51.0445 12.8447 51.0739 12.5544Z" fill="#FEC510"/>
<path d="M58.1562 8.27292L57.3922 8.16406L57.1277 8.67205L58.1562 8.27292Z" fill="#FEC510"/>
<path d="M63.0636 10.4499L62.7698 10.5951L63.9452 10.1597L63.0636 10.4499Z" fill="#FEC510"/>
<path d="M129.125 5.95067L128.978 5.37012C128.478 5.37012 128.302 6.02324 129.125 5.95067Z" fill="#FEC510"/>
<path d="M156.249 15.312C156.396 15.7474 156.954 16.4368 157.483 16.5457C156.983 16.074 156.543 15.4934 156.249 15.312Z" fill="#FEC510"/>
<path d="M121.455 69.3759L122.013 69.1219L120.926 69.4122L121.455 69.3759Z" fill="#FEC510"/>
</g>
<defs>
<clipPath id="clip0_13_1971">
<rect width="172" height="75" fill="white"/>
</clipPath>
</defs>
</svg>
