<svg width="32" height="34" viewBox="0 0 32 34" fill="none" xmlns="http://www.w3.org/2000/svg">
<g clip-path="url(#clip0_13_1679)">
<path d="M3.00401 15.628C3.11832 15.644 3.39749 15.6866 3.35471 15.6571L2.87879 15.5853L3.00401 15.628Z" fill="#006D2C"/>
<path d="M3.88054 15.6619C3.65967 15.6112 3.26074 15.5393 2.82761 15.4969C3.27709 15.5795 3.09357 15.5448 3.62548 15.6407C3.68149 15.6648 3.47153 15.6409 3.29345 15.6197C3.40776 15.6356 3.19005 15.6305 3.48243 15.6677C3.8518 15.7048 3.85956 15.686 3.57493 15.6301C3.67603 15.6514 3.80356 15.662 3.88599 15.6753L3.88054 15.6619Z" fill="#006D2C"/>
<path d="M4.80332 14.599L4.73993 14.5938C4.73993 14.5938 4.79018 14.6044 4.80332 14.599Z" fill="#006D2C"/>
<path d="M5.19755 13.9389C5.19755 13.9389 5.25322 13.9629 5.29805 13.9601C5.26093 13.9442 5.24238 13.9362 5.19755 13.9389Z" fill="#006D2C"/>
<path d="M5.73072 13.9251C5.73072 13.9251 5.71758 13.9305 5.70444 13.9358C5.75469 13.9464 5.76783 13.9411 5.73072 13.9251Z" fill="#006D2C"/>
<path d="M4.80347 14.5991L4.94421 14.6043C4.79256 14.5723 4.8299 14.5883 4.80347 14.5991Z" fill="#006D2C"/>
<path d="M2.77517 15.3307C2.77517 15.3307 2.84439 15.3494 2.89494 15.3601C2.88172 15.3655 2.85761 15.344 2.84439 15.3494L2.77517 15.3307Z" fill="#006D2C"/>
<path d="M5.12865 14.9821C5.12865 14.9821 5.24841 15.0114 5.31217 15.0167L5.1232 14.9687L5.12865 14.9821Z" fill="#006D2C"/>
<path d="M5.15527 15.2368C5.15527 15.2368 4.77501 15.1729 4.60469 15.1329C4.76955 15.1595 4.83877 15.1782 4.8761 15.1943C4.95853 15.2076 5.04096 15.2209 5.15527 15.2368Z" fill="#006D2C"/>
<path d="M4.40468 15.511L4.45493 15.5216C4.45493 15.5216 4.42324 15.519 4.40468 15.511Z" fill="#006D2C"/>
<path d="M5.23581 14.8292C5.23581 14.8292 5.35012 14.8451 5.382 14.8478L5.23581 14.8292Z" fill="#006D2C"/>
<path d="M4.7538 6.98222C4.7538 6.98222 4.79634 7.01149 4.81489 7.01947C4.77778 7.00352 4.7538 6.98222 4.7538 6.98222Z" fill="#006D2C"/>
<path d="M6.6459 7.69599L6.66457 7.70402L6.86214 7.81103L6.6459 7.69599Z" fill="#006D2C"/>
<path d="M6.53378 11.8491C6.1877 11.7556 6.10443 11.6646 5.72102 11.5551C5.8649 11.6059 6.30746 11.785 6.53378 11.8491Z" fill="#006D2C"/>
<path d="M5.72135 11.5557L5.68319 11.5393L5.72135 11.5557Z" fill="#006D2C"/>
<path d="M6.16707 13.2946C6.16707 13.2946 6.04731 13.2652 5.99676 13.2546C6.0341 13.2706 6.08464 13.2813 6.16707 13.2946Z" fill="#006D2C"/>
<path d="M5.65923 12.9544C5.65923 12.9544 5.74117 12.9677 5.6855 12.9438C5.67237 12.9491 5.65381 12.9411 5.63525 12.9331C5.6855 12.9438 5.70948 12.965 5.64067 12.9465L5.65923 12.9544Z" fill="#006D2C"/>
<path d="M5.71792 12.7586C5.71792 12.7586 5.66767 12.748 5.63598 12.7454L5.6414 12.7587L5.71792 12.7586Z" fill="#006D2C"/>
<path d="M4.60475 7.71445C4.70354 7.76795 4.81555 7.81608 4.933 7.87761C4.67942 7.74653 4.60161 7.66887 4.60475 7.71445Z" fill="#006D2C"/>
<path d="M3.00391 15.3626C2.90281 15.3413 2.85226 15.3306 2.83905 15.336C2.83905 15.336 2.83905 15.336 2.85771 15.344C2.92148 15.3493 2.97203 15.36 3.00391 15.3626Z" fill="#006D2C"/>
<path d="M3.9606 9.27263L3.91806 9.24336C3.91806 9.24336 3.91806 9.24336 3.9606 9.27263Z" fill="#006D2C"/>
<path d="M2.64062 11.9341C2.7736 11.958 2.86148 11.9847 2.91203 11.9954C2.88015 11.9928 2.85603 11.9713 2.80548 11.9607L2.6274 11.9394L2.64062 11.9341Z" fill="#006D2C"/>
<path d="M4.19858 7.20819C4.19858 7.20819 4.65518 7.45967 4.91967 7.61755C5.04026 7.72465 4.55954 7.45174 4.31687 7.34747C4.43201 7.44117 4.85128 7.67661 4.82485 7.68737C4.74473 7.64188 4.72607 7.63386 4.62728 7.58035C4.99055 7.79173 4.6149 7.66348 5.06374 7.93374C5.02641 7.9177 4.98362 7.88826 4.94629 7.87222C5.1812 7.99527 5.42932 8.11295 5.60278 8.19854C5.60823 8.21194 5.89138 8.37783 5.57635 8.20929C5.57635 8.20929 5.47211 8.14239 5.37332 8.08888L5.50168 8.17721C5.04822 7.9713 5.35465 8.08086 5.02641 7.9177C5.16022 8.01942 5.51027 8.23618 5.37184 8.19881C4.9316 7.98752 5.24579 8.07831 4.85378 7.90986L5.04276 7.9579C4.34118 7.63431 5.10653 7.96318 4.34894 7.61553C4.20275 7.59694 4.5419 7.78689 4.40892 7.76292C4.64383 7.88597 4.76128 7.9475 5.00941 8.06518C5.41861 8.35157 3.88393 7.5705 4.45023 7.90229C4.73338 8.06818 5.29108 8.341 4.98465 8.23143L4.49616 7.9773C4.43009 8.00419 5.18767 8.35184 4.84936 8.23963C4.65178 8.13262 4.69688 8.12989 4.64088 8.10582C4.23565 7.94275 4.90536 8.2637 4.8976 8.28247L4.45735 8.07118C4.49006 8.15158 4.78957 8.35767 4.85417 8.44071C4.71805 8.37116 4.59514 8.29623 4.45125 8.24546C4.64421 8.41682 4.3277 8.35821 4.04308 8.30224L4.41956 8.50824C4.41956 8.50824 4.23834 8.44142 4.17144 8.39056C4.01434 8.34517 4.41956 8.50824 4.56114 8.59119C4.57204 8.61798 4.32937 8.51371 4.22513 8.4468C4.53785 8.64752 4.86693 8.88843 4.44073 8.74951L4.32328 8.68798C4.15296 8.64796 5.08946 9.09461 4.72702 8.96098L4.66557 8.92351C4.46652 8.92643 4.76917 9.17809 4.17497 8.96698C4.72722 9.2264 3.90124 8.93781 4.67205 9.28009C4.26997 9.16259 4.12839 9.07964 3.84922 9.03707C3.80958 9.0532 4.3268 9.2644 4.39916 9.32866L3.98849 9.15219L4.39685 9.36084L3.90375 9.17106L4.00799 9.23796C4.00799 9.23796 4.20242 9.2994 4.31442 9.34753C4.48012 9.4519 4.00337 9.30231 3.78482 9.21946L4.10299 9.43357C3.93499 9.36138 3.8922 9.33194 3.79341 9.27843C4.18856 9.49245 3.35631 9.11272 3.72734 9.30532C3.82067 9.34542 3.97001 9.4096 4.04468 9.44168C3.79424 9.35618 3.76551 9.39911 3.86975 9.46601L3.58974 9.34569C3.49724 9.38334 3.67384 9.5145 3.65055 9.57083C3.78898 9.6082 4.28209 9.79798 4.31711 9.8462L3.88001 9.68049C4.1468 9.80618 4.05032 9.7205 4.36535 9.88904C4.30704 9.89715 3.85903 9.70464 3.72291 9.63509L3.86448 9.71804C3.73382 9.66189 3.6646 9.6432 3.50981 9.56563C3.7766 9.69133 3.05718 9.43747 3.51064 9.64338L3.37998 9.58723C3.37998 9.58723 3.48505 9.73189 3.49365 9.79086C3.86153 9.93789 3.7791 9.92458 4.07778 10.0529C3.95025 10.0423 3.62829 9.97033 3.6501 10.0239C3.82901 10.1229 3.96744 10.1603 4.19145 10.2565C3.84768 10.1309 3.86949 10.1845 3.62136 10.0669C3.65408 10.1473 3.65953 10.1607 3.91625 10.3373C4.06014 10.3881 4.1239 10.3934 4.2359 10.4415C4.2919 10.4656 4.08425 10.4095 3.9217 10.3507L3.88437 10.3347C4.37831 10.6022 2.82054 10.1429 3.50891 10.4718L3.47158 10.4558L3.82939 10.6538C3.82939 10.6538 3.56805 10.5415 3.36041 10.4854C3.91811 10.7582 3.23917 10.566 3.6102 10.7586C2.57427 10.4461 3.63598 10.9355 2.95473 10.7754L3.19971 10.8475C3.43693 10.9384 3.04807 10.8155 2.99752 10.8049C3.19195 10.8663 3.21838 10.8556 3.34905 10.9117C3.5957 11.1393 2.91528 11.057 2.6533 11.1324C2.57401 11.1646 3.90547 11.5599 3.30434 11.4453L2.85402 11.285C3.36662 11.5605 2.76864 11.4915 3.20112 11.7216C3.09457 11.6868 2.96936 11.6441 2.9639 11.6307C2.62328 11.5506 2.93286 11.7058 3.1965 11.7859C3.17007 11.7967 2.95152 11.7138 2.81854 11.6898C2.61635 11.6472 3.22922 11.8663 2.88859 11.7863C2.83804 11.7756 2.78204 11.7515 2.75792 11.7301C2.92047 11.7889 2.70275 11.7838 3.08072 11.8799C2.88943 11.864 3.23865 12.003 2.99136 11.9631C3.41756 12.102 2.76042 11.9634 3.3756 12.1503C2.74721 11.9687 2.84914 12.0678 3.14236 12.1828C2.94793 12.1213 2.94562 12.1535 2.67652 12.06C2.68742 12.0868 2.78621 12.1403 3.11362 12.2257C2.35539 12.0657 3.68454 12.4931 2.72642 12.2583C3.04145 12.4269 3.24994 12.5607 3.38375 12.6624C2.76081 12.4942 3.34558 12.5686 2.69076 12.3978C2.93112 12.5342 3.45066 12.7133 3.29439 12.7456C3.19875 12.7377 3.03074 12.6655 2.92419 12.6308C3.16455 12.7672 2.83252 12.7461 3.16853 12.8905C3.11798 12.8799 3.04331 12.8478 3.00598 12.8317C3.01689 12.8585 2.91579 12.8372 3.19265 12.912L3.11798 12.8799C3.53559 12.9598 3.96493 13.1443 4.18579 13.195C3.37387 12.9788 3.97352 13.2033 2.9485 12.9176C3.0045 12.9417 3.12972 12.9844 3.33192 13.0271C3.26815 13.0218 3.16705 13.0005 2.94074 12.9364C3.08232 13.0193 3.39882 13.0779 3.3833 13.1155C3.24487 13.0781 3.19432 13.0674 3.03722 13.0221C3.30087 13.1022 3.56997 13.1957 3.44789 13.1985C3.36001 13.1718 3.25892 13.1505 3.25892 13.1505C3.28618 13.2175 3.95191 13.4151 3.68909 13.4127C3.08482 13.2526 3.49235 13.3835 2.96819 13.2688L3.11753 13.333L3.37027 13.3863C3.37027 13.3863 3.73271 13.5199 3.56009 13.5121L3.34699 13.4426L3.43801 13.5149L3.64252 13.5254C3.91162 13.6189 4.3051 13.6774 4.15115 13.6776C4.09515 13.6535 4.14339 13.6964 3.83233 13.6512C3.99488 13.71 4.1652 13.75 4.02446 13.7448C3.85414 13.7048 3.44975 13.6194 3.32999 13.5901C3.7585 13.6968 3.43192 13.6892 3.89231 13.7986C3.79121 13.7772 3.50114 13.7079 3.45059 13.6972L3.80988 13.7852C3.69557 13.7693 3.63181 13.764 3.42416 13.708C3.35809 13.7348 4.09451 13.8412 3.79436 13.8228C3.76248 13.8202 3.70647 13.7961 3.65592 13.7854C3.49421 13.8044 3.86441 13.9192 3.68402 13.9302C3.15211 13.8343 3.56657 13.8686 3.11708 13.7861C3.19489 13.8637 3.71443 14.0427 3.59004 14.0777L3.65381 14.083C4.39882 14.2484 3.27123 14.0513 3.62276 14.1581C3.57221 14.1475 3.37002 14.1048 3.3008 14.0861C3.17096 14.1077 3.47195 14.2039 3.68819 14.3189L3.49921 14.2709C3.32659 14.263 3.39349 14.3139 3.29009 14.3247C3.47907 14.3728 3.44718 14.3701 3.73181 14.4261C2.61826 14.3014 4.28406 14.6855 3.36726 14.5901L3.19694 14.5501L3.35718 14.641C3.68691 14.6943 3.55393 14.6703 3.81443 14.7048C4.00341 14.7529 4.15506 14.7849 4.1473 14.8037C3.9342 14.7342 3.61538 14.7078 3.43731 14.6865C3.5384 14.7078 3.65271 14.7238 3.75381 14.7451C3.16904 14.6707 4.40549 14.8704 4.0097 14.844L3.83938 14.804C3.83938 14.804 4.14813 14.8814 4.09527 14.9029C3.715 14.839 3.91951 14.8495 3.60845 14.8043C3.61936 14.8311 4.30837 14.9724 3.93901 14.9353C3.83246 14.9005 3.83246 14.9005 3.73912 14.8604C3.28733 14.81 3.40164 14.826 3.33011 14.8395L3.13106 14.8424L3.25859 14.853C4.23223 15.0502 3.43204 14.9385 4.06275 15.0879C3.45071 14.9466 3.71436 15.0267 3.28354 14.9521C3.15601 14.9415 3.02849 14.931 2.91418 14.915C3.2548 14.995 2.63269 14.9046 3.13818 15.0113C3.0052 14.9873 3.11175 15.022 2.78203 14.9688C2.89403 15.0169 3.02387 14.9953 3.19418 15.0353C3.65457 15.1447 2.61024 15.0387 3.25961 15.1961C3.5155 15.295 3.99141 15.3669 4.20997 15.4497C3.98679 15.4312 3.70993 15.3565 3.70993 15.3565C3.50543 15.346 3.535 15.3808 3.6921 15.4262C3.57233 15.3968 3.46347 15.3943 3.31728 15.3757C3.35462 15.3917 3.81732 15.4689 3.61281 15.4585C3.46117 15.4265 3.21387 15.3865 3.06223 15.3545C3.18745 15.3973 3.44564 15.464 3.56541 15.4934C3.32357 15.4668 3.19835 15.4241 3.0467 15.3921C3.15325 15.4268 3.25749 15.4937 3.63776 15.5576L3.77851 15.5628C3.77851 15.5628 3.45424 15.523 3.38502 15.5043C3.08173 15.4403 3.52031 15.4961 3.6665 15.5147L3.75439 15.5414C4.56233 15.6343 3.63148 15.4665 3.67888 15.4316L4.27456 15.5327L3.78774 15.4341C3.94715 15.4473 4.27142 15.4872 4.3593 15.5139C4.65945 15.5323 4.15166 15.4578 4.47592 15.4977C4.52647 15.5083 4.55835 15.511 4.57702 15.519L4.40126 15.4656C4.52102 15.4949 4.81341 15.5321 4.73098 15.5188C5.07622 15.5345 4.29156 15.3853 4.74336 15.4357L4.76979 15.4249C4.58857 15.3581 4.34987 15.3772 3.83893 15.2571L4.91284 15.398L4.48202 15.3234C4.48202 15.3234 4.53488 15.3019 4.70519 15.3419C4.41511 15.2725 4.50845 15.3126 4.24249 15.2647C4.64374 15.3044 4.0768 15.1603 4.76267 15.256C4.42749 15.1894 4.50761 15.2349 4.2813 15.1708C5.01772 15.2772 4.16384 15.1093 4.50133 15.1437C4.8816 15.2076 4.67709 15.1971 5.01458 15.2316C4.36835 15.1198 5.15763 15.2046 5.05108 15.1699C4.53783 15.082 4.84574 15.0817 4.68319 15.0229C4.84805 15.0495 4.97243 15.0145 5.17148 15.0116L5.25391 15.0249C4.73521 14.9236 4.83862 14.9128 4.74528 14.8727C5.06179 14.9313 5.1761 14.9472 5.31453 14.9846L5.30908 14.9712C5.15198 14.9258 5.06955 14.9125 5.01355 14.8884L5.39927 14.9657C5.39927 14.9657 4.95441 14.8188 5.22267 14.8346C4.85562 14.7653 4.20708 14.6856 3.98308 14.5894C4.17982 14.6186 4.51499 14.6853 4.58421 14.7039C4.56554 14.6959 4.42711 14.6585 4.50954 14.6719L4.8315 14.7439C4.97224 14.7491 4.56009 14.6825 4.58652 14.6718C4.86569 14.7143 4.78326 14.701 4.99867 14.7383C5.01734 14.7463 4.88436 14.7224 4.98546 14.7437C5.03831 14.7222 5.20317 14.7488 5.41858 14.7861C5.25372 14.7595 5.05153 14.7168 5.01419 14.7008C4.99784 14.6606 5.34391 14.754 5.50332 14.7672C5.31434 14.7192 5.51108 14.7484 5.10669 14.6631C5.10669 14.6631 5.30344 14.6924 5.41775 14.7083C5.24198 14.6549 5.38503 14.6279 4.92779 14.5641L4.90136 14.5749L4.89045 14.5481C4.48292 14.4172 5.14467 14.4915 4.97122 14.4059L5.10419 14.4299C4.95486 14.3657 5.02093 14.3388 4.7254 14.256C4.7254 14.256 4.98591 14.2906 5.15077 14.3172C5.05743 14.2771 4.90033 14.2317 5.1235 14.2502C5.35527 14.3277 5.33891 14.2875 5.29927 14.3036C5.42134 14.3008 5.64997 14.3327 5.27201 14.2366C5.6313 14.3247 5.71604 14.3058 5.6227 14.2657L5.3622 14.2312C5.3622 14.2312 5.34584 14.191 5.37772 14.1936L5.83811 14.303C6.41743 14.364 4.89238 13.9851 5.85511 14.1555C5.5277 14.0701 5.61873 14.1424 5.24077 14.0463C5.30684 14.0194 5.9904 14.1473 5.9904 14.1473C6.25867 14.1631 5.31146 13.9551 5.4973 13.9575C5.33244 13.9309 4.89071 13.8296 4.74137 13.7654C4.80745 13.7385 5.43815 13.8879 5.56882 13.9441C5.56882 13.9441 5.52372 13.9468 5.47318 13.9361C5.52918 13.9602 5.60385 13.9923 5.78192 14.0135L5.61161 13.9735C5.78968 13.9947 5.77333 13.9545 6.05019 14.0293C5.88764 13.9705 5.77333 13.9545 5.69635 13.9546C5.9514 13.9758 5.71963 13.8983 5.89226 13.9061C5.79661 13.8982 5.60763 13.8502 5.60763 13.8502C5.8199 13.8419 5.30665 13.754 5.23974 13.7031C5.50025 13.7377 5.83856 13.8499 5.63323 13.7617C5.8113 13.7829 6.07495 13.863 6.20017 13.9058C5.89373 13.7962 6.42565 13.8921 6.48941 13.8974L6.61463 13.9402C6.61463 13.9402 6.53996 13.9081 6.54772 13.8893L6.21255 13.8227C6.21255 13.8227 6.27086 13.8145 6.40929 13.8519C6.19619 13.7825 5.86647 13.7292 5.56549 13.6331C5.73035 13.6597 5.39203 13.5475 5.83375 13.6488C5.6798 13.649 6.27548 13.7502 6.34238 13.8011C6.28638 13.777 6.2996 13.7716 6.35014 13.7823C6.40069 13.7929 6.43803 13.809 6.46991 13.8116C6.86339 13.8702 5.97995 13.6674 5.99547 13.6299C6.24045 13.702 6.46908 13.7339 6.41853 13.7232C6.41853 13.7232 6.00869 13.6245 5.81425 13.5631C6.01099 13.5923 5.67813 13.4935 5.70456 13.4828L5.60891 13.4748C5.36393 13.4027 5.39582 13.4054 5.32891 13.3545C5.51789 13.4025 5.45958 13.4107 5.54201 13.424C5.11581 13.2851 5.99926 13.4878 5.71149 13.3862C5.8818 13.4263 6.17188 13.4956 6.29164 13.525C5.98521 13.4154 6.63458 13.5728 6.38414 13.4873C6.04352 13.4073 6.1314 13.434 5.81175 13.3298L6.02799 13.4448L5.55901 13.2765C5.55901 13.2765 5.76435 13.3647 5.70058 13.3594C5.43694 13.2793 5.51936 13.2926 5.23474 13.2367C5.74023 13.3433 4.95473 13.1163 5.30312 13.1776L6.11504 13.3938C6.48986 13.4443 5.71758 13.212 5.9353 13.2171L5.78911 13.1985C5.47491 13.1077 5.75408 13.1503 5.62887 13.1075C5.90573 13.1822 6.00683 13.2036 6.17714 13.2436C5.96949 13.1875 6.21133 13.2141 5.65761 13.0646L6.02466 13.1339C6.17862 13.1337 5.25469 12.8693 5.3581 12.8585C5.65908 12.9546 5.84261 12.9893 6.04795 13.0775C6.04795 13.0775 6.1008 13.056 5.91728 13.0214C6.08759 13.0614 5.55484 12.8877 5.8208 12.9357C5.69558 12.8929 5.41872 12.8182 5.44515 12.8074C5.4957 12.8181 5.58358 12.8448 5.58358 12.8448C5.44515 12.8074 5.41558 12.7726 5.10683 12.6952C5.97161 12.8899 5.07873 12.5505 5.81599 12.7346C5.73041 12.6757 5.65806 12.6115 5.64715 12.5847C5.73503 12.6114 5.78558 12.622 5.7537 12.6194C6.01421 12.654 4.98918 12.3683 5.28157 12.4055C5.72875 12.5202 5.51879 12.4964 5.6891 12.5364C6.58115 12.7981 5.57941 12.4561 6.10902 12.5841L6.16502 12.6082C6.47376 12.6856 5.84223 12.4584 5.91375 12.445C5.91375 12.445 5.98842 12.477 6.05218 12.4823C5.60186 12.322 5.46805 12.2203 5.3506 12.1587C5.69437 12.2843 5.53181 12.2256 5.88335 12.3324C5.84056 12.3029 5.31871 12.1561 5.21993 12.1026C5.40891 12.1506 5.59243 12.1853 5.96263 12.3001L5.97899 12.3403C6.46895 12.4845 5.96263 12.3001 6.05828 12.308L6.27138 12.3775C6.21223 12.3079 5.67948 12.1342 5.72689 12.0993L5.56979 12.0539C5.0448 11.8615 5.87853 12.1313 5.49198 11.9763L6.03794 12.1445C5.90727 12.0884 5.52848 11.9146 5.44291 11.8557C5.84268 12.0053 6.02159 12.1043 6.26426 12.2086C6.26426 12.2086 6.23699 12.1416 5.98111 12.0427C6.03711 12.0668 6.16778 12.1229 6.0799 12.0962C5.66146 11.9385 5.46933 11.8449 5.48486 11.8074C6.52393 12.1654 5.7741 11.799 6.58917 12.0608C6.21814 11.8682 6.79829 12.0069 6.74691 11.9185C5.93184 11.6567 6.736 11.8917 5.89682 11.6085C5.85403 11.579 5.86725 11.5737 5.92325 11.5977L6.43419 11.7178C6.67917 11.7899 6.60764 11.8034 6.80208 11.8648C6.8736 11.8513 7.15361 11.9716 7.37992 12.0357C7.07894 11.9396 6.96148 11.878 7.0758 11.894L6.69238 11.7845C6.2708 11.5812 7.39545 11.9982 6.98708 11.7895L7.24842 11.9018C7.10684 11.8189 7.27401 11.8133 6.62612 11.546C6.714 11.5727 6.94577 11.6502 7.00722 11.6876C7.12384 11.6714 6.35535 11.2969 6.77065 11.4091L6.97053 11.4839C6.97053 11.4839 6.59719 11.3235 6.80484 11.3795C6.89272 11.4062 7.00472 11.4544 7.02339 11.4624C6.94872 11.4303 6.68193 11.3046 6.80169 11.334L7.0257 11.4302C7.30487 11.4728 6.50764 11.1413 6.38704 11.0342C6.97348 11.2641 7.18344 11.2879 7.28454 11.3093L7.37242 11.336C7.46492 11.2983 6.92588 11.0335 6.72517 10.881C7.38313 11.0973 7.04084 10.8618 7.41335 10.9445C7.3068 10.9098 6.95212 10.7574 6.90388 10.7145C7.02365 10.7439 6.51418 10.5139 7.05008 10.7331C7.5673 10.9443 7.43894 10.856 7.46537 10.8452L6.77469 10.5484C7.81921 10.9199 6.46344 10.2378 7.39365 10.5933C7.28319 10.5237 7.17455 10.4586 7.06772 10.398L7.44106 10.5584C7.54992 10.5609 7.61368 10.5662 7.54363 10.4698L7.81043 10.5955C7.81043 10.5955 6.75647 10.0873 6.74012 10.0471L7.30013 10.2878C7.30013 10.2878 7.82428 10.4024 7.33034 10.1349C7.41046 10.1804 7.57301 10.2392 7.58392 10.266C7.61035 10.2552 7.98831 10.3513 7.23617 10.0171C7.72697 10.239 7.30225 9.99017 7.09922 9.86976L7.45934 10.0356C7.00819 9.79748 6.87752 9.74133 6.76238 9.64763C6.81293 9.65829 7.06105 9.77597 6.9545 9.74124C7.14893 9.80268 6.6208 9.56468 6.82845 9.62074L7.06336 9.74379C7.06336 9.74379 6.97233 9.67151 6.71876 9.54044C6.57718 9.45749 6.82762 9.54299 7.16362 9.68738C6.9715 9.59376 6.69926 9.45467 6.80035 9.476C6.91781 9.53752 6.99793 9.58301 7.03526 9.59905C7.29891 9.67917 6.65018 9.33408 7.01807 9.4811C7.13553 9.54263 7.20474 9.56132 7.24208 9.57736C7.2211 9.60151 7.18146 9.61765 7.16279 9.60963C7.49103 9.77279 7.56801 9.7727 8.01917 10.0108C7.7788 9.87433 7.25529 9.57198 7.41239 9.61738C7.44972 9.63342 7.47384 9.65484 7.52439 9.66551L7.56173 9.68155C7.56173 9.68155 7.56173 9.68155 7.51349 9.63871C7.56949 9.66277 7.62004 9.67344 7.62004 9.67344C7.89228 9.81253 7.77714 9.71883 7.80356 9.70808C7.43799 9.52887 7.5072 9.54756 7.20307 9.40582C7.22174 9.41384 7.24586 9.43526 7.25131 9.44866C7.25131 9.44866 7.25677 9.46206 7.28865 9.4647L7.25131 9.44866C7.25131 9.44866 7.26222 9.47546 7.26767 9.48886C7.08876 9.38987 6.94174 9.29352 7.14707 9.38176C6.91216 9.2587 6.67725 9.13565 6.57301 9.06874C7.09569 9.29334 7.3757 9.41366 7.69304 9.55002C7.51099 9.40546 7.59573 9.38659 6.94154 9.0281C6.85597 8.96921 7.14688 9.11633 7.25888 9.16446C7.32034 9.20192 7.30712 9.2073 7.40591 9.26081C7.24022 9.15644 7.36774 9.16701 6.89792 8.92091C7.12969 8.99839 7.33041 9.15097 7.27127 9.08133L7.41284 9.16428C8.20462 9.4824 6.27941 8.42295 7.27653 8.82931C7.22053 8.80524 7.18319 8.7892 7.10852 8.75712C7.58758 8.87452 6.81742 8.34458 7.53684 8.59843C7.68072 8.64921 7.39758 8.48331 7.17043 8.34148L7.56013 8.54211L7.12995 8.27987C6.82499 8.06038 8.09833 8.72915 7.52343 8.33839L7.26986 8.20731C7.26986 8.20731 7.15157 8.06804 7.44793 8.22855C7.40515 8.19911 7.18345 8.07068 7.31957 8.14023L7.51715 8.24724L7.20674 8.01435C7.36384 8.05975 7.98928 8.46117 8.05535 8.43428C7.98299 8.37002 7.49912 8.05154 7.36845 7.9954C7.36845 7.9954 7.23778 7.93925 7.04021 7.83224L6.94918 7.75995C6.36967 7.43354 5.77925 7.08033 5.34991 6.89584L5.6922 7.13138L5.40129 6.98426L5.38493 6.94406C5.1259 6.79959 5.35851 6.95482 5.50553 7.05116C5.35074 6.97359 5.2465 6.90669 5.1905 6.88262L5.73037 7.22517C5.49546 7.10211 5.28153 6.95491 5.13764 6.90413C5.38891 7.06738 5.66346 7.17431 5.8214 7.29745C5.54915 7.15835 5.33291 7.04332 5.54684 7.19053C5.39205 7.11296 5.30648 7.05408 5.23957 7.00321C5.41072 7.12098 5.29096 7.09163 5.59823 7.27894C5.25677 7.12116 5.64185 7.38613 5.09967 7.07577C5.22257 7.15069 5.51663 7.34338 5.52753 7.37018C4.87566 6.97951 5.46146 7.39707 4.75128 7.01451C5.3417 7.36772 4.97926 7.23409 5.29743 7.4482C5.25465 7.41876 5.15586 7.36525 5.19319 7.3813C5.12943 7.37601 4.95052 7.27702 4.82531 7.23427C5.31924 7.5018 5.42118 7.60088 5.72299 7.77479C5.22674 7.53944 5.14348 7.44838 4.67911 7.21567C5.08748 7.42432 5.05874 7.46725 5.39244 7.64381C5.08831 7.50207 5.2431 7.57963 4.82152 7.37637C5.44613 7.70004 4.91255 7.44865 5.29448 7.66805C4.97714 7.53169 4.70721 7.36042 4.88381 7.49158C4.67847 7.40335 4.4832 7.26416 4.4832 7.26416L4.19858 7.20819ZM4.92653 8.50497L4.91562 8.47817C4.91562 8.47817 4.92107 8.49157 4.92653 8.50497ZM4.90324 8.56129L4.92967 8.55054C5.06034 8.60669 5.18325 8.68162 5.17779 8.66822C5.09767 8.62273 5.01524 8.60942 4.90324 8.56129ZM7.48706 9.64946C7.48706 9.64946 7.46063 9.66022 7.38051 9.61473C7.38051 9.61473 7.3696 9.58794 7.35094 9.57991L7.30815 9.55047C7.30815 9.55047 7.44427 9.62002 7.48706 9.64946Z" fill="#006D2C"/>
<path d="M7.00391 9.40876L6.97979 9.38734C6.94245 9.3713 6.92379 9.36328 6.8919 9.36063L7.00936 9.42216L7.00391 9.40876Z" fill="#006D2C"/>
<path d="M4.7396 14.5937C4.7396 14.5937 4.72104 14.5857 4.68935 14.5831C4.70249 14.5777 4.72104 14.5857 4.7396 14.5937Z" fill="#006D2C"/>
<path d="M3.80541 9.11743L3.8982 9.1573L3.82397 9.1254L3.80541 9.11743Z" fill="#006D2C"/>
<path d="M3.31509 14.6891C3.31509 14.6891 3.2517 14.6839 3.22001 14.6812C3.24628 14.6706 3.2834 14.6865 3.31509 14.6891Z" fill="#006D2C"/>
<path d="M3.20247 14.8289L3.06173 14.8237C3.13871 14.8236 3.18381 14.8208 3.20247 14.8289Z" fill="#006D2C"/>
<path d="M2.98333 14.9337C2.98333 14.9337 3.1031 14.963 3.14819 14.9603L2.98333 14.9337Z" fill="#006D2C"/>
<path d="M2.89476 12.8611C2.89476 12.8611 2.89476 12.8611 2.88934 12.8478C2.81511 12.8159 2.83909 12.8372 2.89476 12.8611Z" fill="#006D2C"/>
<path d="M3.68384 13.6648C3.68384 13.6648 3.53996 13.614 3.50262 13.598C3.47619 13.6087 3.46298 13.6141 3.68384 13.6648Z" fill="#006D2C"/>
<path d="M2.59184 12.0788L2.6104 12.0868L2.59184 12.0788Z" fill="#006D2C"/>
<path d="M3.52365 13.5736C3.44171 13.5604 3.46568 13.5817 3.51593 13.5923C3.54221 13.5816 3.59246 13.5922 3.52365 13.5736Z" fill="#006D2C"/>
<path d="M2.7289 15.4433C2.7289 15.4433 2.76601 15.4592 2.77915 15.4539L2.7289 15.4433Z" fill="#006D2C"/>
<path d="M2.77944 15.454L2.82969 15.4646C2.82969 15.4646 2.82969 15.4646 2.77944 15.454Z" fill="#006D2C"/>
<path d="M2.91768 15.4911L2.81718 15.4699C2.81718 15.4699 2.80404 15.4753 2.91768 15.4911Z" fill="#006D2C"/>
<path d="M2.93156 15.2984L2.78537 15.2798C2.78537 15.2798 2.8678 15.2932 2.93156 15.2984Z" fill="#006D2C"/>
<path d="M2.89654 15.2502C2.89654 15.2502 2.58317 15.2372 2.67106 15.2639L2.78537 15.2798C2.56996 15.2425 3.13061 15.2955 2.89108 15.2368L2.89654 15.2502Z" fill="#006D2C"/>
<path d="M4.71284 15.3232L4.59622 15.3394C4.75562 15.3526 4.95236 15.3819 4.9897 15.3979C5.46247 15.4242 4.64676 15.3501 4.70738 15.3098L4.71284 15.3232Z" fill="#006D2C"/>
<path d="M4.9562 15.2397C4.9562 15.2397 5.18482 15.2717 5.26725 15.285C5.12882 15.2476 5.09694 15.2449 4.9562 15.2397Z" fill="#006D2C"/>
<path d="M5.10116 14.3843L5.455 14.4589C5.455 14.4589 5.32202 14.435 5.10116 14.3843Z" fill="#006D2C"/>
<path d="M3.27415 13.8315L3.04552 13.7996L3.38615 13.8796L3.27415 13.8315Z" fill="#006D2C"/>
<path d="M5.84594 14.2842L5.89648 14.2949L5.77127 14.2521L5.84594 14.2842Z" fill="#006D2C"/>
<path d="M6.04862 12.8898L5.61466 12.7697C5.61466 12.7697 6.17929 12.946 6.04862 12.8898Z" fill="#006D2C"/>
<path d="M5.78603 12.169C5.99913 12.2385 6.14532 12.2571 5.94544 12.1822C5.91901 12.193 5.74324 12.1396 5.78603 12.169Z" fill="#006D2C"/>
<path d="M7.08426 10.7035L7.22038 10.7731L7.11068 10.6928L7.08426 10.7035Z" fill="#006D2C"/>
<path d="M9.07869 20.4495C9.19614 20.511 9.44427 20.6287 9.39603 20.5858L8.969 20.3692L9.07869 20.4495Z" fill="#006D2C"/>
<path d="M9.92546 20.714C9.72243 20.5935 9.36461 20.3956 8.9726 20.2271C9.37321 20.4545 9.20751 20.3502 9.68824 20.6231C9.73648 20.6659 9.53659 20.5911 9.3818 20.5135C9.48605 20.5804 9.28071 20.4922 9.53974 20.6367C9.88896 20.7757 9.90993 20.7515 9.64545 20.5936C9.73879 20.6337 9.85624 20.6953 9.93091 20.7274L9.92546 20.714Z" fill="#006D2C"/>
<path d="M11.3537 19.4921L11.298 19.4682C11.298 19.4682 11.3482 19.4788 11.3537 19.4921Z" fill="#006D2C"/>
<path d="M12.0727 18.6845C12.0727 18.6845 12.1207 18.7271 12.1578 18.743C12.1469 18.7164 12.1098 18.7004 12.0727 18.6845Z" fill="#006D2C"/>
<path d="M12.6231 18.7888C12.6231 18.7888 12.6096 18.7943 12.5905 18.7861C12.6287 18.8025 12.6477 18.8107 12.6231 18.7888Z" fill="#006D2C"/>
<path d="M11.3538 19.4924L11.4976 19.5431C11.3615 19.4736 11.3911 19.5084 11.3538 19.4924Z" fill="#006D2C"/>
<path d="M8.98886 20.0019C8.98886 20.0019 9.05031 20.0393 9.0931 20.0688C9.08765 20.0554 9.06898 20.0473 9.05031 20.0393L8.98886 20.0019Z" fill="#006D2C"/>
<path d="M11.4717 20.0848C11.4717 20.0848 11.5759 20.1517 11.6374 20.1891L11.4717 20.0848Z" fill="#006D2C"/>
<path d="M11.3826 20.4335C11.3826 20.4335 11.0434 20.2435 10.8886 20.1659C11.0302 20.2489 11.1049 20.281 11.129 20.3024C11.2037 20.3345 11.2838 20.38 11.3826 20.4335Z" fill="#006D2C"/>
<path d="M10.4957 20.6381L10.5382 20.6674C10.5382 20.6674 10.5143 20.6461 10.4957 20.6381Z" fill="#006D2C"/>
<path d="M11.6714 19.8942C11.6714 19.8942 11.7702 19.9477 11.8075 19.9638L11.6714 19.8942Z" fill="#006D2C"/>
<path d="M15.1165 9.69941C15.1165 9.69941 15.1459 9.73403 15.1699 9.75532C15.1405 9.72071 15.1165 9.69941 15.1165 9.69941Z" fill="#006D2C"/>
<path d="M16.8611 10.7699L16.872 10.7967L17.0409 10.9467L16.8611 10.7699Z" fill="#006D2C"/>
<path d="M14.5535 16.1133C14.233 15.9313 14.2103 15.8 13.8525 15.602C13.9809 15.6903 14.3427 16.0116 14.5535 16.1133Z" fill="#006D2C"/>
<path d="M13.8395 15.608L13.8149 15.5861L13.8395 15.608Z" fill="#006D2C"/>
<path d="M13.3978 18.0047C13.3978 18.0047 13.2935 17.9378 13.2375 17.9137C13.2749 17.9298 13.3177 17.9592 13.3978 18.0047Z" fill="#006D2C"/>
<path d="M13.0522 17.4578C13.0522 17.4578 13.1264 17.4897 13.0785 17.4471C13.0731 17.4338 13.0414 17.4312 13.036 17.4179C13.0785 17.4471 13.1025 17.4684 13.0468 17.4445L13.0522 17.4578Z" fill="#006D2C"/>
<path d="M13.2243 17.2003C13.2243 17.2003 13.1818 17.171 13.1501 17.1684L13.1609 17.195L13.2297 17.2136L13.2243 17.2003Z" fill="#006D2C"/>
<path d="M14.592 10.5688C14.6831 10.6411 14.7796 10.7267 14.8706 10.799C14.6535 10.6062 14.6099 10.4991 14.592 10.5688Z" fill="#006D2C"/>
<path d="M9.19434 20.0901C9.101 20.05 9.05821 20.0205 9.03955 20.0125C9.03955 20.0125 9.03955 20.0125 9.05045 20.0393C9.10645 20.0634 9.16245 20.0874 9.18657 20.1088L9.19434 20.0901Z" fill="#006D2C"/>
<path d="M13.1386 12.4095L13.1223 12.3695C13.1223 12.3695 13.1092 12.3749 13.1386 12.4095Z" fill="#006D2C"/>
<path d="M10.481 15.5683C10.604 15.6432 10.6786 15.6753 10.7346 15.6994C10.7105 15.678 10.6918 15.67 10.649 15.6405L10.4865 15.5817L10.481 15.5683Z" fill="#006D2C"/>
<path d="M14.3965 9.89875C14.3965 9.89875 14.7614 10.2656 14.9894 10.4852C15.0494 10.6326 14.6735 10.2389 14.4674 10.0729C14.5483 10.1962 14.8891 10.5416 14.8627 10.5524C14.7958 10.5015 14.7717 10.4801 14.6939 10.4024C14.9787 10.7238 14.6286 10.5071 14.999 10.8874C14.9562 10.8579 14.9267 10.8231 14.9025 10.8017C15.101 10.9864 15.3071 11.1524 15.4518 11.2809C15.4441 11.2997 15.6775 11.5327 15.4122 11.2971C15.4254 11.2917 15.3235 11.1926 15.2511 11.1283L15.3453 11.2462C14.9516 10.9223 15.2402 11.1016 14.9562 10.8579C15.0426 10.9945 15.3275 11.3159 15.1913 11.2464C14.8163 10.9305 15.1205 11.0722 14.7727 10.8233L14.9462 10.9089C14.3463 10.4189 15.0099 10.9141 14.3673 10.3948C14.2102 10.3494 14.5051 10.6198 14.348 10.5744C14.5464 10.7592 14.6429 10.8449 14.8413 11.0296C15.1401 11.4234 13.8696 10.2693 14.3155 10.7595C14.5489 10.9924 15.0072 11.3994 14.724 11.2335L14.3217 10.8506C14.237 10.8695 14.8983 11.3969 14.5646 11.2203C14.409 11.065 14.4673 11.0569 14.4058 11.0194C14.0394 10.7625 14.6206 11.2444 14.6051 11.2819L14.2301 10.966C14.2418 11.0705 14.452 11.3599 14.4746 11.4912C14.3727 11.3921 14.2653 11.2796 14.1369 11.1913C14.2483 11.4271 13.9551 11.3122 13.6673 11.2106L13.9599 11.5132C13.9599 11.5132 13.8074 11.4035 13.7483 11.3339C13.5935 11.2563 13.9599 11.5132 14.0673 11.6257C14.0836 11.6659 13.8588 11.4919 13.7755 11.4009C13.9989 11.6848 14.2418 12.0545 13.8489 11.8083L13.7656 11.7172C13.5976 11.645 14.3959 12.3197 14.0645 12.111L14.0108 12.0548C13.8009 12.0309 14.0064 12.3845 13.4533 12.0474C13.9116 12.4544 13.1764 11.9726 13.8245 12.5054C13.4613 12.294 13.3539 12.1815 13.0661 12.08C13.021 12.0827 13.4575 12.4361 13.5089 12.5245L13.1634 12.2434L13.4988 12.5755L13.0655 12.2677L13.1355 12.3641C13.1355 12.3641 13.3012 12.4685 13.4109 12.5488C13.5401 12.7148 13.0913 12.4446 12.9279 12.308L13.1489 12.6241C13.0097 12.509 12.9746 12.4608 12.8914 12.3697C13.2081 12.6938 12.514 12.086 12.8121 12.402C12.8977 12.4609 13.0183 12.568 13.0852 12.6189C12.858 12.477 12.8161 12.5253 12.8729 12.6272L12.6371 12.4263C12.5205 12.4426 12.6529 12.6542 12.5899 12.7267C12.7206 12.7828 13.1329 13.1148 13.1548 13.1684L12.7774 12.8846C12.9945 13.0774 12.9377 12.9756 13.1898 13.2166C13.126 13.2113 12.7565 12.9088 12.6491 12.7963L12.7487 12.9276C12.6336 12.8339 12.5853 12.791 12.446 12.6759C12.6631 12.8687 12.0268 12.4405 12.4127 12.7832L12.303 12.7029C12.2401 12.7753 12.3397 12.9066 12.3219 12.9763C12.6377 13.2226 12.5498 13.1959 12.8043 13.4047C12.6658 13.3674 12.3804 13.2336 12.3625 13.3034C12.5049 13.4641 12.6356 13.5202 12.8099 13.6836C12.5049 13.4641 12.5058 13.5418 12.3074 13.3571C12.3004 13.4536 12.3113 13.4804 12.4919 13.7349C12.6203 13.8232 12.6763 13.8473 12.786 13.9276C12.821 13.9758 12.6366 13.8634 12.5028 13.7617L12.4919 13.7349C12.8654 14.1607 11.4575 13.3125 12.0286 13.8453L12.0177 13.8185L12.2706 14.1373C12.1936 14.1374 12.059 13.9579 11.8614 13.8509C12.3041 14.2954 11.6896 13.9208 11.9876 14.2368C11.0604 13.6615 11.9264 14.4648 11.3018 14.1411L11.5157 14.2883C11.7032 14.4463 11.385 14.2322 11.329 14.2081C11.4947 14.3125 11.5266 14.3151 11.6418 14.4088C11.7781 14.7438 11.1201 14.5274 10.8099 14.5599C10.7119 14.5842 11.8827 15.3415 11.325 15.0687L10.9477 14.785C11.3399 15.2188 10.7698 15.0291 11.0951 15.4122C11.0041 15.3399 10.8811 15.2649 10.8944 15.2596C10.598 15.0991 10.8237 15.3508 11.0563 15.506C11.0166 15.5222 10.8478 15.3722 10.7117 15.3027C10.525 15.2225 11.0361 15.6079 10.7475 15.4286C10.7047 15.3992 10.6565 15.3564 10.6378 15.3483C10.7716 15.4501 10.5508 15.3994 10.8954 15.6027C10.701 15.5413 10.9849 15.7849 10.7609 15.6887C11.1141 15.951 10.5323 15.6568 11.0535 15.9913C10.5082 15.6354 10.555 15.7881 10.8039 15.9836C10.646 15.8604 10.6172 15.9033 10.3979 15.7427C10.3823 15.7803 10.4656 15.8713 10.7542 16.0506C10.0549 15.6949 11.2156 16.5032 10.3529 16.0109C10.5895 16.2894 10.7405 16.5091 10.8246 16.6779C10.2715 16.3408 10.8339 16.5492 10.2434 16.196C10.4263 16.4183 10.8706 16.7529 10.6847 16.7505C10.5968 16.7238 10.4521 16.5952 10.3611 16.523C10.544 16.7453 10.2166 16.6599 10.4741 16.9143C10.4181 16.8902 10.3699 16.8474 10.3349 16.7991C10.3458 16.8259 10.2338 16.7778 10.485 16.9411L10.4313 16.8848C10.821 17.0854 11.1642 17.3987 11.354 17.5245C10.643 17.0642 11.1254 17.4926 10.2377 16.9011C10.286 16.944 10.3957 17.0243 10.5614 17.1286C10.5108 17.118 10.3934 17.0565 10.2168 16.9253C10.3164 17.0565 10.6073 17.2037 10.5786 17.2466C10.4556 17.1717 10.4129 17.1422 10.2658 17.0459C10.4907 17.2199 10.7233 17.3751 10.5903 17.3511C10.5102 17.3057 10.4114 17.2522 10.4246 17.2468C10.4177 17.3433 10.9926 17.7341 10.7212 17.6727C10.2 17.3382 10.5345 17.5925 10.0592 17.333L10.172 17.4589L10.4015 17.5685C10.4015 17.5685 10.6909 17.8256 10.5284 17.7668L10.3518 17.6356L10.4009 17.7562L10.5953 17.8176C10.8201 17.9916 11.1935 18.1521 11.0286 18.1255C10.9858 18.096 11.0076 18.1496 10.7222 18.0159C10.856 18.1176 11.0085 18.2274 10.8833 18.1846C10.7417 18.1017 10.3652 17.8957 10.2664 17.8421C10.6406 18.0803 10.3264 17.9895 10.7379 18.2438C10.6391 18.1903 10.3933 18.0404 10.3505 18.011L10.6578 18.1983C10.5458 18.1501 10.4952 18.1395 10.3054 18.0137C10.2207 18.0326 10.9113 18.3293 10.6158 18.2466C10.5917 18.2252 10.5489 18.1957 10.5061 18.1663C10.3467 18.1531 10.6439 18.3913 10.4604 18.3567C9.97735 18.116 10.3717 18.2522 9.96331 18.0436C10.0124 18.1642 10.4356 18.5229 10.2871 18.5365L10.3377 18.5472C10.9973 18.9191 9.98069 18.427 10.2802 18.633C10.232 18.5902 9.91692 18.4217 9.99159 18.4538C9.85085 18.4486 10.0998 18.644 10.2718 18.8395L10.1061 18.7351C9.93033 18.6817 9.98171 18.7701 9.88607 18.7622C10.0518 18.8666 10.0199 18.8639 10.2735 18.995C9.23901 18.5726 10.6952 19.4637 9.83423 19.1269C9.83423 19.1269 9.70042 19.0252 9.68721 19.0305L9.8164 19.1966C10.1073 19.3437 10.0031 19.2768 10.2325 19.3865C10.3982 19.4908 10.5266 19.5792 10.5188 19.5979C10.3422 19.4668 10.049 19.3518 9.86779 19.285C9.96112 19.3251 10.0599 19.3786 10.1455 19.4375C9.60414 19.2049 10.7328 19.7451 10.3571 19.6169L10.2023 19.5393C10.2747 19.6036 10.4645 19.7294 10.4139 19.7187C10.067 19.5475 10.2615 19.609 9.98922 19.4699C10.0056 19.5101 10.6092 19.8579 10.2468 19.7243C10.1612 19.6654 10.169 19.6466 10.0779 19.5743C9.66726 19.3979 9.76604 19.4514 9.68907 19.4515L9.48687 19.4088L9.59888 19.4569C10.4748 19.9438 9.72807 19.623 10.2866 19.9736C9.75219 19.6444 9.97157 19.805 9.58188 19.6044C9.46987 19.5563 9.33144 19.5189 9.23265 19.4654C9.53992 19.6527 8.969 19.3853 9.39918 19.6475C9.26851 19.5914 9.37275 19.6583 9.06317 19.5031C9.14098 19.5808 9.28718 19.5994 9.44742 19.6903C9.84572 19.9499 8.86727 19.5516 9.41804 19.921C9.62966 20.1003 10.0435 20.3224 10.231 20.4803C10.0124 20.3975 9.77983 20.2423 9.77983 20.2423C9.5854 20.1808 9.60176 20.221 9.73557 20.3227C9.63133 20.2558 9.52478 20.2211 9.39411 20.165C9.41047 20.2052 9.84527 20.403 9.65083 20.3416C9.51471 20.2721 9.29301 20.1436 9.15689 20.0741C9.26659 20.1544 9.48052 20.3016 9.577 20.3873C9.35299 20.291 9.25651 20.2053 9.11494 20.1224C9.19275 20.2 9.26825 20.3099 9.61516 20.4811L9.7536 20.5184C9.7536 20.5184 9.44947 20.3767 9.38802 20.3392C9.12354 20.1814 9.53421 20.3578 9.65166 20.4194L9.72402 20.4836C10.4762 20.8179 9.65083 20.3416 9.70369 20.3201L10.235 20.6037L9.80479 20.3414C9.95412 20.4056 10.2528 20.5339 10.3252 20.5982C10.6129 20.6997 10.154 20.4804 10.4472 20.5954C10.4978 20.606 10.5219 20.6275 10.5406 20.6355L10.3881 20.5257C10.5055 20.5873 10.7723 20.713 10.6844 20.6863C11.0173 20.7851 10.3258 20.4105 10.7365 20.587L10.7474 20.6138C10.6182 20.4477 10.3709 20.4078 9.94303 20.1134L10.9246 20.5573L10.5349 20.3567C10.5349 20.3567 10.5932 20.3485 10.7535 20.4395C10.5022 20.2763 10.58 20.3539 10.3397 20.2175C10.7208 20.3591 10.2182 20.0326 10.8506 20.3375C10.5542 20.177 10.6002 20.252 10.4181 20.1075C11.0933 20.4418 10.3294 20.003 10.6413 20.126C10.9804 20.3159 10.786 20.2545 11.1111 20.3721C10.537 20.0591 11.2651 20.3719 11.1686 20.2862C10.7042 20.0535 10.9997 20.1363 10.8682 20.0024C11.023 20.0799 11.1661 20.053 11.3496 20.0876L11.4297 20.1331C10.9599 19.887 11.0688 19.8895 10.9855 19.7985C11.2632 19.951 11.3807 20.0125 11.4903 20.0928L11.5059 20.0552C11.3643 19.9723 11.2842 19.9268 11.2437 19.8652L11.5828 20.0552C11.5828 20.0552 11.2133 19.7526 11.4637 19.8381C11.1432 19.6562 10.5327 19.4049 10.3397 19.2335C10.5132 19.3191 10.8228 19.4743 10.8764 19.5305C10.8655 19.5037 10.7426 19.4288 10.8173 19.4609L11.1059 19.6402C11.2498 19.6909 10.8655 19.5037 10.9052 19.4876C11.1588 19.6186 11.0786 19.5732 11.2894 19.6748C11.3003 19.7016 11.1829 19.6401 11.263 19.6855C11.3268 19.6908 11.4839 19.7362 11.676 19.8298C11.5399 19.7603 11.3423 19.6533 11.3127 19.6185C11.3096 19.5729 11.6168 19.7602 11.7607 19.811C11.595 19.7066 11.7817 19.7868 11.4052 19.5808C11.4052 19.5808 11.5919 19.661 11.6907 19.7145C11.5382 19.6048 11.6867 19.5912 11.2892 19.4094L11.2628 19.4201L11.2519 19.3933C10.9119 19.1256 11.5357 19.3715 11.412 19.2189L11.5349 19.2938C11.4088 19.1733 11.4803 19.1598 11.2423 18.9912C11.2423 18.9912 11.485 19.0955 11.6265 19.1784C11.5487 19.1007 11.4071 19.0178 11.6335 19.0819C11.8342 19.2345 11.8256 19.1755 11.7727 19.197C11.9057 19.221 12.1033 19.328 11.7929 19.0951C12.1001 19.2824 12.209 19.285 12.1234 19.2261L11.8808 19.1218C11.8808 19.1218 11.8776 19.0762 11.9227 19.0735L12.3288 19.3143C12.8779 19.5282 11.5336 18.6852 12.4274 19.1024C12.152 18.9177 12.1956 19.0249 11.8642 18.8162C11.9412 18.8161 12.5681 19.1076 12.5681 19.1076C12.8185 19.1931 11.98 18.7222 12.1767 18.7515C12.0219 18.6739 11.6268 18.4599 11.514 18.334C11.5909 18.3339 12.165 18.6469 12.2615 18.7326C12.2669 18.746 12.2109 18.7219 12.1681 18.6925C12.2164 18.7353 12.2701 18.7916 12.4381 18.8638L12.291 18.7674C12.459 18.8396 12.4637 18.7753 12.6963 18.9305C12.5757 18.8234 12.4637 18.7753 12.3758 18.7486C12.6076 18.826 12.4255 18.6815 12.5958 18.7215C12.5025 18.6814 12.329 18.5958 12.3368 18.577C12.5522 18.6143 12.0746 18.387 12.0364 18.2932C12.2791 18.3975 12.5709 18.6223 12.4098 18.4536C12.5723 18.5124 12.8104 18.681 12.9201 18.7613C12.6657 18.5525 13.1487 18.7932 13.2125 18.7985L13.3144 18.8976C13.2475 18.8467 13.2553 18.828 13.2685 18.8226L12.9721 18.6621C12.9721 18.6621 13.0359 18.6674 13.1588 18.7423C12.969 18.6165 12.6594 18.4614 12.4159 18.2793C12.5707 18.3569 12.2921 18.1267 12.6795 18.3595C12.5147 18.3328 13.0801 18.5869 13.1128 18.6673C13.0701 18.6378 13.091 18.6137 13.1338 18.6431C13.1766 18.6726 13.2139 18.6886 13.2381 18.71C13.6114 18.8704 12.8156 18.429 12.8576 18.3807C13.0661 18.5145 13.2769 18.6161 13.2473 18.5813C13.2209 18.5921 12.8708 18.3753 12.7129 18.2522C12.9073 18.3136 12.6055 18.1397 12.6319 18.1289L12.544 18.1022C12.3356 17.9684 12.3674 17.9711 12.3083 17.9014C12.474 18.0058 12.4102 18.0005 12.4981 18.0272C12.1317 17.7703 12.9275 18.2117 12.6917 18.0109C12.8465 18.0885 13.1032 18.2651 13.2098 18.2999C12.9554 18.091 13.5403 18.4308 13.3287 18.2515C13.0323 18.0909 13.0938 18.1284 12.8262 17.925L12.9849 18.1258L12.5835 17.8207C12.5835 17.8207 12.7391 17.976 12.6886 17.9653C12.4637 17.7913 12.5306 17.8422 12.2903 17.7057C12.7414 17.9438 12.0623 17.4862 12.3851 17.6359L13.1039 18.0774C13.4585 18.2299 12.7872 17.7534 13.008 17.8041L12.8641 17.7533C12.5888 17.5687 12.8369 17.6863 12.7536 17.5953C12.9994 17.7451 13.0928 17.7852 13.253 17.8762C13.0687 17.7638 13.3004 17.8413 12.822 17.5362L13.1557 17.7128C13.3206 17.7394 12.5108 17.2256 12.6142 17.2147C12.8709 17.3914 13.0443 17.477 13.2132 17.6269C13.2264 17.6215 13.2715 17.6188 13.1058 17.5144C13.266 17.6054 12.8164 17.2574 13.0567 17.3938C12.9525 17.3269 12.7012 17.1637 12.7409 17.1476C12.7836 17.177 12.8638 17.2225 12.8638 17.2225C12.7409 17.1475 12.719 17.094 12.4414 16.9415C13.2262 17.3561 12.4871 16.7511 13.1599 17.1176C13.1086 17.0292 13.0517 16.9273 13.0672 16.8898C13.1342 16.9407 13.1902 16.9647 13.1583 16.9621C13.4142 17.061 12.4869 16.4856 12.7747 16.5872C13.1753 16.8146 12.9622 16.7451 13.1224 16.8361C13.9135 17.3419 13.0679 16.7021 13.5432 16.9616L13.5914 17.0045C13.8691 17.157 13.3338 16.7501 13.4186 16.7312C13.4186 16.7312 13.4855 16.7821 13.5415 16.8061C13.1587 16.509 13.0723 16.3723 12.9914 16.2491C13.2831 16.474 13.1361 16.3776 13.4488 16.5783C13.427 16.5247 12.9463 16.2518 12.8894 16.15C13.0683 16.249 13.2363 16.3212 13.5545 16.5353L13.5444 16.5863C13.9801 16.8619 13.5677 16.5299 13.6424 16.562L13.8322 16.6878C13.794 16.594 13.3421 16.2782 13.4159 16.2325L13.2743 16.1496C12.8246 15.8016 13.552 16.3021 13.2252 16.029L13.7037 16.3341C13.6017 16.235 13.3014 15.9511 13.2446 15.8493C13.5791 16.1036 13.7269 16.2777 13.9199 16.4491C13.9463 16.4383 13.9268 16.3526 13.702 16.1786C13.7502 16.2214 13.8467 16.3071 13.7666 16.2616C13.4212 15.9805 13.2523 15.8306 13.2943 15.7823C14.1982 16.4139 13.5921 15.8328 14.3163 16.2878C14.037 15.9798 14.5573 16.2366 14.572 16.1213C13.8424 15.6529 14.5557 16.0811 13.8415 15.5752C13.8197 15.5216 13.8197 15.5216 13.8812 15.559L14.351 15.8051C14.5727 15.9336 14.4957 15.9337 14.6536 16.0568C14.7438 16.0513 14.9664 16.2575 15.1771 16.3592C14.9204 16.1825 14.8185 16.0834 14.9305 16.1316L14.5727 15.9336C14.2373 15.6015 15.2059 16.3162 14.8705 15.9842L15.0821 16.1636C14.9693 16.0377 15.1606 16.0535 14.609 15.6064C14.6946 15.6653 14.903 15.7991 14.9381 15.8474C15.0734 15.8392 14.4431 15.2367 14.846 15.4319L15.0094 15.5684C15.0094 15.5684 14.7013 15.3034 14.8857 15.4158C14.9526 15.4666 15.049 15.5523 15.0623 15.5469C15.0086 15.4907 14.786 15.2845 14.9035 15.346L15.091 15.504C15.3601 15.5975 14.7011 15.038 14.6279 14.8959C15.139 15.2814 15.3335 15.3429 15.44 15.3776L15.5069 15.4284C15.6313 15.3935 15.1995 14.9757 15.0562 14.7373C15.6389 15.1093 15.4015 14.7529 15.7748 14.9134C15.676 14.8599 15.3866 14.6028 15.3516 14.5546C15.469 14.6161 15.0349 14.2306 15.49 14.592C15.9397 14.94 15.8401 14.8087 15.8797 14.7926L15.2853 14.3161C16.2103 14.9236 15.1186 13.8685 15.9238 14.4467C15.7923 14.3128 15.8132 14.2886 15.6817 14.1547L16.0031 14.4144C16.1174 14.4304 16.1811 14.4357 16.1507 14.3231L16.3678 14.5159C16.3678 14.5159 15.494 13.7314 15.4909 13.6858L15.9702 14.0686C15.9702 14.0686 16.4742 14.2852 16.0929 13.8781C16.1598 13.929 16.299 14.0441 16.3099 14.0709C16.3496 14.0548 16.7152 14.234 16.0671 13.7012C16.4849 14.0466 16.1596 13.6636 15.9985 13.4948L16.3066 13.7599C15.9285 13.3984 15.832 13.3127 15.7456 13.1761C15.7884 13.2055 15.9945 13.3715 15.9144 13.326C16.0988 13.4384 15.6382 13.0636 15.8435 13.1518L16.0233 13.3286C16.0233 13.3286 15.9664 13.2268 15.7439 13.0206C15.6311 12.8947 15.8714 13.0312 16.15 13.2614C15.9811 13.1115 15.7718 12.8999 15.8706 12.9534C15.9803 13.0337 16.0394 13.1034 16.069 13.1382C16.3226 13.2693 15.7756 12.7578 16.1124 12.9799C16.2221 13.0602 16.2704 13.1031 16.2999 13.1379C16.2525 13.1728 16.2129 13.189 16.1942 13.1809C16.4782 13.4246 16.5552 13.4245 16.9201 13.7914C16.7295 13.5878 16.3054 13.1513 16.4734 13.2235C16.4975 13.2449 16.5216 13.2663 16.5699 13.3092L16.5862 13.3494C16.5862 13.3494 16.6127 13.3386 16.559 13.2824C16.615 13.3064 16.6578 13.3359 16.671 13.3305C16.9067 13.5313 16.8258 13.4081 16.8522 13.3973C16.5441 13.1323 16.6133 13.1509 16.3457 12.9475C16.3698 12.9689 16.3752 12.9823 16.3729 13.0145C16.3729 13.0145 16.3784 13.0279 16.3893 13.0547L16.3784 13.0279C16.3784 13.0279 16.3629 13.0654 16.3551 13.0842C16.2182 12.9369 16.0921 12.8164 16.2819 12.9422C16.1022 12.7655 15.9038 12.5807 15.8073 12.495C16.257 12.843 16.5214 13.0009 16.7813 13.2231C16.6544 13.0249 16.771 13.0087 16.2264 12.4651C16.1618 12.382 16.403 12.5962 16.494 12.6685C16.5477 12.7247 16.5213 12.7355 16.6123 12.8078C16.4885 12.6551 16.6215 12.6791 16.2379 12.3042C16.4409 12.4246 16.5787 12.6496 16.567 12.5451L16.6744 12.6576C17.3908 13.1313 15.8082 11.5888 16.7122 12.2205C16.6507 12.183 16.6266 12.1616 16.5597 12.1108C17.0264 12.3113 16.4527 11.5452 17.1155 11.9627C17.2516 12.0322 17.0182 11.7992 16.8462 11.6037L17.1652 11.8956L16.8267 11.5179C16.6111 11.2152 17.6778 12.1711 17.242 11.6301L17.0249 11.4373C17.0249 11.4373 16.9618 11.2443 17.2139 11.4853C17.1844 11.4505 16.9992 11.2604 17.1198 11.3675L17.2886 11.5174L17.0621 11.1879C17.2169 11.2655 17.7032 11.8172 17.8012 11.793C17.7685 11.7126 17.384 11.2599 17.2689 11.1662C17.2557 11.1716 17.146 11.0913 16.9772 10.9413L16.9335 10.8342C16.4348 10.3656 15.957 9.8728 15.5719 9.60782L15.8303 9.93997L15.5891 9.72577L15.5992 9.67482C15.3635 9.47401 15.5409 9.68293 15.6592 9.8222C15.5331 9.7017 15.4421 9.62942 15.3806 9.59196L15.8079 10.074C15.6149 9.90269 15.4507 9.6884 15.3146 9.61885C15.5161 9.84918 15.7542 10.0178 15.8647 10.1759C15.629 9.97506 15.4547 9.81172 15.6267 10.0072C15.5006 9.88673 15.4228 9.80907 15.3823 9.74746C15.5115 9.91353 15.3995 9.8654 15.6516 10.1064C15.3544 9.86814 15.661 10.2431 15.2051 9.80397C15.3125 9.91645 15.5436 10.1816 15.5413 10.2138C15.023 9.6594 15.4488 10.2514 14.8613 9.67836C15.3391 10.1711 14.9999 9.98116 15.242 10.2731C15.2124 10.2383 15.1291 10.1472 15.1532 10.1686C15.084 10.15 14.9393 10.0214 14.8164 9.94652C15.2241 10.3428 15.2864 10.458 15.5307 10.7178C15.0997 10.3778 15.0639 10.2519 14.6593 9.90112C15.0024 10.2144 14.9473 10.2681 15.2312 10.5117C14.9636 10.3083 15.0897 10.4288 14.7465 10.1155C15.264 10.5921 14.8166 10.2119 15.1146 10.528C14.8338 10.3299 14.6136 10.0915 14.7482 10.271C14.5716 10.1398 14.4128 9.93894 14.4128 9.93894L14.3965 9.89875ZM14.5447 11.5876L14.5338 11.5608C14.5338 11.5608 14.5392 11.5742 14.5501 11.601L14.5447 11.5876ZM14.4817 11.6601C14.4817 11.6601 14.5082 11.6493 14.5214 11.644C14.6365 11.7377 14.733 11.8233 14.7198 11.8287C14.6474 11.7645 14.5728 11.7324 14.4817 11.6601ZM16.7402 13.3492C16.7402 13.3492 16.7138 13.36 16.6414 13.2957C16.6414 13.2957 16.6305 13.2689 16.6196 13.2421L16.6032 13.2019C16.6032 13.2019 16.6919 13.3064 16.7402 13.3492Z" fill="#006D2C"/>
<path d="M16.3621 12.9877L16.3512 12.9609C16.3271 12.9395 16.303 12.9181 16.2843 12.9101L16.3808 12.9957L16.3621 12.9877Z" fill="#006D2C"/>
<path d="M11.2846 19.4734C11.2846 19.4734 11.2606 19.4521 11.242 19.4442C11.2475 19.4575 11.2792 19.4601 11.2792 19.4601L11.2846 19.4734Z" fill="#006D2C"/>
<path d="M13.057 12.2085L13.129 12.2724L13.0702 12.2032L13.057 12.2085Z" fill="#006D2C"/>
<path d="M9.82251 19.2873L9.72973 19.2474C9.72973 19.2474 9.7854 19.2714 9.82251 19.2873Z" fill="#006D2C"/>
<path d="M9.63843 19.4407L9.5 19.4034C9.5 19.4034 9.61976 19.4327 9.63843 19.4407Z" fill="#006D2C"/>
<path d="M9.38964 19.5108C9.38964 19.5108 9.5071 19.5723 9.54443 19.5884L9.38964 19.5108Z" fill="#006D2C"/>
<path d="M10.2896 16.8016C10.2896 16.8016 10.2896 16.8016 10.2841 16.7883C10.2308 16.7324 10.2416 16.759 10.2896 16.8016Z" fill="#006D2C"/>
<path d="M10.7035 18.0079C10.7035 18.0079 10.5884 17.9142 10.5456 17.8847C10.5137 17.8821 10.5059 17.9008 10.7035 18.0079Z" fill="#006D2C"/>
<path d="M10.5666 17.8605C10.5666 17.8605 10.5032 17.8553 10.5458 17.8846C10.5721 17.8739 10.6146 17.9031 10.5666 17.8605Z" fill="#006D2C"/>
<path d="M8.89731 20.1173C8.89731 20.1173 8.92671 20.1519 8.93984 20.1465L8.89731 20.1173Z" fill="#006D2C"/>
<path d="M8.92685 20.152L8.96939 20.1813C8.96939 20.1813 8.96939 20.1813 8.92685 20.152Z" fill="#006D2C"/>
<path d="M9.05498 20.24L8.96991 20.1814C8.96991 20.1814 8.95678 20.1868 9.05498 20.24Z" fill="#006D2C"/>
<path d="M9.15617 19.9964L9.02005 19.9268C9.02005 19.9268 9.09472 19.9589 9.15617 19.9964Z" fill="#006D2C"/>
<path d="M9.14968 19.9052C9.14968 19.9052 8.84869 19.8091 8.92105 19.8733L9.01984 19.9268C8.82227 19.8198 9.35816 20.039 9.13646 19.9106L9.14968 19.9052Z" fill="#006D2C"/>
<path d="M10.8943 20.4447L10.7722 20.4475C10.9215 20.5117 11.1082 20.5919 11.1378 20.6267C11.5826 20.7736 10.8204 20.4903 10.9075 20.4393L10.8943 20.4447Z" fill="#006D2C"/>
<path d="M11.1802 20.3907C11.2339 20.447 11.3778 20.4977 11.4525 20.5298C11.3296 20.4549 11.3054 20.4335 11.1802 20.3907Z" fill="#006D2C"/>
<path d="M11.7417 19.2721L12.0622 19.454C12.0622 19.454 11.9393 19.3791 11.7417 19.2721Z" fill="#006D2C"/>
<path d="M10.2005 18.1345L9.99517 18.0462L10.2838 18.2255L10.2005 18.1345Z" fill="#006D2C"/>
<path d="M12.5541 19.3006L12.5969 19.3301L12.495 19.231L12.5541 19.3006Z" fill="#006D2C"/>
<path d="M13.4897 17.4362L13.1024 17.2034C13.156 17.2596 13.5917 17.5353 13.4897 17.4362Z" fill="#006D2C"/>
<path d="M13.5878 16.428C13.7776 16.5538 13.9215 16.6046 13.7449 16.4734C13.713 16.4708 13.5582 16.3932 13.5878 16.428Z" fill="#006D2C"/>
<path d="M15.7535 14.6721L15.8555 14.7712L15.7854 14.6748L15.7535 14.6721Z" fill="#006D2C"/>
<path d="M10.8153 29.6757C10.8644 29.7963 10.968 30.0508 10.9726 29.9865L10.8191 29.5336L10.8285 29.6703L10.8153 29.6757Z" fill="#006D2C"/>
<path d="M11.3463 30.4122C11.2987 30.1817 11.1725 29.7958 10.9902 29.3858C11.1251 29.8307 11.0542 29.6565 11.2163 30.1684C11.2117 30.2328 11.1034 30.0425 11.0512 29.8764C11.0948 29.9835 10.9734 29.7987 11.0747 30.0855C11.2561 30.4177 11.3012 30.415 11.2341 30.0987C11.2723 30.1925 11.3213 30.3131 11.3541 30.3934L11.3463 30.4122Z" fill="#006D2C"/>
<path d="M16.2209 29.5219C16.2209 29.5219 16.2295 29.5809 16.2459 29.6211C16.235 29.5943 16.2505 29.5567 16.2209 29.5219Z" fill="#006D2C"/>
<path d="M16.7079 29.8858C16.7079 29.8858 16.697 29.8591 16.6839 29.8645C16.7001 29.9044 16.7241 29.9257 16.7079 29.8858Z" fill="#006D2C"/>
<path d="M14.4049 29.9798L14.4991 30.0976C14.4391 29.9502 14.4291 30.0012 14.4049 29.9798Z" fill="#006D2C"/>
<path d="M11.2932 29.1844C11.2932 29.1844 11.3073 29.2568 11.3159 29.3158C11.3104 29.3024 11.3127 29.2702 11.3205 29.2514C11.3096 29.2246 11.3041 29.2112 11.2932 29.1844Z" fill="#006D2C"/>
<path d="M13.7855 30.6534C13.7855 30.6534 13.8027 30.7714 13.8299 30.8384L13.78 30.64L13.7855 30.6534Z" fill="#006D2C"/>
<path d="M13.2314 30.957C13.2314 30.957 13.0974 30.5899 13.0452 30.4237C13.1106 30.5845 13.1246 30.6569 13.1223 30.689C13.1496 30.756 13.1878 30.8498 13.2314 30.957Z" fill="#006D2C"/>
<path d="M17.446 30.1478C17.4628 30.1889 17.4493 30.1944 17.446 30.1478V30.1478Z" fill="#006D2C"/>
<path d="M22.266 27.8739C22.0768 27.5605 22.184 27.4075 21.9389 27.07C21.9988 27.2174 22.0995 27.6918 22.266 27.8739Z" fill="#006D2C"/>
<path d="M17.4579 29.2683L17.5058 29.3108C17.5058 29.3108 17.4764 29.2762 17.4579 29.2683Z" fill="#006D2C"/>
<path d="M18.8586 28.6982C18.8586 28.6982 18.9042 28.7728 18.9088 28.7088C18.9034 28.6955 18.898 28.6821 18.8926 28.6688C18.9143 28.7221 18.912 28.7541 18.8717 28.6928L18.8586 28.6982Z" fill="#006D2C"/>
<path d="M19.3604 28.4935C19.3604 28.4935 19.3388 28.4402 19.3279 28.4135C19.3279 28.4135 19.3333 28.4269 19.3256 28.4455L19.3736 28.4881L19.3604 28.4935Z" fill="#006D2C"/>
<path d="M27.9222 21.902C27.9658 22.0092 28.0281 22.1244 28.085 22.2262C27.9759 21.9583 28.0038 21.8376 27.9222 21.902Z" fill="#006D2C"/>
<path d="M11.3806 29.3988C11.3424 29.305 11.3206 29.2514 11.3284 29.2327C11.3284 29.2327 11.3284 29.2327 11.3261 29.2648C11.3479 29.3184 11.3697 29.372 11.386 29.4122L11.3806 29.3988Z" fill="#006D2C"/>
<path d="M17.6617 25.7182L17.7622 25.7394C17.7622 25.7394 17.6879 25.7075 17.6617 25.7182Z" fill="#006D2C"/>
<path d="M17.9784 25.5894C18.0462 25.718 18.0921 25.793 18.1217 25.8278C18.1108 25.801 18.0999 25.7742 18.0835 25.734L17.9652 25.5948L17.9784 25.5894Z" fill="#006D2C"/>
<path d="M28.2405 21.1322C28.1612 21.1645 28.3972 21.6307 28.4984 21.9175C28.4605 22.0891 28.3116 21.5719 28.1816 21.328C28.1832 21.4835 28.3158 21.9606 28.2652 21.9499C28.2325 21.8695 28.2216 21.8427 28.178 21.7356C28.2832 22.1456 28.0116 21.8189 28.1341 22.3469C28.1177 22.3067 28.1014 22.2665 28.085 22.2263C28.1832 22.4675 28.2868 22.7221 28.3631 22.9096C28.3234 22.9258 28.4224 23.2447 28.2838 22.9419C28.3102 22.9311 28.2612 22.8106 28.2175 22.7034L28.2379 22.8669C28.0206 22.4087 28.2253 22.6846 28.0835 22.3362C28.0774 22.5105 28.1563 22.9313 28.0489 22.8188C27.8635 22.3633 28.1078 22.6231 27.8727 22.2346L28.0229 22.3765C27.6624 21.6799 28.0976 22.4086 27.7285 21.653C27.5682 21.562 27.7022 21.9291 27.542 21.8382C27.6192 22.1035 27.6947 22.2133 27.7851 22.4733C27.8119 22.9934 27.2027 21.3828 27.3291 22.0341C27.4281 22.3531 27.6493 22.9346 27.4446 22.6587L27.2638 22.1388C27.1363 22.1282 27.4977 22.9026 27.2502 22.5973C27.1816 22.3909 27.2586 22.3908 27.2236 22.3426C26.9939 21.9675 27.2907 22.6589 27.2378 22.6804L27.0524 22.2248C26.9607 22.3402 26.9649 22.729 26.8787 22.8577C26.8242 22.7238 26.7906 22.5656 26.7097 22.4424C26.6438 22.7347 26.3575 22.5232 26.1031 22.3144L26.2084 22.7245C26.2084 22.7245 26.111 22.561 26.1048 22.4699C25.9919 22.344 26.2084 22.7245 26.2419 22.8826C26.2132 22.9256 26.1096 22.671 26.0737 22.545C26.1043 22.923 26.0774 23.3868 25.7972 23.0011L25.7746 22.8698C25.6299 22.7412 26.0092 23.7113 25.7827 23.3818L25.7555 23.3148C25.5128 23.2106 25.4618 23.653 25.0765 23.1226C25.2791 23.6961 24.7879 22.9433 25.0964 23.7392C24.8326 23.3937 24.799 23.2355 24.5501 23.0401C24.4941 23.016 24.6989 23.5574 24.6788 23.6593L24.5098 23.2439L24.6182 23.6996L24.3768 23.2199L24.3808 23.3433C24.3808 23.3433 24.4968 23.5147 24.5458 23.6353C24.5561 23.8498 24.2595 23.4238 24.1723 23.2094L24.1423 23.6277C24.0768 23.4669 24.076 23.3892 24.0588 23.2712C24.1353 23.7242 23.8711 22.8479 23.9445 23.2553C23.9827 23.3491 24.0426 23.4965 24.0808 23.5903C23.9376 23.3518 23.8451 23.3895 23.8226 23.5235L23.7081 23.2422C23.5751 23.2182 23.5116 23.4783 23.3662 23.5375C23.4736 23.65 23.6621 24.1511 23.6388 24.2074L23.4589 23.7653C23.5283 24.0494 23.5508 23.9153 23.6342 24.2718C23.5595 24.2397 23.3928 23.7921 23.3725 23.6286L23.3664 23.8029C23.3119 23.6689 23.2846 23.6019 23.2324 23.4358C23.315 23.7145 22.9467 23.0366 23.0979 23.5217L23.0434 23.3877C22.8981 23.4469 22.892 23.6211 22.7971 23.691C22.9498 24.0661 22.8642 24.0072 22.9632 24.3262C22.8349 24.2378 22.6224 23.9807 22.5276 24.0505C22.5379 24.265 22.632 24.3829 22.6983 24.6214C22.5565 24.273 22.4672 24.3562 22.4164 24.0802C22.3193 24.1821 22.2851 24.2117 22.2543 24.5522C22.3274 24.6942 22.3757 24.7371 22.4115 24.863C22.4069 24.9274 22.2855 24.7425 22.2201 24.5817L22.2037 24.5415C22.2391 25.1206 21.3983 23.698 21.5606 24.4753L21.5443 24.4351L21.5648 24.864C21.4769 24.8373 21.5008 24.5933 21.374 24.3951C21.4498 25.0357 21.1034 24.4115 21.1239 24.8404C20.617 23.8597 20.8076 25.0472 20.4137 24.4578L20.5119 24.699C20.5781 24.9376 20.4177 24.5812 20.3827 24.5329C20.459 24.7205 20.5096 24.7312 20.5377 24.8759C20.3614 25.2756 19.8012 24.7696 19.4101 24.6789C19.2771 24.6549 19.8456 25.9384 19.4845 25.4295L19.3442 24.9712C19.3376 25.5985 18.8894 25.1406 18.8579 25.6688C18.8143 25.5616 18.7598 25.4276 18.8049 25.4249C18.6344 25.1195 18.6276 25.4814 18.7312 25.736C18.6807 25.7253 18.6331 25.4948 18.5521 25.3716C18.4362 25.2001 18.6022 25.8353 18.4582 25.5191C18.4364 25.4655 18.4145 25.4119 18.4301 25.3744C18.4691 25.5459 18.2816 25.388 18.4607 25.7524C18.3105 25.6105 18.3675 25.9777 18.2142 25.7902C18.3436 26.2217 18.0003 25.643 18.227 26.2379C17.9816 25.635 17.8853 25.8147 17.947 26.1176C17.8838 25.9246 17.831 25.9462 17.7406 25.6862C17.6877 25.7077 17.684 25.8498 17.8094 26.158C17.4092 25.4775 17.8378 26.8336 17.3901 25.9225C17.3492 26.314 17.2833 26.6063 17.1792 26.8049C16.9339 26.2019 17.3238 26.668 17.0543 26.0436C17.0125 26.3573 17.1272 26.9041 16.9219 26.8159C16.8495 26.7516 16.8393 26.5371 16.8143 26.438C16.7725 26.7517 16.5018 26.5027 16.5137 26.8727C16.4919 26.8191 16.4778 26.7467 16.4747 26.7011C16.4537 26.7253 16.3705 26.6342 16.4982 26.9102L16.4919 26.8191C16.6951 27.2049 16.7242 27.6928 16.8115 27.9072C16.5294 27.1005 16.5975 27.76 16.2601 26.7416C16.2687 26.8006 16.2968 26.9453 16.3677 27.1195C16.3195 27.0766 16.2626 26.9748 16.215 26.7443C16.1825 26.9293 16.3289 27.2134 16.2496 27.2456C16.1951 27.1116 16.1865 27.0527 16.1397 26.8999C16.2037 27.1706 16.2731 27.4547 16.1447 27.3664C16.112 27.286 16.0684 27.1788 16.0816 27.1734C15.979 27.262 16.1537 27.9562 15.918 27.7554C15.7231 27.1631 15.802 27.584 15.5816 27.0802L15.5755 27.2545L15.7 27.4849C15.7 27.4849 15.7283 27.8951 15.6046 27.7424L15.5757 27.5199L15.4949 27.6621L15.6373 27.8228C15.6748 28.1042 15.8936 28.4525 15.7598 28.3508C15.7512 28.2918 15.6937 28.3777 15.5473 28.0937C15.5863 28.2652 15.6121 28.4421 15.5234 28.3377C15.4579 28.1769 15.2998 27.7883 15.2562 27.6811C15.3988 28.1072 15.1599 27.8609 15.3002 28.3192C15.2566 28.212 15.1662 27.952 15.1312 27.9038L15.2411 28.2495C15.171 28.1531 15.136 28.1049 15.062 27.8851C14.9422 27.8558 15.3447 28.5041 15.1299 28.2791C15.119 28.2523 15.0972 28.1987 15.1018 28.1344C14.9361 28.03 14.9908 28.4294 14.8197 28.3117C14.586 27.8133 14.8499 28.1588 14.649 27.7408C14.555 27.8884 14.6036 28.4621 14.4224 28.3953L14.4706 28.4381C14.7464 29.1536 14.2232 28.1327 14.2934 28.4946C14.2848 28.4356 14.1617 28.0953 14.1758 28.1677C14.0342 28.0847 14.0616 28.4171 14.009 28.7041L13.9326 28.5165C13.8276 28.3718 13.7755 28.4711 13.6767 28.4176C13.7399 28.6105 13.6839 28.5865 13.8193 28.8437C13.209 27.8739 13.7048 29.5463 13.1918 28.7399C13.205 28.7345 13.166 28.5629 13.1528 28.5683L13.0861 28.7829C13.2115 29.0911 13.1756 28.9651 13.3134 29.1901C13.3765 29.3831 13.3914 29.5332 13.3518 29.5494C13.336 29.3215 13.15 29.0536 13.0527 28.8902C13.0909 28.984 13.1345 29.0911 13.1727 29.1849C12.883 28.6625 13.4235 29.8013 13.1705 29.4825L13.1051 29.3218C13.1114 29.4129 13.159 29.6434 13.103 29.6194C12.9426 29.263 13.0772 29.4424 12.9573 29.1477C12.9153 29.196 13.1296 29.874 12.9295 29.5338C12.9178 29.4292 12.9388 29.4051 12.927 29.3005C12.7052 28.9067 12.7356 29.0192 12.6687 28.9684L12.4998 28.8184L12.5753 28.9283C12.8909 29.8931 12.5008 29.1616 12.6537 29.8022C12.5117 29.1884 12.5306 29.4618 12.3802 29.0545C12.3102 28.9581 12.216 28.8402 12.1856 28.7276C12.2768 29.0653 12.0027 28.5053 12.1407 28.9958C12.0862 28.8618 12.0879 29.0173 11.9648 28.677C11.9555 28.8057 12.0707 28.8994 12.1229 29.0655C12.2103 29.5453 11.6933 28.6156 11.8198 29.267C11.8177 29.5646 11.9712 30.0175 11.9659 30.2695C11.839 30.0712 11.796 29.7764 11.796 29.7764C11.6668 29.6103 11.6381 29.6532 11.6507 29.8355C11.6071 29.7283 11.5634 29.6211 11.4903 29.4791C11.467 29.5355 11.6547 29.9589 11.5255 29.7928C11.4655 29.6454 11.3992 29.4069 11.3525 29.2541C11.3487 29.3962 11.4072 29.6535 11.4034 29.7956C11.2975 29.5732 11.2881 29.4365 11.2545 29.2783C11.2453 29.407 11.1909 29.5385 11.3117 29.911L11.4059 30.0289C11.4059 30.0289 11.2805 29.7207 11.2532 29.6537C11.1916 29.3508 11.3684 29.7474 11.4361 29.876L11.4292 29.9725C11.7796 30.7201 11.5255 29.7928 11.6079 29.8061L11.8105 30.3796L11.6989 29.8784C11.7721 30.0204 11.9107 30.3232 11.917 30.4143C12.0844 30.6742 11.8749 30.1972 12.0531 30.4839C12.075 30.5375 12.0859 30.5643 12.0913 30.5777L12.0787 30.3954C12.1278 30.516 12.2369 30.7839 12.1777 30.7143C12.4011 30.9982 12.1541 30.2398 12.3627 30.639L12.3791 30.6792C12.4217 30.4432 12.2101 30.2638 12.1249 29.7519L12.5999 30.7299L12.4309 30.3145C12.4309 30.3145 12.5001 30.3332 12.571 30.5074C12.5094 30.2045 12.5001 30.3332 12.4175 30.0545C12.6363 30.4028 12.5184 29.8104 12.7988 30.4616C12.6998 30.1426 12.6346 30.2473 12.6134 30.006C12.9102 30.6974 12.6436 29.8531 12.8274 30.1532C12.9614 30.5203 12.8322 30.3543 13.0159 30.6543C12.8047 30.0219 13.1761 30.7453 13.1799 30.6032C12.9836 30.1208 13.2038 30.3592 13.2177 30.1662C13.2831 30.3269 13.4853 30.3696 13.6223 30.5169L13.655 30.5973C13.4532 30.1015 13.5839 30.1577 13.5986 30.0424C13.7186 30.3372 13.7676 30.4577 13.7771 30.5945L13.8299 30.573C13.7645 30.4122 13.7582 30.321 13.776 30.2513L13.9233 30.6131C13.9233 30.6131 13.8809 30.1305 14.0716 30.3341C13.9298 29.9857 13.6052 29.415 13.6182 29.1442C13.6945 29.3318 13.8254 29.6534 13.8394 29.7257C13.8285 29.6989 13.8004 29.5542 13.8596 29.6238L13.9453 29.9481C14.0395 30.066 13.8682 29.6828 13.9055 29.6988C14.0145 29.9668 14.0083 29.8757 14.0955 30.0901C14.1064 30.1169 14.0254 29.9936 14.0559 30.1062C14.1173 30.1437 14.2169 30.2749 14.3119 30.4705C14.252 30.3231 14.1647 30.1087 14.1802 30.0712C14.2409 30.0309 14.3375 30.382 14.4317 30.4999C14.3686 30.3069 14.4978 30.473 14.3396 30.0844C14.3661 30.0737 14.4424 30.2612 14.486 30.3684C14.4548 30.1781 14.636 30.2449 14.4273 29.8457L14.4164 29.8189C14.4164 29.8189 14.4164 29.8189 14.411 29.8055C14.3718 29.3685 14.7547 29.9311 14.8028 29.7085L14.8573 29.8425C14.8634 29.6682 14.9777 29.6842 14.9161 29.3813C14.9425 29.3705 15.0671 29.601 15.1193 29.7671C15.134 29.6518 15.0818 29.4857 15.2538 29.6812C15.2936 29.9305 15.3488 29.8768 15.2718 29.8769C15.3869 29.9706 15.4951 30.1608 15.414 29.7722C15.5239 30.1179 15.6413 30.1794 15.6374 30.0561L15.4864 29.8364C15.4864 29.8364 15.547 29.7961 15.5921 29.7934L15.772 30.2356C16.1223 30.7177 15.6336 29.2142 16.1233 30.077C16.0376 29.7527 15.9568 29.8948 15.8438 29.5035C15.9317 29.5303 16.2595 30.1465 16.2859 30.1358C16.4765 30.3393 16.098 29.4469 16.2746 29.5781C16.2092 29.4173 16.0083 28.9993 16.0276 28.8197C16.1155 28.8464 16.3795 29.4573 16.3889 29.5941C16.3812 29.6128 16.3461 29.5646 16.3243 29.511C16.3197 29.5754 16.3205 29.6531 16.4178 29.8166L16.3524 29.6558C16.4575 29.8004 16.5445 29.7494 16.6349 30.0093C16.6278 29.8404 16.5578 29.744 16.4799 29.6663C16.6519 29.8619 16.6121 29.6126 16.77 29.7357C16.7186 29.6473 16.6345 29.4785 16.661 29.4677C16.8749 29.6149 16.5884 29.1381 16.6537 29.0334C16.8047 29.2531 16.8749 29.6149 16.8724 29.3817C16.9907 29.521 17.0414 29.7971 17.096 29.9311C17.0498 29.5906 17.3231 30.0729 17.3978 30.105L17.4127 30.2551C17.4064 30.1639 17.4196 30.1586 17.4515 30.1612L17.2942 29.8504C17.2942 29.8504 17.3556 29.8878 17.4102 30.0218C17.3493 29.7967 17.1843 29.5047 17.104 29.1938C17.2091 29.3384 17.1388 28.9765 17.3265 29.3999C17.1608 29.2956 17.501 29.8287 17.449 29.928C17.4404 29.869 17.4668 29.8582 17.515 29.9011C17.5369 29.9547 17.5532 29.9949 17.5587 30.0083C17.817 30.3404 17.402 29.5098 17.5132 29.4801C17.6113 29.7213 17.725 29.925 17.7164 29.866C17.6768 29.8821 17.5264 29.4748 17.4952 29.2845C17.6376 29.4451 17.5067 29.1236 17.5518 29.1208L17.4794 29.0566C17.3945 28.81 17.4505 28.8341 17.4574 28.7376C17.5338 28.9251 17.4723 28.8877 17.5183 28.9627C17.4021 28.5258 17.8117 29.3431 17.7632 29.0348C17.8683 29.1795 17.9432 29.477 18.0132 29.5734C17.9671 29.233 18.2366 29.8573 18.2123 29.5705C18.055 29.2597 18.0877 29.3401 18.0151 29.0104L17.9625 29.2973L17.8641 28.7907C17.8641 28.7907 17.8534 29.0293 17.8052 28.9865C17.7412 28.7158 17.7685 28.7828 17.6385 28.539C17.8876 28.9998 17.6429 28.2092 17.8398 28.5039L18.1615 29.2944C18.3958 29.6051 18.1697 28.8225 18.3837 28.9697L18.2895 28.8519C18.1773 28.5383 18.3524 28.7794 18.3376 28.6293C18.4466 28.8973 18.5112 28.9803 18.5898 29.1357C18.5081 28.9347 18.6878 29.1115 18.4884 28.5835L18.683 28.9104C18.8487 29.0148 18.4966 28.1117 18.635 28.149C18.7231 28.4412 18.8391 28.6126 18.8602 28.8539C18.8999 28.8378 18.9481 28.8806 18.8718 28.693C18.9504 28.8484 18.8171 28.2936 18.9471 28.5374C18.9112 28.4115 18.8022 28.1435 18.8473 28.1407C18.8691 28.1943 18.9018 28.2747 18.9018 28.2747C18.8473 28.1407 18.8838 28.079 18.7374 27.795C19.1812 28.5827 19.0063 27.6231 19.3823 28.2822C19.4235 28.1562 19.47 28.0435 19.5306 28.0032C19.5634 28.0836 19.5852 28.1372 19.5743 28.1104C19.7649 28.3139 19.3163 27.3252 19.5365 27.5635C19.7639 27.9708 19.5764 27.8128 19.6682 27.9628C20.0359 28.8284 19.7513 27.7885 20.0246 28.2707L20.0464 28.3243C20.206 28.603 20.029 27.941 20.1356 27.9757C20.1356 27.9757 20.1683 28.0561 20.1901 28.1097C20.0762 27.6406 20.122 27.4502 20.1654 27.292C20.2753 27.6377 20.1966 27.4823 20.3516 27.8253C20.3694 27.7556 20.1281 27.276 20.1505 27.1419C20.2533 27.3187 20.3716 27.458 20.5374 27.8278L20.4714 27.8547C20.7128 28.3343 20.5639 27.817 20.6362 27.8813L20.7235 28.0957C20.8019 27.9856 20.5893 27.4631 20.7191 27.4415L20.6537 27.2807C20.4939 26.7366 20.8133 27.5593 20.7212 27.1439L20.9339 27.6664C20.9454 27.5056 20.8985 27.0874 20.9209 26.9533C21.0394 27.358 21.0287 27.5966 21.074 27.8593C21.1136 27.8432 21.203 27.76 21.1126 27.5C21.1212 27.559 21.1438 27.6903 21.0979 27.6153C20.9817 27.1784 20.966 26.9506 21.0453 26.9183C21.4519 27.9554 21.3603 27.0868 21.7536 27.8639C21.7463 27.4296 22.1097 27.9064 22.2597 27.7829C21.8665 27.0058 22.3017 27.7346 21.9558 26.9226C21.9737 26.8529 21.9923 26.8609 22.0141 26.9145L22.3348 27.3619C22.4594 27.5923 22.3661 27.5522 22.4424 27.7398C22.5622 27.7691 22.6238 28.072 22.7639 28.2649C22.6439 27.9701 22.6213 27.8387 22.7178 27.9244L22.499 27.5761C22.438 27.0856 22.8828 28.2165 22.8273 27.7393L22.8912 28.01C22.8973 27.8357 23.1291 27.9132 22.9148 27.2352C22.9529 27.329 23.0721 27.546 23.0675 27.6103C23.251 27.645 23.1275 26.7738 23.3968 27.1327L23.4786 27.3337C23.4786 27.3337 23.3656 26.9424 23.487 27.1273C23.5197 27.2076 23.5688 27.3282 23.5742 27.3416C23.5602 27.2693 23.5117 26.961 23.6005 27.0655L23.6667 27.304C23.9211 27.5128 23.6678 26.6632 23.7454 26.4755C23.9853 27.065 24.1806 27.2042 24.2716 27.2765L24.3044 27.3569C24.5034 27.354 24.3988 26.7562 24.4592 26.4505C24.8134 27.056 24.8986 26.584 25.2044 26.8813C25.1344 26.7848 25.019 26.4257 25.0182 26.348C25.1069 26.4524 24.9549 25.8896 25.1652 26.4443C25.3965 26.9749 25.4159 26.7952 25.4742 26.7871L25.1852 26.077C25.7768 27.0388 25.4554 25.5297 25.9109 26.422C25.8796 26.2317 25.9193 26.2155 25.8881 26.0252L26.0407 26.4004C26.1846 26.4512 26.2593 26.4832 26.3533 26.3357L26.4359 26.6144C26.5261 26.6089 26.0813 25.4781 26.1419 25.4378L26.3973 25.9898C26.5295 25.936 26.8447 26.37 26.7696 25.807C26.8024 25.8874 26.8678 26.0482 26.8523 26.0858C26.9238 26.0723 27.2482 26.3775 26.9056 25.6112C27.1128 26.1203 27.0595 25.611 27.0329 25.3563L27.1856 25.7315C27.0421 25.2276 26.9931 25.107 27.0178 24.9408C27.0529 24.989 27.151 25.2302 27.0996 25.1417C27.2475 25.3158 27.0107 24.7719 27.1663 24.9272L27.2381 25.1791C27.2381 25.1791 27.266 25.0584 27.1779 24.7663C27.1575 24.6028 27.335 24.8117 27.4845 25.1413C27.4027 24.9403 27.3279 24.6428 27.4057 24.7205C27.4602 24.8544 27.4875 24.9214 27.4906 24.967C27.6999 25.1786 27.4747 24.4737 27.7012 24.8032C27.7503 24.9238 27.7775 24.9908 27.7939 25.031C27.7014 25.0686 27.6244 25.0687 27.6267 25.0366C27.7685 25.3849 27.8564 25.4116 27.9998 25.9155C27.9491 25.6394 27.8258 25.0337 27.9573 25.1676C27.9682 25.1943 27.9845 25.2345 28.0064 25.2881L28.0227 25.3283C28.0227 25.3283 28.0491 25.3176 28.0405 25.2586C28.0888 25.3014 28.1184 25.3363 28.137 25.3443C28.2515 25.6257 28.2763 25.4594 28.3214 25.4567C28.1687 25.0815 28.2302 25.119 28.0651 24.8269C28.076 24.8537 28.0815 24.8671 28.0659 24.9047C28.0659 24.9047 28.0714 24.9181 28.0691 24.9503L28.0582 24.9235C28.0318 24.9342 28.0108 24.9584 27.9766 24.9879C27.9267 24.7896 27.8877 24.618 28.0091 24.8029C27.9242 24.5563 27.847 24.291 27.8166 24.1784C28.0821 24.6795 28.2891 24.9232 28.4386 25.2528C28.4571 24.9954 28.6352 25.0166 28.4123 24.2796C28.4005 24.175 28.5337 24.4644 28.5906 24.5663C28.6046 24.6386 28.5727 24.636 28.6031 24.7486C28.5929 24.5341 28.7609 24.6063 28.5723 24.1051C28.7443 24.3007 28.7181 24.5768 28.7911 24.4534L28.8511 24.6008C29.371 25.3107 28.6689 23.2069 29.3079 24.1338C29.2674 24.0722 29.2433 24.0507 29.2106 23.9703C29.6548 24.305 29.5834 23.3345 30.1367 23.9371C30.2759 24.0522 30.1451 23.7306 30.0998 23.4679L30.2633 23.8699L30.165 23.3633C30.129 22.9719 30.7535 24.2795 30.6371 23.5772L30.5281 23.3093C30.5281 23.3093 30.608 23.0893 30.7202 23.4029C30.6984 23.3493 30.6189 23.1161 30.6999 23.2394L30.7871 23.4537L30.7588 23.0436C30.9113 23.1533 31.0891 23.8931 31.2376 23.8795C31.2578 23.7776 31.1322 23.204 31.059 23.062C31.0325 23.0727 30.9516 22.9495 30.8644 22.7351L30.8736 22.6064C30.6173 21.9767 30.4007 21.3308 30.115 20.9317L30.1884 21.3391L30.0366 21.0417L30.1027 21.0148C29.9376 20.7227 30.0148 20.9881 30.0592 21.173C29.9938 21.0122 29.937 20.9104 29.8833 20.8542L30.0439 21.476C29.9458 21.2348 29.8873 20.9775 29.7799 20.865C29.8547 21.1625 30.0431 21.3982 30.0479 21.5993C29.8937 21.3341 29.8143 21.1009 29.8728 21.3582C29.8073 21.1974 29.7637 21.0902 29.7629 21.0125C29.7996 21.2162 29.6899 21.1359 29.7998 21.4816C29.6183 21.1494 29.7058 21.6292 29.4659 21.0397C29.5258 21.187 29.5906 21.5355 29.5564 21.565C29.3335 20.828 29.4079 21.5786 29.1104 20.8095C29.3138 21.4608 29.0399 21.1662 29.1023 21.5468C29.0805 21.4932 29.0556 21.394 29.0797 21.4155C29.005 21.3834 28.9155 21.2012 28.84 21.0913C29.0526 21.6139 29.0224 21.7667 29.1004 22.1098C28.8271 21.6276 28.8892 21.4773 28.6665 21.0057C28.841 21.4345 28.7353 21.4775 28.9035 21.8151C28.7252 21.5285 28.8039 21.6839 28.5975 21.2525C28.8647 21.909 28.6015 21.3758 28.7254 21.7939C28.5285 21.4992 28.4614 21.1829 28.4639 21.4162C28.3424 21.2313 28.3158 20.9767 28.3158 20.9767L28.2405 21.1322ZM26.9464 22.9864C26.9464 22.9864 26.9674 22.9622 26.9752 22.9434C26.9752 22.9434 26.962 22.9488 26.9464 22.9864ZM26.8011 23.0455C26.8011 23.0455 26.8462 23.0428 26.8726 23.032C26.9271 23.166 26.9817 23.3 26.963 23.292C26.9303 23.2116 26.8711 23.1419 26.8011 23.0455ZM28.1815 25.5292C28.1815 25.5292 28.1441 25.5132 28.1037 25.4516C28.1037 25.4516 28.1246 25.4274 28.1269 25.3952C28.1215 25.3818 28.116 25.3684 28.1106 25.355C28.1379 25.422 28.1651 25.489 28.1869 25.5426L28.1815 25.5292Z" fill="#006D2C"/>
<path d="M28.0192 25.0173L28.0083 24.9905C27.9974 24.9638 27.981 24.9236 27.9624 24.9155C27.9787 24.9557 27.9951 24.9959 28.0114 25.0361L28.0192 25.0173Z" fill="#006D2C"/>
<path d="M24.4582 23.1554L24.4964 23.2492L24.4769 23.1634L24.4582 23.1554Z" fill="#006D2C"/>
<path d="M12.6265 29.0167L12.5192 28.9042C12.5783 28.9738 12.6024 28.9953 12.6265 29.0167Z" fill="#006D2C"/>
<path d="M16.4007 26.7464C16.4007 26.7464 16.4007 26.7464 16.3953 26.7331C16.3944 26.6558 16.379 26.6931 16.4007 26.7464Z" fill="#006D2C"/>
<path d="M15.4789 28.1527C15.4648 28.0803 15.4508 28.0079 15.4476 27.9623C15.4103 27.9463 15.3916 27.9383 15.4789 28.1527Z" fill="#006D2C"/>
<path d="M15.5134 27.9352C15.4547 27.866 15.4524 27.898 15.4478 27.9619C15.4717 27.9832 15.5143 28.0125 15.5134 27.9352Z" fill="#006D2C"/>
<path d="M11.0313 29.2597L11.0259 29.2463C11.0259 29.2463 11.029 29.2916 11.0398 29.3183L11.0236 29.2783L11.0313 29.2597Z" fill="#006D2C"/>
<path d="M11.0547 29.4689L11.043 29.3644C11.043 29.3644 11.0165 29.3751 11.0547 29.4689Z" fill="#006D2C"/>
<path d="M11.5615 29.2002C11.5615 29.2002 11.3754 28.9324 11.374 29.0423L11.4176 29.1495C11.349 28.9431 11.6277 29.4388 11.5615 29.2002Z" fill="#006D2C"/>
<path d="M12.6979 30.7056L12.5618 30.636C12.635 30.778 12.7378 30.9549 12.7145 31.0112C13.0079 31.3916 12.5572 30.7004 12.6979 30.7056Z" fill="#006D2C"/>
<path d="M13.0758 30.8017C13.0502 30.8902 13.1631 31.0161 13.1958 31.0965C13.1677 30.9517 13.17 30.9195 13.0758 30.8017Z" fill="#006D2C"/>
<path d="M14.782 28.0302L14.6606 27.8454L14.7727 28.1589L14.782 28.0302Z" fill="#006D2C"/>
<path d="M16.0177 30.3853L16.0077 30.4363L16.0247 30.2888L16.0177 30.3853Z" fill="#006D2C"/>
<path d="M19.4044 28.8667L19.2354 28.4513C19.2284 28.5478 19.4193 29.0168 19.4044 28.8667Z" fill="#006D2C"/>
<path d="M20.7047 27.8222C20.8051 28.0312 20.8993 28.149 20.8385 27.9239C20.7879 27.9132 20.6961 27.7632 20.7047 27.8222Z" fill="#006D2C"/>
<path d="M25.4413 26.7067L25.4694 26.8514L25.4787 26.7227L25.4413 26.7067Z" fill="#006D2C"/>
</g>
<defs>
<clipPath id="clip0_13_1679">
<rect width="26.7328" height="23.2834" fill="white" transform="translate(21.5662) rotate(67.8566)"/>
</clipPath>
</defs>
</svg>
